<?xml version="1.0" encoding="iso-8859-1"?>
<!-- Generator: Adobe Illustrator 19.0.0, SVG Export Plug-In . SVG Version: 6.00 Build 0)  -->
<svg version="1.1" id="Layer_1" xmlns="http://www.w3.org/2000/svg" xmlns:xlink="http://www.w3.org/1999/xlink" x="0px" y="0px"
	 viewBox="0 0 512 512" style="enable-background:new 0 0 512 512;" xml:space="preserve">
<circle style="fill:#FC6F58;" cx="256" cy="256" r="256"/>
<path style="fill:#F1543F;" d="M512,256c0-9.218-0.498-18.316-1.448-27.283L399.946,118.112L237.411,308.903L121.56,386.991
	L246.369,511.8c3.198,0.119,6.406,0.198,9.631,0.198C397.384,512,512,397.384,512,256z"/>
<rect x="121.553" y="177.855" style="fill:#324A5E;" width="268.878" height="209.127"/>
<rect x="292.495" y="177.855" style="fill:#2B3B4E;" width="97.951" height="209.127"/>
<rect x="222.384" y="237.623" style="fill:#B5F1F4;" width="139.636" height="119.501"/>
<g>
	<rect x="292.495" y="237.623" style="fill:#84DBFF;" width="69.525" height="119.501"/>
	<rect x="136.499" y="237.623" style="fill:#84DBFF;" width="59.751" height="149.376"/>
</g>
<path style="fill:#FFD15D;" d="M130.712,207.738L130.712,207.738c-10.306,0-18.66-8.354-18.66-18.66v-70.966h37.319v70.968
	C149.371,199.383,141.017,207.738,130.712,207.738z"/>
<path style="fill:#F9B54C;" d="M166.509,207.738L166.509,207.738c-10.305,0-18.66-8.354-18.66-18.66v-70.966h37.319v70.968
	C185.168,199.383,176.814,207.738,166.509,207.738z"/>
<path style="fill:#FFD15D;" d="M202.304,207.738L202.304,207.738c-10.305,0-18.66-8.354-18.66-18.66v-70.966h37.319v70.968
	C220.965,199.383,212.609,207.738,202.304,207.738z"/>
<path style="fill:#F9B54C;" d="M238.101,207.738L238.101,207.738c-10.306,0-18.66-8.354-18.66-18.66v-70.966h37.319v70.968
	C256.76,199.383,248.406,207.738,238.101,207.738z"/>
<path style="fill:#FFD15D;" d="M273.898,207.738L273.898,207.738c-10.306,0-18.66-8.354-18.66-18.66v-70.966h37.319v70.968
	C292.557,199.383,284.203,207.738,273.898,207.738z"/>
<path style="fill:#FFD300;" d="M345.49,207.738L345.49,207.738c-10.306,0-18.66-8.354-18.66-18.66v-70.966h37.319v70.968
	C364.149,199.383,355.795,207.738,345.49,207.738z"/>
<g>
	<path style="fill:#F4A200;" d="M309.693,207.738L309.693,207.738c-10.306,0-18.66-8.354-18.66-18.66v-70.966h37.319v70.968
		C328.352,199.383,319.998,207.738,309.693,207.738z"/>
	<path style="fill:#F4A200;" d="M381.285,207.738L381.285,207.738c-10.306,0-18.66-8.354-18.66-18.66v-70.966h37.319v70.968
		C399.944,199.383,391.59,207.738,381.285,207.738z"/>
</g>
<path style="fill:#C1321F;" d="M345.343,285.811c0-14.676-11.897-26.571-26.571-26.571c-14.674,0-26.571,11.897-26.571,26.571
	c0-14.676-11.897-26.571-26.571-26.571c-14.674,0-26.571,11.897-26.571,26.571c0,26.974,53.143,53.143,53.143,53.143
	S345.343,312.785,345.343,285.811z"/>
<path style="fill:#A82116;" d="M345.343,285.811c0-14.676-11.897-26.571-26.571-26.571c-13.414,0-24.476,9.95-26.283,22.868v56.701
	C296.476,336.803,345.343,311.686,345.343,285.811z"/>
<g>
</g>
<g>
</g>
<g>
</g>
<g>
</g>
<g>
</g>
<g>
</g>
<g>
</g>
<g>
</g>
<g>
</g>
<g>
</g>
<g>
</g>
<g>
</g>
<g>
</g>
<g>
</g>
<g>
</g>
</svg>
