<?xml version="1.0" encoding="iso-8859-1"?>
<!-- Generator: Adobe Illustrator 19.0.0, SVG Export Plug-In . SVG Version: 6.00 Build 0)  -->
<svg version="1.1" id="Capa_1" xmlns="http://www.w3.org/2000/svg" xmlns:xlink="http://www.w3.org/1999/xlink" x="0px" y="0px"
	 viewBox="0 0 512 512" style="enable-background:new 0 0 512 512;" xml:space="preserve">
<circle style="fill:#0088FF;" cx="256" cy="256" r="256"/>
<path style="fill:#004EB1;" d="M511.977,257.811l-77.608-77.607L255.999,57L77.628,180.204l24.544,29.461l26.027,25.42v135.089
	H94.842v37.603l95.786,95.786C211.497,509.06,233.404,512,256,512C396.779,512,511.001,398.361,511.977,257.811z"/>
<polygon style="fill:#FFFFFF;" points="383.799,373.836 128.199,373.836 128.199,169 255.999,81.669 383.799,169 "/>
<polygon style="fill:#9CFDFF;" points="383.798,168.996 383.798,373.837 255.999,373.837 255.999,81.667 "/>
<rect x="159.41" y="205.33" style="fill:#00E8F2;" width="193.19" height="183.87"/>
<g>
	<rect x="256" y="205.33" style="fill:#00B7BE;" width="96.59" height="183.87"/>
	<rect x="159.41" y="205.33" style="fill:#00B7BE;" width="193.19" height="15"/>
</g>
<rect x="256" y="205.33" style="fill:#00777B;" width="96.59" height="15"/>
<rect x="159.41" y="238.29" style="fill:#00B7BE;" width="193.19" height="15"/>
<rect x="256" y="238.29" style="fill:#00777B;" width="96.59" height="15"/>
<rect x="159.41" y="271.25" style="fill:#00B7BE;" width="193.19" height="15"/>
<rect x="256" y="271.24" style="fill:#00777B;" width="96.59" height="15"/>
<rect x="159.41" y="304.2" style="fill:#00B7BE;" width="193.19" height="15"/>
<rect x="256" y="304.2" style="fill:#00777B;" width="96.59" height="15"/>
<rect x="159.41" y="337.16" style="fill:#00B7BE;" width="193.19" height="15"/>
<rect x="256" y="337.16" style="fill:#00777B;" width="96.59" height="15"/>
<rect x="94.84" y="370.17" style="fill:#FEC000;" width="322.31" height="37.603"/>
<rect x="256" y="370.18" style="fill:#FF9A00;" width="161.16" height="37.605"/>
<polygon style="fill:#E02424;" points="409.826,209.665 255.999,103.414 102.171,209.665 77.628,180.204 255.999,57 434.37,180.204 
	"/>
<polygon style="fill:#990011;" points="434.372,180.208 409.827,209.663 383.798,191.689 255.999,103.416 255.999,57.001 "/>
<g>
</g>
<g>
</g>
<g>
</g>
<g>
</g>
<g>
</g>
<g>
</g>
<g>
</g>
<g>
</g>
<g>
</g>
<g>
</g>
<g>
</g>
<g>
</g>
<g>
</g>
<g>
</g>
<g>
</g>
</svg>
