<?xml version="1.0" encoding="iso-8859-1"?>
<!-- Generator: Adobe Illustrator 19.0.0, SVG Export Plug-In . SVG Version: 6.00 Build 0)  -->
<svg version="1.1" id="Capa_1" xmlns="http://www.w3.org/2000/svg" xmlns:xlink="http://www.w3.org/1999/xlink" x="0px" y="0px"
	 viewBox="0 0 512 512" style="enable-background:new 0 0 512 512;" xml:space="preserve">
<circle style="fill:#00E8F2;" cx="256" cy="256" r="256"/>
<path style="fill:#00B7BE;" d="M512,256c0-19.891-2.269-39.252-6.561-57.839L402.017,94.739l-18.703,25.502l12.175,11.017v81.128
	l-23.279-24.109L240.332,82.079L108.455,188.278L132.75,213.5v151.727l33.052,32.63H137.75l-11.911-12.175l-25.502,18.703
	l101.952,101.952C219.61,510.036,237.574,512,256,512C397.385,512,512,397.385,512,256z"/>
<rect x="132.75" y="183.41" style="fill:#FFFFFF;" width="215.16" height="181.15"/>
<rect x="240.33" y="183.41" style="fill:#FFF5CB;" width="107.58" height="181.15"/>
<polygon style="fill:#E02424;" points="108.455,188.278 240.332,82.079 372.21,188.278 "/>
<polygon style="fill:#990011;" points="372.21,188.278 240.33,188.278 240.33,82.078 "/>
<rect x="203.27" y="255.22" style="fill:#FEC000;" width="74.13" height="109.34"/>
<rect x="240.33" y="255.21" style="fill:#FF9A00;" width="37.07" height="109.35"/>
<polygon style="fill:#0088FF;" points="380.328,404.386 354.826,385.683 354.826,397.858 125.838,397.858 125.838,385.683 
	100.336,404.386 125.838,423.089 125.838,410.914 354.826,410.914 354.826,423.089 "/>
<g>
	<polygon style="fill:#004EB1;" points="354.83,423.09 354.83,410.91 240.33,410.91 240.33,397.86 354.83,397.86 354.83,385.68 
		380.33,404.39 	"/>
	<polygon style="fill:#004EB1;" points="402.017,352.567 420.72,327.065 408.545,327.065 408.545,120.242 420.72,120.242 
		402.017,94.739 383.313,120.242 395.488,120.242 395.488,327.065 383.313,327.065 	"/>
</g>
<g>
</g>
<g>
</g>
<g>
</g>
<g>
</g>
<g>
</g>
<g>
</g>
<g>
</g>
<g>
</g>
<g>
</g>
<g>
</g>
<g>
</g>
<g>
</g>
<g>
</g>
<g>
</g>
<g>
</g>
</svg>
