<?xml version="1.0" encoding="iso-8859-1"?>
<!-- Generator: Adobe Illustrator 19.0.0, SVG Export Plug-In . SVG Version: 6.00 Build 0)  -->
<svg version="1.1" id="Capa_1" xmlns="http://www.w3.org/2000/svg" xmlns:xlink="http://www.w3.org/1999/xlink" x="0px" y="0px"
	 viewBox="0 0 512 512" style="enable-background:new 0 0 512 512;" xml:space="preserve">
<circle style="fill:#E02424;" cx="256" cy="256" r="256"/>
<path style="fill:#990011;" d="M512,256c0-7.862-0.374-15.635-1.068-23.315L403.046,124.798
	c-22.212-23.937-55.4-39.141-92.489-39.141c-66.877,0-121.092,49.417-121.092,110.376c0,28.434,11.802,54.352,31.178,73.919
	l5.856,5.859l-13.523,26.068l-95.905-95.905c-7.114-7.114-18.649-7.114-25.763,0l-4.178,4.178l0,0l-4.856,4.856l0,0l-0.719,0.719
	l0.014,0.014c-23.049,23.629-27.696,56.929-10.215,74.41l219.48,219.48C415.738,492.636,512,385.568,512,256z"/>
<path style="fill:#FFFFFF;" d="M158.712,281.736c4.638-4.638,5.592-11.204,2.131-14.665l-59.049-59.049
	c-3.461-3.461-10.027-2.507-14.665,2.131l-4.856,4.856c-23.667,23.667-28.581,57.481-10.919,75.142l1.294,1.294l6.066,6.066
	c9.32,9.32,121.044,121.044,130.364,130.364l6.066,6.066l1.294,1.294c17.661,17.661,51.475,12.748,75.142-10.919l4.856-4.856
	c4.638-4.638,5.592-11.204,2.131-14.665l-59.049-59.049c-3.461-3.461-10.027-2.507-14.665,2.131l-4.857,4.856
	c-1.272,1.272-2.478,2.578-3.641,3.904v-0.018c-4.521,4.521-14.333,4.164-21.721-3.224c-5.993-5.993-34.689-34.689-41.442-41.442
	c-7.388-7.388-7.744-17.201-3.224-21.721h-0.018c1.326-1.163,2.633-2.369,3.904-3.641L158.712,281.736z"/>
<path style="fill:#9CFDFF;" d="M239.522,345.745l59.046,59.046c3.461,3.461,2.508,10.033-2.131,14.672l-4.854,4.854
	c-23.667,23.667-57.482,28.582-75.143,10.921l-72.544-72.544l30.02-30.02l20.72,20.72c7.39,7.39,17.203,7.747,21.719,3.23v0.01
	c1.16-1.323,2.37-2.625,3.645-3.899l4.854-4.854C229.494,343.242,236.061,342.284,239.522,345.745z"/>
<g>
	<path style="fill:#00E8F2;" d="M162.881,277.548l-9.754,9.754l-71.573-71.573l9.754-9.754c7.114-7.114,18.649-7.114,25.763,0
		l45.81,45.81C169.995,258.9,169.995,270.434,162.881,277.548z"/>
	<path style="fill:#00E8F2;" d="M300.615,415.282l-9.754,9.754l-71.573-71.573l9.754-9.754c7.114-7.114,18.649-7.114,25.763,0
		l45.81,45.81C307.729,396.633,307.729,408.168,300.615,415.282z"/>
</g>
<path style="fill:#FFFFFF;" d="M310.557,85.657c-66.877,0-121.091,49.417-121.091,110.376c0,31.252,14.253,59.467,37.152,79.548
	l-15.508,29.896l43.587-11.496c16.714,7.936,35.711,12.428,55.861,12.428c66.877,0,121.092-49.417,121.092-110.376
	S377.434,85.657,310.557,85.657z"/>
<path style="fill:#FFF5CB;" d="M310.557,85.657L310.557,85.657v220.752l0,0c66.877,0,121.092-49.417,121.092-110.376
	S377.434,85.657,310.557,85.657z"/>
<rect x="258.26" y="169.77" style="fill:#FEC000;" width="104.59" height="88.05"/>
<rect x="310.56" y="169.77" style="fill:#FF9A00;" width="52.29" height="88.05"/>
<polygon style="fill:#E02424;" points="246.454,172.133 310.557,120.512 374.659,172.133 "/>
<polygon style="fill:#990011;" points="374.659,172.133 310.556,172.133 310.556,120.512 "/>
<rect x="292.54" y="204.67" style="fill:#0088FF;" width="36.03" height="53.15"/>
<rect x="310.56" y="204.67" style="fill:#004EB1;" width="18.02" height="53.15"/>
<g>
</g>
<g>
</g>
<g>
</g>
<g>
</g>
<g>
</g>
<g>
</g>
<g>
</g>
<g>
</g>
<g>
</g>
<g>
</g>
<g>
</g>
<g>
</g>
<g>
</g>
<g>
</g>
<g>
</g>
</svg>
