<?xml version="1.0" encoding="iso-8859-1"?>
<!-- Generator: Adobe Illustrator 19.0.0, SVG Export Plug-In . SVG Version: 6.00 Build 0)  -->
<svg version="1.1" id="Capa_1" xmlns="http://www.w3.org/2000/svg" xmlns:xlink="http://www.w3.org/1999/xlink" x="0px" y="0px"
	 viewBox="0 0 512 512" style="enable-background:new 0 0 512 512;" xml:space="preserve">
<circle style="fill:#E02424;" cx="256" cy="256" r="256"/>
<path style="fill:#990011;" d="M512,256c0-6.982-0.29-13.896-0.839-20.736l-88.296-88.296L327.072,74.3l-95.794,72.667
	l13.181,17.376l13.922,13.922l0.056,64.223h-17.914v20.195l84.019,84.378h-18.881l-33.824-33.876c0,0-47.773-45.285-51.202-48.549
	c-5.355-5.099-11.412-12.205-20.894-12.205c-2.017,0-24.006,0-47.185,0l-15.699-16.212c-3.886-4.416-9.561-7.22-15.871-7.22H102.21
	c-11.656,0-21.192,9.537-21.192,21.192v119.191c0,6.17,2.681,11.733,6.929,15.61l123.922,123.204
	C226.206,510.689,240.949,512,256,512C397.385,512,512,397.385,512,256z"/>
<path style="fill:#FFDBA9;" d="M96.386,283.529v83.93h70.581c15.216,0,18.175-0.167,37.758,17.638
	c15.612,14.195,38.885,14.796,59.173,14.796h119.848c16.392,0,29.68-11.827,29.68-26.416l0,0c0-14.589-13.288-26.416-29.68-26.416
	H271.294c-1.963,0-3.84-0.72-5.188-1.99l-69.976-65.906c-1.348-1.27-3.225-1.99-5.188-1.99h-87.418
	C99.582,277.176,96.386,280.02,96.386,283.529z"/>
<path style="fill:#FFC473;" d="M271.837,313.186c0,0-47.773-45.285-51.202-48.549c-5.355-5.099-11.413-12.205-20.894-12.205
	c-4.39,0-103.355,0-103.355,0v38.537h93.61l35.481,33.785c0.074,0.071,17.116,16.277,17.116,16.277
	c8.042,7.658,22.866,9.243,30.908,1.585l0,0C281.543,334.959,279.878,320.843,271.837,313.186z"/>
<path style="fill:#00E8F2;" d="M120.986,390.576H102.21c-11.656,0-21.192-9.536-21.192-21.192V250.192
	c0-11.656,9.537-21.192,21.192-21.192h18.777c11.656,0,21.192,9.537,21.192,21.192v119.191
	C142.178,381.039,132.642,390.576,120.986,390.576z"/>
<polygon style="fill:#FFFFFF;" points="395.706,244.456 258.438,244.456 258.438,151.955 327.072,99.89 395.706,151.955 "/>
<polygon style="fill:#9CFDFF;" points="395.706,151.953 395.706,244.456 327.072,244.456 327.072,99.889 "/>
<rect x="308.16" y="190.68" style="fill:#FEC000;" width="37.823" height="53.781"/>
<rect x="327.07" y="190.68" style="fill:#FF9A00;" width="18.911" height="53.781"/>
<rect x="240.52" y="242.49" style="fill:#0088FF;" width="173.1" height="20.2"/>
<rect x="327.07" y="242.49" style="fill:#004EB1;" width="86.55" height="20.2"/>
<polygon style="fill:#FEC000;" points="409.684,164.344 327.072,101.676 244.46,164.344 231.279,146.968 327.072,74.3 
	422.865,146.968 "/>
<polygon style="fill:#FF9A00;" points="422.867,146.97 409.685,164.343 395.706,153.741 327.072,101.677 327.072,74.301 "/>
<g>
</g>
<g>
</g>
<g>
</g>
<g>
</g>
<g>
</g>
<g>
</g>
<g>
</g>
<g>
</g>
<g>
</g>
<g>
</g>
<g>
</g>
<g>
</g>
<g>
</g>
<g>
</g>
<g>
</g>
</svg>
