<?xml version="1.0" encoding="iso-8859-1"?>
<!-- Generator: Adobe Illustrator 19.0.0, SVG Export Plug-In . SVG Version: 6.00 Build 0)  -->
<svg version="1.1" id="Capa_1" xmlns="http://www.w3.org/2000/svg" xmlns:xlink="http://www.w3.org/1999/xlink" x="0px" y="0px"
	 viewBox="0 0 512 512" style="enable-background:new 0 0 512 512;" xml:space="preserve">
<circle style="fill:#E02424;" cx="256" cy="256" r="256"/>
<path style="fill:#990011;" d="M512,256c0-10.419-0.639-20.689-1.848-30.782L373.799,88.865H125.022V411.74l98.176,98.176
	C233.938,511.289,244.886,512,256,512C397.385,512,512,397.385,512,256z"/>
<rect x="125.02" y="88.86" style="fill:#FFFFFF;" width="248.78" height="322.87"/>
<rect x="249.41" y="88.86" style="fill:#FFF5CB;" width="124.39" height="322.88"/>
<rect x="169.03" y="141.71" style="fill:#0088FF;" width="160.75" height="24.1"/>
<rect x="249.41" y="141.71" style="fill:#004EB1;" width="80.38" height="24.1"/>
<rect x="169.03" y="206.07" style="fill:#0088FF;" width="160.75" height="24.1"/>
<rect x="249.41" y="206.07" style="fill:#004EB1;" width="80.38" height="24.1"/>
<rect x="169.03" y="270.43" style="fill:#0088FF;" width="160.75" height="24.1"/>
<rect x="249.41" y="270.43" style="fill:#004EB1;" width="80.38" height="24.11"/>
<rect x="249.41" y="334.8" style="fill:#FEC000;" width="80.38" height="24.1"/>
<polygon style="fill:#00E8F2;" points="353.602,331.5 321.22,348.799 324.877,312.269 420.18,169.921 448.905,189.153 "/>
<polygon style="fill:#00B7BE;" points="448.905,189.153 353.602,331.5 321.22,348.799 434.542,179.537 "/>
<polygon style="fill:#0088FF;" points="353.602,331.5 324.877,312.269 321.22,348.799 "/>
<polygon style="fill:#004EB1;" points="353.602,331.5 321.22,348.799 339.24,321.885 "/>
<g>
</g>
<g>
</g>
<g>
</g>
<g>
</g>
<g>
</g>
<g>
</g>
<g>
</g>
<g>
</g>
<g>
</g>
<g>
</g>
<g>
</g>
<g>
</g>
<g>
</g>
<g>
</g>
<g>
</g>
</svg>
