<?xml version="1.0" encoding="iso-8859-1"?>
<!-- Generator: Adobe Illustrator 19.0.0, SVG Export Plug-In . SVG Version: 6.00 Build 0)  -->
<svg version="1.1" id="Capa_1" xmlns="http://www.w3.org/2000/svg" xmlns:xlink="http://www.w3.org/1999/xlink" x="0px" y="0px"
	 viewBox="0 0 512 512" style="enable-background:new 0 0 512 512;" xml:space="preserve">
<circle style="fill:#415BE9;" cx="256" cy="256" r="256"/>
<path style="fill:#062BE3;" d="M512,256c0-28.35-4.618-55.619-13.126-81.108L448.481,124.5l-384.963,263l111.373,111.373
	C200.381,507.382,227.65,512,256,512C397.385,512,512,397.385,512,256z"/>
<rect x="73.52" y="134.5" style="fill:#F9C41E;" width="364.96" height="243"/>
<rect x="255.95" y="134.5" style="fill:#FE9A35;" width="182.53" height="243"/>
<path style="fill:#FFFFFF;" d="M428.481,144.5v223H83.519v-223H428.481 M448.481,124.5h-20H83.519h-20v20v223v20h20h344.963h20v-20
	v-223v-20H448.481z"/>
<polygon style="fill:#E0E0E0;" points="428.481,124.5 255.952,124.5 255.952,144.5 428.481,144.5 428.481,367.5 255.952,367.5 
	255.952,387.5 428.481,387.5 448.481,387.5 448.481,367.5 448.481,144.5 448.481,124.5 "/>
<rect x="195.02" y="144.5" style="fill:#FFDE1F;" width="121.96" height="223"/>
<rect x="255.95" y="144.5" style="fill:#F9C41E;" width="61.03" height="223"/>
<path style="fill:#FF328D;" d="M133.878,213.587c-19.318,0-34.979,15.66-34.979,34.979c0,28.245,34.979,62.101,34.979,62.101
	s34.979-33.669,34.979-62.101C168.856,229.247,153.196,213.587,133.878,213.587z M133.878,262.922
	c-7.929,0-14.356-6.427-14.356-14.356s6.428-14.356,14.356-14.356s14.356,6.427,14.356,14.356
	C148.234,256.494,141.807,262.922,133.878,262.922z"/>
<path style="fill:#C40B5A;" d="M369.878,166.587c-19.318,0-34.979,15.66-34.979,34.979c0,28.245,34.979,62.101,34.979,62.101
	s34.979-33.669,34.979-62.101C404.856,182.247,389.196,166.587,369.878,166.587z M369.878,215.922
	c-7.929,0-14.356-6.427-14.356-14.356s6.428-14.356,14.356-14.356s14.356,6.427,14.356,14.356
	C384.234,209.494,377.807,215.922,369.878,215.922z"/>
<g>
</g>
<g>
</g>
<g>
</g>
<g>
</g>
<g>
</g>
<g>
</g>
<g>
</g>
<g>
</g>
<g>
</g>
<g>
</g>
<g>
</g>
<g>
</g>
<g>
</g>
<g>
</g>
<g>
</g>
</svg>
