<?xml version="1.0" encoding="iso-8859-1"?>
<!-- Generator: Adobe Illustrator 19.0.0, SVG Export Plug-In . SVG Version: 6.00 Build 0)  -->
<svg version="1.1" id="Capa_1" xmlns="http://www.w3.org/2000/svg" xmlns:xlink="http://www.w3.org/1999/xlink" x="0px" y="0px"
	 viewBox="0 0 512 512" style="enable-background:new 0 0 512 512;" xml:space="preserve">
<circle style="fill:#01E6F0;" cx="256" cy="256" r="256"/>
<path style="fill:#00BCBC;" d="M511.417,273.121l-76.505-76.505l-1.144,15.839l-39.527-39.527l-27.227,57.236L241.596,104.746
	l-82.668,80.259l102.31,102.31L70.749,298.743l28.76,28.76l-39.787,10.593l44.221,44.221l-5.797,2.007l125.667,125.667
	C234.355,511.313,245.097,512,256,512C391.63,512,502.605,406.521,511.417,273.121z"/>
<polygon style="fill:#FFFFFF;" points="301.092,298.743 70.749,298.743 70.749,258.743 287.053,258.743 394.241,172.929 
	419.24,204.154 "/>
<polygon style="fill:#E0E0E0;" points="419.24,204.154 394.241,172.929 287.053,258.743 255.952,258.743 255.952,298.743 
	301.092,298.743 "/>
<polygon style="fill:#854830;" points="315.436,338.096 59.721,338.096 59.721,303.096 303.067,303.096 434.912,196.617 
	456.902,223.846 "/>
<g>
	<polygon style="fill:#5D2307;" points="456.902,223.846 434.912,196.617 303.067,303.096 255.952,303.096 255.952,338.096 
		315.436,338.096 	"/>
	
		<rect x="327.25" y="316.662" transform="matrix(-0.099 -0.9951 0.9951 -0.099 95.1641 744.4905)" style="fill:#5D2307;" width="114.761" height="25"/>
</g>
<rect x="103.39" y="317.083" transform="matrix(-0.988 -0.1546 0.1546 -0.988 175.9865 717.4536)" style="fill:#854830;" width="25.001" height="69.602"/>
<circle style="fill:#FE9A35;" cx="202" cy="146.67" r="57.667"/>
<path style="fill:#FF7C11;" d="M202,89c-0.471,0-0.936,0.024-1.405,0.036v115.262c0.468,0.011,0.934,0.035,1.405,0.035
	c31.848,0,57.667-25.818,57.667-57.667C259.667,114.818,233.848,89,202,89z"/>
<g>
</g>
<g>
</g>
<g>
</g>
<g>
</g>
<g>
</g>
<g>
</g>
<g>
</g>
<g>
</g>
<g>
</g>
<g>
</g>
<g>
</g>
<g>
</g>
<g>
</g>
<g>
</g>
<g>
</g>
</svg>
