<?xml version="1.0" encoding="iso-8859-1"?>
<!-- Generator: Adobe Illustrator 19.0.0, SVG Export Plug-In . SVG Version: 6.00 Build 0)  -->
<svg version="1.1" id="Layer_1" xmlns="http://www.w3.org/2000/svg" xmlns:xlink="http://www.w3.org/1999/xlink" x="0px" y="0px"
	 viewBox="0 0 512 512" style="enable-background:new 0 0 512 512;" xml:space="preserve">
<circle style="fill:#FFEDB5;" cx="256" cy="256" r="256"/>
<path style="fill:#FEE187;" d="M511.735,267.373l-98.859-98.861l-60.962,59.711l-59.711-59.711l-63.81,56.863l-56.863-56.863
	l-86.195,76.521l81.722,83.135l-81.722,9.818l34.226,34.226l-20.435,6.616L231.086,510.79c8.199,0.791,16.508,1.21,24.914,1.21
	C393.573,512,505.784,403.478,511.735,267.373z"/>
<g>
	<rect x="85.333" y="214.057" style="fill:#D35933;" width="341.333" height="30.984"/>
	<rect x="85.333" y="307.01" style="fill:#D35933;" width="341.333" height="30.984"/>
</g>
<polygon style="fill:#B54324;" points="171.529,378.828 99.125,378.828 99.125,168.512 135.327,142.222 171.529,168.512 "/>
<polygon style="fill:#930000;" points="171.529,168.512 135.327,142.222 135.184,142.326 135.184,378.828 171.529,378.828 "/>
<polygon style="fill:#B54324;" points="292.202,378.828 219.798,378.828 219.798,168.512 256,142.222 292.202,168.512 "/>
<polygon style="fill:#930000;" points="292.202,168.512 256,142.222 255.857,142.326 255.857,378.828 292.202,378.828 "/>
<polygon style="fill:#B54324;" points="412.875,378.828 340.471,378.828 340.471,168.512 376.673,142.222 412.875,168.512 "/>
<polygon style="fill:#930000;" points="412.875,168.512 376.673,142.222 376.385,142.431 376.385,378.828 412.875,378.828 "/>
<g>
	<circle style="fill:#E09112;" cx="135.102" cy="230.141" r="7.111"/>
	<circle style="fill:#E09112;" cx="135.102" cy="323.232" r="7.111"/>
	<circle style="fill:#E09112;" cx="256" cy="230.141" r="7.111"/>
	<circle style="fill:#E09112;" cx="256" cy="323.232" r="7.111"/>
	<circle style="fill:#E09112;" cx="376.673" cy="230.141" r="7.111"/>
	<circle style="fill:#E09112;" cx="376.673" cy="323.232" r="7.111"/>
</g>
<g>
	<path style="fill:#FF5419;" d="M142.222,230.141c0-3.903-3.146-7.065-7.039-7.104v14.208
		C139.076,237.206,142.222,234.044,142.222,230.141z"/>
	<path style="fill:#FF5419;" d="M142.222,323.232c0-3.903-3.146-7.065-7.039-7.104v14.208
		C139.076,330.297,142.222,327.135,142.222,323.232z"/>
	<path style="fill:#FF5419;" d="M256,223.03c-0.048,0-0.095,0.014-0.143,0.014v14.193c0.048,0.002,0.095,0.014,0.143,0.014
		c3.927,0,7.111-3.184,7.111-7.111C263.111,226.214,259.927,223.03,256,223.03z"/>
	<path style="fill:#FF5419;" d="M256,316.121c-0.048,0-0.095,0.014-0.143,0.014v14.193c0.048,0.002,0.095,0.014,0.143,0.014
		c3.927,0,7.111-3.184,7.111-7.111C263.111,319.305,259.927,316.121,256,316.121z"/>
	<path style="fill:#FF5419;" d="M376.673,223.03c-0.098,0-0.19,0.026-0.286,0.029v14.164c0.097,0.003,0.188,0.029,0.286,0.029
		c3.927,0,7.111-3.184,7.111-7.111C383.785,226.214,380.6,223.03,376.673,223.03z"/>
	<path style="fill:#FF5419;" d="M376.673,316.121c-0.098,0-0.19,0.026-0.286,0.029v14.164c0.097,0.003,0.188,0.029,0.286,0.029
		c3.927,0,7.111-3.184,7.111-7.111C383.785,319.305,380.6,316.121,376.673,316.121z"/>
</g>
<g>
</g>
<g>
</g>
<g>
</g>
<g>
</g>
<g>
</g>
<g>
</g>
<g>
</g>
<g>
</g>
<g>
</g>
<g>
</g>
<g>
</g>
<g>
</g>
<g>
</g>
<g>
</g>
<g>
</g>
</svg>
