<?xml version="1.0" encoding="iso-8859-1"?>
<!-- Generator: Adobe Illustrator 19.0.0, SVG Export Plug-In . SVG Version: 6.00 Build 0)  -->
<svg version="1.1" id="Layer_1" xmlns="http://www.w3.org/2000/svg" xmlns:xlink="http://www.w3.org/1999/xlink" x="0px" y="0px"
	 viewBox="0 0 512 512" style="enable-background:new 0 0 512 512;" xml:space="preserve">
<circle style="fill:#273B7A;" cx="256" cy="256" r="256"/>
<path style="fill:#121149;" d="M278.242,511.028c116.896-10.062,211.325-98.671,230.271-212.801L324.077,113.79l-94.242,141.328
	l11.657,48.29L256,372.364l-13.36-1.436l-97.535,6.963L278.242,511.028z"/>
<ellipse style="fill:#FFC61B;" cx="256" cy="371.5" rx="113.78" ry="28.444"/>
<path style="fill:#EAA22F;" d="M256,343.057c-0.193,0-0.381,0.003-0.574,0.003v56.882c0.193,0,0.381,0.003,0.574,0.003
	c62.838,0,113.778-12.734,113.778-28.444S318.838,343.057,256,343.057z"/>
<path style="fill:#FEE187;" d="M160.323,181.01c0-52.841,42.836-95.677,95.677-95.677s95.677,42.836,95.677,95.677
	S256,372.364,256,372.364S160.323,233.851,160.323,181.01z"/>
<path style="fill:#FFC61B;" d="M351.677,181.01c0-52.841-42.836-95.677-95.677-95.677c-0.193,0-0.381,0.014-0.574,0.014v286.18
	c0.372,0.545,0.574,0.836,0.574,0.836S351.677,233.851,351.677,181.01z"/>
<circle style="fill:#333131;" cx="256" cy="186.18" r="56.889"/>
<path style="fill:#272525;" d="M256,129.293c-0.193,0-0.383,0.012-0.574,0.014v113.748c0.191,0.002,0.381,0.014,0.574,0.014
	c31.418,0,56.889-25.471,56.889-56.889S287.418,129.293,256,129.293z"/>
<path style="fill:#FFFFFF;" d="M243.317,184.087c-5.839,0-10.59-4.751-10.59-10.59s4.751-10.59,10.59-10.59s10.59,4.751,10.59,10.59
	C253.905,179.336,249.154,184.087,243.317,184.087z M243.317,168.867c-2.553,0-4.632,2.077-4.632,4.632
	c0,2.555,2.077,4.632,4.632,4.632s4.63-2.077,4.63-4.632C247.948,170.944,245.87,168.867,243.317,168.867z"/>
<path style="fill:#D0D1D3;" d="M268.685,209.455c-5.839,0-10.59-4.751-10.59-10.59s4.751-10.59,10.59-10.59s10.59,4.751,10.59,10.59
	C279.273,204.703,274.522,209.455,268.685,209.455z M268.685,194.234c-2.553,0-4.63,2.077-4.63,4.632s2.077,4.632,4.63,4.632
	s4.632-2.077,4.632-4.632S271.238,194.234,268.685,194.234z"/>
<path style="fill:#FFFFFF;" d="M238.935,206.226c-0.762,0-1.526-0.291-2.107-0.872c-1.164-1.164-1.164-3.05,0-4.213l34.132-34.132
	c1.162-1.164,3.05-1.164,4.212,0c1.164,1.164,1.164,3.05,0,4.213l-34.132,34.132C240.459,205.936,239.697,206.226,238.935,206.226z"
	/>
<path style="fill:#D0D1D3;" d="M275.172,167.01c-1.162-1.164-3.05-1.164-4.211,0l-15.534,15.534v8.425l19.746-19.746
	C276.335,170.06,276.335,168.172,275.172,167.01z"/>
<g>
</g>
<g>
</g>
<g>
</g>
<g>
</g>
<g>
</g>
<g>
</g>
<g>
</g>
<g>
</g>
<g>
</g>
<g>
</g>
<g>
</g>
<g>
</g>
<g>
</g>
<g>
</g>
<g>
</g>
</svg>
