<?xml version="1.0" encoding="iso-8859-1"?>
<!-- Generator: Adobe Illustrator 19.0.0, SVG Export Plug-In . SVG Version: 6.00 Build 0)  -->
<svg version="1.1" id="Layer_1" xmlns="http://www.w3.org/2000/svg" xmlns:xlink="http://www.w3.org/1999/xlink" x="0px" y="0px"
	 viewBox="0 0 512 512" style="enable-background:new 0 0 512 512;" xml:space="preserve">
<circle style="fill:#FFC61B;" cx="256" cy="256" r="256"/>
<path style="fill:#EAA22F;" d="M511.638,269.617l-79.796-79.796l-93.834-8.437l-8.006-8.006l-46.795,3.079l-24.476-2.201
	l3.575,3.575l-182.15,11.988L238.49,348.153l-163.954,6.499l28.586,31.091l-14.596,3.824l117.551,117.551
	c16.148,3.193,32.837,4.88,49.923,4.88C392.816,512,504.56,404.67,511.638,269.617z"/>
<g>
	<rect x="88.523" y="351.642" style="fill:#02B2B2;" width="14.993" height="37.926"/>
	<rect x="396.412" y="351.642" style="fill:#02B2B2;" width="14.993" height="37.926"/>
</g>
<path style="fill:#FFFFFF;" d="M411.029,302.976H262.034V156.972c0-3.332-2.701-6.034-6.034-6.034s-6.034,2.701-6.034,6.034v146.004
	H151.29c-2.501,0-4.53,2.029-4.53,4.53V347.6c0,2.501,2.029,4.53,4.53,4.53h259.739c2.501,0,4.53-2.029,4.53-4.53v-40.093
	C415.56,305.004,413.532,302.976,411.029,302.976z"/>
<path style="fill:#D0D1D3;" d="M411.029,302.976H262.034V156.972c0-3.332-2.701-6.034-6.034-6.034c-0.197,0-0.383,0.04-0.574,0.059
	V352.13h155.603c2.501,0,4.53-2.029,4.53-4.53v-40.093C415.56,305.004,413.532,302.976,411.029,302.976z"/>
<path style="fill:#FFEDB5;" d="M175.83,340.864H88.904c-2.501,0-4.53-2.029-4.53-4.53v-40.093c0-2.501,2.029-4.53,4.53-4.53h86.926
	c2.501,0,4.53,2.029,4.53,4.53v40.093C180.36,338.835,178.331,340.864,175.83,340.864z"/>
<path style="fill:#386895;" d="M422.069,356.083H77.864c-2.539,0-4.598-2.058-4.598-4.598v-26.014c0-2.539,2.058-4.598,4.598-4.598
	h344.205c2.539,0,4.598,2.058,4.598,4.598v26.014C426.667,354.023,424.608,356.083,422.069,356.083z"/>
<path style="fill:#273B7A;" d="M422.069,320.872H255.426v35.209h166.643c2.539,0,4.598-2.058,4.598-4.598V325.47
	C426.667,322.931,424.608,320.872,422.069,320.872z"/>
<path style="fill:#FF6262;" d="M256,56.889c-83.658,0-154.138,56.225-175.844,132.932h351.687
	C410.138,113.114,339.658,56.889,256,56.889z"/>
<g>
	<path style="fill:#FF314F;" d="M256,56.889c-0.193,0-0.381,0.012-0.574,0.012v132.92h176.418
		C410.138,113.114,339.658,56.889,256,56.889z"/>
	<path style="fill:#FF314F;" d="M256,56.889c-27.065,0-49.867,56.225-56.889,132.932h113.778
		C305.866,113.114,283.065,56.889,256,56.889z"/>
</g>
<path style="fill:#A30F44;" d="M256,56.889c-0.193,0-0.383,0.031-0.574,0.036v132.896h57.463
	C305.866,113.114,283.065,56.889,256,56.889z"/>
<g>
</g>
<g>
</g>
<g>
</g>
<g>
</g>
<g>
</g>
<g>
</g>
<g>
</g>
<g>
</g>
<g>
</g>
<g>
</g>
<g>
</g>
<g>
</g>
<g>
</g>
<g>
</g>
<g>
</g>
</svg>
