<?xml version="1.0" encoding="iso-8859-1"?>
<!-- Generator: Adobe Illustrator 19.0.0, SVG Export Plug-In . SVG Version: 6.00 Build 0)  -->
<svg version="1.1" id="Layer_1" xmlns="http://www.w3.org/2000/svg" xmlns:xlink="http://www.w3.org/1999/xlink" x="0px" y="0px"
	 viewBox="0 0 512 512" style="enable-background:new 0 0 512 512;" xml:space="preserve">
<circle style="fill:#273B7A;" cx="256" cy="256" r="256"/>
<path style="fill:#121149;" d="M277.001,511.138c115.316-9.364,209.008-95.146,230.391-206.638l-87.054-84.385l-24.559,64.472
	l-6.034-6.034l-212.754,19.685l-15.119-15.119l-28.257,19.132l-51.786,3.658l16.401,20.301l-3.672,2.486L277.001,511.138z"/>
<g>
	<rect x="94.56" y="300.856" style="fill:#FFFFFF;" width="14.993" height="27.841"/>
	<rect x="402.446" y="300.856" style="fill:#FFFFFF;" width="14.993" height="27.841"/>
</g>
<path style="fill:#FEE187;" d="M417.063,267.855H157.324c-2.501,0-4.53-2.029-4.53-4.53v-40.093c0-2.501,2.029-4.53,4.53-4.53
	h259.739c2.501,0,4.53,2.029,4.53,4.53v40.093C421.593,265.826,419.564,267.855,417.063,267.855z"/>
<path style="fill:#FFC61B;" d="M417.063,218.702H255.424v49.154h161.639c2.501,0,4.53-2.029,4.53-4.53v-40.093
	C421.593,220.731,419.564,218.702,417.063,218.702z"/>
<path style="fill:#FFEDB5;" d="M181.863,256.591H94.937c-2.501,0-4.53-2.029-4.53-4.53v-40.093c0-2.501,2.029-4.53,4.53-4.53h86.926
	c2.501,0,4.53,2.029,4.53,4.53v40.093C186.394,254.562,184.365,256.591,181.863,256.591z"/>
<path style="fill:#E09112;" d="M426.186,307.279H85.814c-3.598,0-6.515-2.917-6.515-6.515v-57.651c0-3.598,2.917-6.515,6.515-6.515
	h340.371c3.598,0,6.515,2.917,6.515,6.515v57.651C432.7,304.362,429.783,307.279,426.186,307.279z"/>
<path style="fill:#FF5419;" d="M426.186,236.599H255.424v70.68h170.761c3.598,0,6.515-2.917,6.515-6.515v-57.651
	C432.7,239.516,429.783,236.599,426.186,236.599z"/>
<g>
</g>
<g>
</g>
<g>
</g>
<g>
</g>
<g>
</g>
<g>
</g>
<g>
</g>
<g>
</g>
<g>
</g>
<g>
</g>
<g>
</g>
<g>
</g>
<g>
</g>
<g>
</g>
<g>
</g>
</svg>
