<?xml version="1.0" encoding="iso-8859-1"?>
<!-- Generator: Adobe Illustrator 19.0.0, SVG Export Plug-In . SVG Version: 6.00 Build 0)  -->
<svg version="1.1" id="Layer_1" xmlns="http://www.w3.org/2000/svg" xmlns:xlink="http://www.w3.org/1999/xlink" x="0px" y="0px"
	 viewBox="0 0 512 512" style="enable-background:new 0 0 512 512;" xml:space="preserve">
<circle style="fill:#273B7A;" cx="256" cy="256" r="256"/>
<path style="fill:#121149;" d="M510.493,283.8L375.739,143.084l-32.018,16.894l-48.459-51.093l-7.29,4.973l-28.524-28.525h-82.854
	v90.217l134.446,3.448l-117.243,71.685l51.833,51.833l-97.445,135.356l71.561,71.561C231.589,511.112,243.69,512,256,512
	C387.991,512,496.635,412.107,510.493,283.8z"/>
<rect x="318.854" y="143.084" style="fill:#38C6D9;" width="56.889" height="294.788"/>
<path style="fill:#71E2EF;" d="M290.406,106.882h-24.997V85.333c0-1.903-1.545-3.448-3.448-3.448h-85.333
	c-1.903,0-3.448,1.545-3.448,3.448v56.889c0,1.903,1.545,3.448,3.448,3.448s3.448-1.545,3.448-3.448V88.781h78.438v18.101h-24.997
	c-3.808,0-6.896,3.088-6.896,6.896c0,3.808,3.088,6.896,6.896,6.896h56.889c3.808,0,6.896-3.088,6.896-6.896
	C297.301,109.97,294.214,106.882,290.406,106.882z"/>
<rect x="148.183" y="143.084" style="fill:#FFFFFF;" width="170.667" height="294.788"/>
<rect x="230.934" y="143.084" style="fill:#D0D1D3;" width="87.919" height="294.788"/>
<path style="fill:#38C6D9;" d="M290.406,316.337h-28.444c-1.903,0-3.448-1.545-3.448-3.448s1.545-3.448,3.448-3.448h28.444
	c1.903,0,3.448,1.545,3.448,3.448S292.311,316.337,290.406,316.337z"/>
<g>
</g>
<g>
</g>
<g>
</g>
<g>
</g>
<g>
</g>
<g>
</g>
<g>
</g>
<g>
</g>
<g>
</g>
<g>
</g>
<g>
</g>
<g>
</g>
<g>
</g>
<g>
</g>
<g>
</g>
</svg>
