<?xml version="1.0" encoding="iso-8859-1"?>
<!-- Generator: Adobe Illustrator 19.0.0, SVG Export Plug-In . SVG Version: 6.00 Build 0)  -->
<svg version="1.1" id="Layer_1" xmlns="http://www.w3.org/2000/svg" xmlns:xlink="http://www.w3.org/1999/xlink" x="0px" y="0px"
	 viewBox="0 0 512 512" style="enable-background:new 0 0 512 512;" xml:space="preserve">
<circle style="fill:#273B7A;" cx="256" cy="256" r="256"/>
<path style="fill:#121149;" d="M99.125,404.123l101.95,101.95C218.771,509.943,237.144,512,256,512c141.384,0,256-114.616,256-256
	c0-27.396-4.32-53.779-12.288-78.526l-86.837-86.837L99.125,404.123z"/>
<rect x="164.564" y="142.895" style="fill:#FFEDB5;" width="182.872" height="208.989"/>
<g>
	<rect x="257.155" y="142.895" style="fill:#FEE187;" width="90.281" height="208.989"/>
	<polygon style="fill:#FEE187;" points="165.359,351.875 99.125,404.123 99.125,90.638 165.359,142.886 	"/>
</g>
<polygon style="fill:#FFC61B;" points="346.641,351.875 412.875,404.123 412.875,90.638 346.641,142.886 "/>
<rect x="203.748" y="169.012" style="fill:#5F8CB2;" width="104.503" height="78.369"/>
<g>
	<rect x="257.155" y="169.012" style="fill:#366695;" width="51.098" height="78.369"/>
	<rect x="199.008" y="242.64" style="fill:#366695;" width="114.002" height="12.666"/>
</g>
<rect x="257.155" y="242.64" style="fill:#273B7A;" width="55.848" height="12.666"/>
<g>
</g>
<g>
</g>
<g>
</g>
<g>
</g>
<g>
</g>
<g>
</g>
<g>
</g>
<g>
</g>
<g>
</g>
<g>
</g>
<g>
</g>
<g>
</g>
<g>
</g>
<g>
</g>
<g>
</g>
</svg>
