<?xml version="1.0" encoding="iso-8859-1"?>
<!-- Generator: Adobe Illustrator 19.0.0, SVG Export Plug-In . SVG Version: 6.00 Build 0)  -->
<svg version="1.1" id="Layer_1" xmlns="http://www.w3.org/2000/svg" xmlns:xlink="http://www.w3.org/1999/xlink" x="0px" y="0px"
	 viewBox="0 0 512 512" style="enable-background:new 0 0 512 512;" xml:space="preserve">
<circle style="fill:#273B7A;" cx="256" cy="256" r="256"/>
<path style="fill:#121149;" d="M512,256L384,128L128,384l128,128l0,0C397.384,512,512,397.384,512,256z"/>
<g>
	<rect x="128" y="128" style="fill:#71E2EF;" width="95.246" height="95.246"/>
	<polygon style="fill:#71E2EF;" points="310.498,344.919 315.28,337.748 384,383.56 384,231.865 317.199,231.865 317.199,256 
		308.579,256 308.579,199.111 317.199,199.111 317.199,223.246 384,223.246 384,128 231.865,128 231.865,231.865 128,231.865 
		128,308.579 223.246,308.579 223.246,284.444 231.865,284.444 231.865,341.333 223.246,341.333 223.246,317.199 128,317.199 
		128,384 369.119,384 	"/>
</g>
<polygon style="fill:#38C6D9;" points="384,223.246 384,128 257.15,128 257.15,384 369.119,384 310.498,344.919 315.28,337.748 
	384,383.56 384,231.865 317.199,231.865 317.199,256 308.579,256 308.579,199.111 317.199,199.111 317.199,223.246 "/>
<g>
</g>
<g>
</g>
<g>
</g>
<g>
</g>
<g>
</g>
<g>
</g>
<g>
</g>
<g>
</g>
<g>
</g>
<g>
</g>
<g>
</g>
<g>
</g>
<g>
</g>
<g>
</g>
<g>
</g>
</svg>
