<?xml version="1.0" encoding="iso-8859-1"?>
<!-- Generator: Adobe Illustrator 19.0.0, SVG Export Plug-In . SVG Version: 6.00 Build 0)  -->
<svg version="1.1" id="Layer_1" xmlns="http://www.w3.org/2000/svg" xmlns:xlink="http://www.w3.org/1999/xlink" x="0px" y="0px"
	 viewBox="0 0 512 512" style="enable-background:new 0 0 512 512;" xml:space="preserve">
<circle style="fill:#273B7A;" cx="256" cy="256" r="256"/>
<g>
	<polygon style="fill:#121149;" points="90.505,206.093 124.221,239.811 131.305,172.994 	"/>
	<path style="fill:#121149;" d="M511.886,263.387l-90.391-90.393L113.778,398.222L225.77,510.214
		C235.685,511.381,245.77,512,256,512C394.914,512,507.976,401.355,511.886,263.387z"/>
</g>
<g>
	<polygon style="fill:#FFC61B;" points="398.222,398.222 113.778,398.222 113.778,170.667 256,113.778 398.222,170.667 	"/>
	<polygon style="fill:#FFC61B;" points="398.222,398.222 113.778,398.222 113.778,170.667 256,113.778 398.222,170.667 	"/>
</g>
<polygon style="fill:#D48B07;" points="398.222,170.667 256.288,113.893 256.288,398.222 398.222,398.222 "/>
<polygon style="fill:#E03A00;" points="421.495,172.994 256,106.796 90.505,172.994 90.505,206.093 256,139.895 421.495,206.093 "/>
<path id="SVGCleanerId_0" style="fill:#263A7A;" d="M296.512,295.003h-13.791v-51.286c0-14.734-11.986-26.721-26.721-26.721
	s-26.721,11.986-26.721,26.721v51.286h-13.791v-51.286c0-22.338,18.173-40.512,40.512-40.512s40.512,18.173,40.512,40.512V295.003z"
	/>
<g>
	<path id="SVGCleanerId_0_1_" style="fill:#263A7A;" d="M296.512,295.003h-13.791v-51.286c0-14.734-11.986-26.721-26.721-26.721
		s-26.721,11.986-26.721,26.721v51.286h-13.791v-51.286c0-22.338,18.173-40.512,40.512-40.512s40.512,18.173,40.512,40.512V295.003z
		"/>
</g>
<path id="SVGCleanerId_1" style="fill:#FF5419;" d="M293.352,369.778H218.65c-10.79,0-19.539-8.747-19.539-19.537v-65.796h113.778
	v65.796C312.889,361.031,304.142,369.778,293.352,369.778z"/>
<g>
	<path id="SVGCleanerId_1_1_" style="fill:#FF5419;" d="M293.352,369.778H218.65c-10.79,0-19.539-8.747-19.539-19.537v-65.796
		h113.778v65.796C312.889,361.031,304.142,369.778,293.352,369.778z"/>
</g>
<path id="SVGCleanerId_2" style="fill:#263A7A;" d="M266.343,323.017c0-5.713-4.63-10.343-10.343-10.343
	c-5.713,0-10.343,4.63-10.343,10.343c0,4.172,2.476,7.759,6.034,9.394v8.276c0,2.381,1.929,4.31,4.31,4.31s4.31-1.929,4.31-4.31
	v-8.276C263.868,330.776,266.343,327.189,266.343,323.017z"/>
<path style="fill:#D83307;" d="M256.288,284.444v85.333h37.064c10.79,0,19.537-8.747,19.537-19.537v-65.796H256.288z"/>
<polygon style="fill:#E03A00;" points="421.495,172.994 256,106.796 90.505,172.994 90.505,206.093 256,139.895 421.495,206.093 "/>
<polygon style="fill:#940030;" points="421.495,172.994 256.288,106.911 256.288,140.01 421.495,206.093 "/>
<g>
	<path id="SVGCleanerId_2_1_" style="fill:#263A7A;" d="M266.343,323.017c0-5.713-4.63-10.343-10.343-10.343
		c-5.713,0-10.343,4.63-10.343,10.343c0,4.172,2.476,7.759,6.034,9.394v8.276c0,2.381,1.929,4.31,4.31,4.31s4.31-1.929,4.31-4.31
		v-8.276C263.868,330.776,266.343,327.189,266.343,323.017z"/>
</g>
<path style="fill:#121149;" d="M256.288,312.687v32.28c2.245-0.152,4.022-1.998,4.022-4.28v-8.276
	c3.558-1.636,6.034-5.222,6.034-9.394C266.343,317.402,261.866,312.842,256.288,312.687z"/>
<g>
</g>
<g>
</g>
<g>
</g>
<g>
</g>
<g>
</g>
<g>
</g>
<g>
</g>
<g>
</g>
<g>
</g>
<g>
</g>
<g>
</g>
<g>
</g>
<g>
</g>
<g>
</g>
<g>
</g>
</svg>
