<?xml version="1.0" encoding="iso-8859-1"?>
<!-- Generator: Adobe Illustrator 19.0.0, SVG Export Plug-In . SVG Version: 6.00 Build 0)  -->
<svg version="1.1" id="Layer_1" xmlns="http://www.w3.org/2000/svg" xmlns:xlink="http://www.w3.org/1999/xlink" x="0px" y="0px"
	 viewBox="0 0 512 512" style="enable-background:new 0 0 512 512;" xml:space="preserve">
<circle style="fill:#FEE187;" cx="256" cy="256" r="256"/>
<g>
	<path style="fill:#FFC91B;" d="M511.886,263.387l-90.393-90.393L113.776,398.222l111.992,111.992
		c9.916,1.167,20.001,1.786,30.23,1.786C394.914,512,507.976,401.355,511.886,263.387z"/>
	<polygon style="fill:#FFC91B;" points="90.503,206.093 124.221,239.811 131.305,172.994 	"/>
</g>
<polygon style="fill:#366695;" points="398.22,398.222 113.776,398.222 113.776,170.667 255.998,113.778 398.22,170.667 "/>
<polygon style="fill:#273B7A;" points="398.22,170.667 255.998,113.778 254.564,114.352 254.564,398.222 398.22,398.222 "/>
<polygon style="fill:#263A7A;" points="421.493,172.994 255.998,106.796 90.503,172.994 90.503,206.093 255.998,139.895 
	421.493,206.093 "/>
<polygon style="fill:#121149;" points="255.998,106.796 254.564,107.37 254.564,140.469 255.998,139.895 421.493,206.093 
	421.493,172.994 "/>
<polygon style="fill:#FFEDB5;" points="347.515,313.463 336.034,313.463 354.781,336.45 157.218,336.45 175.966,313.463 
	164.483,313.463 141.519,341.621 164.485,369.781 175.966,369.781 157.22,346.793 354.78,346.793 336.034,369.78 347.515,369.78 
	370.479,341.621 "/>
<polygon style="fill:#FEE187;" points="347.515,313.463 336.034,313.463 354.781,336.45 254.564,336.45 254.564,346.793 
	354.78,346.793 336.034,369.78 347.515,369.78 370.479,341.621 "/>
<polygon style="fill:#FFEDB5;" points="261.172,298.732 261.172,184.146 284.16,202.892 284.16,191.41 256,168.446 227.84,191.41 
	227.84,202.893 250.828,184.146 250.828,298.73 "/>
<polygon style="fill:#FEE187;" points="284.16,191.41 256,168.446 254.564,169.617 254.564,298.732 261.172,298.732 
	261.172,184.146 284.16,202.892 "/>
<g>
</g>
<g>
</g>
<g>
</g>
<g>
</g>
<g>
</g>
<g>
</g>
<g>
</g>
<g>
</g>
<g>
</g>
<g>
</g>
<g>
</g>
<g>
</g>
<g>
</g>
<g>
</g>
<g>
</g>
</svg>
