<?xml version="1.0" encoding="iso-8859-1"?>
<!-- Generator: Adobe Illustrator 19.0.0, SVG Export Plug-In . SVG Version: 6.00 Build 0)  -->
<svg version="1.1" id="Layer_1" xmlns="http://www.w3.org/2000/svg" xmlns:xlink="http://www.w3.org/1999/xlink" x="0px" y="0px"
	 viewBox="0 0 512 512" style="enable-background:new 0 0 512 512;" xml:space="preserve">
<circle style="fill:#366695;" cx="256" cy="256" r="256"/>
<path style="fill:#273B7A;" d="M512,256l-85.333-85.333l-19.063,76.254l-75.752-76.254l-19.466,75.852l-75.348-75.852
	l-19.466,75.852l-75.348-75.852L85.333,398.222l112.53,107.144C216.542,509.704,236.003,512,256,512
	C397.384,512,512,397.384,512,256z"/>
<g>
	<rect x="128" y="227.556" style="fill:#71E2EF;" width="256" height="28.444"/>
	<rect x="128" y="312.889" style="fill:#71E2EF;" width="256" height="28.444"/>
</g>
<g>
	<rect x="254.569" y="227.556" style="fill:#38C6D9;" width="129.431" height="28.444"/>
	<rect x="254.569" y="312.889" style="fill:#38C6D9;" width="129.431" height="28.444"/>
</g>
<g>
	<polygon style="fill:#FFFFFF;" points="142.222,398.222 85.333,398.222 85.333,170.667 113.778,142.222 142.222,170.667 	"/>
	<polygon style="fill:#FFFFFF;" points="237.037,398.222 180.148,398.222 180.148,170.667 208.593,142.222 237.037,170.667 	"/>
</g>
<g>
	<polygon style="fill:#DDDDDD;" points="331.852,398.222 274.963,398.222 274.963,170.667 303.407,142.222 331.852,170.667 	"/>
	<polygon style="fill:#DDDDDD;" points="426.667,398.222 369.778,398.222 369.778,170.667 398.222,142.222 426.667,170.667 	"/>
</g>
<g>
	<circle style="fill:#FF7F4F;" cx="113.778" cy="213.333" r="8.62"/>
	<circle style="fill:#FF7F4F;" cx="113.778" cy="321.508" r="8.62"/>
	<circle style="fill:#FF7F4F;" cx="208.593" cy="213.333" r="8.62"/>
	<circle style="fill:#FF7F4F;" cx="208.593" cy="321.508" r="8.62"/>
	<circle style="fill:#FF7F4F;" cx="303.407" cy="213.333" r="8.62"/>
	<circle style="fill:#FF7F4F;" cx="303.407" cy="321.508" r="8.62"/>
	<circle style="fill:#FF7F4F;" cx="398.222" cy="213.333" r="8.62"/>
	<circle style="fill:#FF7F4F;" cx="398.222" cy="321.508" r="8.62"/>
</g>
<g>
</g>
<g>
</g>
<g>
</g>
<g>
</g>
<g>
</g>
<g>
</g>
<g>
</g>
<g>
</g>
<g>
</g>
<g>
</g>
<g>
</g>
<g>
</g>
<g>
</g>
<g>
</g>
<g>
</g>
</svg>
