<?xml version="1.0" encoding="iso-8859-1"?>
<!-- Generator: Adobe Illustrator 19.0.0, SVG Export Plug-In . SVG Version: 6.00 Build 0)  -->
<svg version="1.1" id="Layer_1" xmlns="http://www.w3.org/2000/svg" xmlns:xlink="http://www.w3.org/1999/xlink" x="0px" y="0px"
	 viewBox="0 0 512 512" style="enable-background:new 0 0 512 512;" xml:space="preserve">
<circle style="fill:#366796;" cx="256" cy="256" r="256"/>
<g>
	<path style="fill:#273B7A;" d="M430.847,225.059L171.529,364.606l-8.459,40.427l106.603,106.603
		c119.501-6.289,217.279-94.529,238.185-209.567L430.847,225.059z"/>
	<polygon style="fill:#273B7A;" points="142.222,364.709 205.667,428.154 205.667,350.815 	"/>
	<polygon style="fill:#273B7A;" points="81.125,256 184.006,358.881 147.97,252.552 	"/>
	<polygon style="fill:#273B7A;" points="265.481,157.863 350.608,242.99 141.648,235.887 144.522,116.938 161.616,91.655 
		188.768,88.207 214.052,103.722 223.246,142.222 	"/>
</g>
<path style="fill:#FFC61B;" d="M148.256,227.556h-12.067V126.674c0-25.578,20.808-46.387,46.385-46.387s46.387,20.809,46.387,46.387
	v16.536h-12.067v-16.536c0-18.925-15.396-34.32-34.32-34.32c-18.922,0-34.318,15.396-34.318,34.32V227.556z"/>
<g>
	<path style="fill:#71E2EF;" d="M168.512,407.704L168.512,407.704c-3.808,0-6.896-3.088-6.896-6.896V357.71
		c0-3.808,3.088-6.896,6.896-6.896l0,0c3.808,0,6.896,3.087,6.896,6.896v43.098C175.407,404.616,172.32,407.704,168.512,407.704z"/>
	<path style="fill:#71E2EF;" d="M343.488,407.704L343.488,407.704c-3.808,0-6.896-3.088-6.896-6.896V357.71
		c0-3.808,3.088-6.896,6.896-6.896l0,0c3.808,0,6.896,3.087,6.896,6.896v43.098C350.384,404.616,347.296,407.704,343.488,407.704z"
		/>
</g>
<path style="fill:#A2E9ED;" d="M179.528,379.259h152.945c22.531,0,42.793-13.717,51.16-34.637l43.034-107.586H85.333l43.034,107.586
	C136.735,365.542,156.996,379.259,179.528,379.259z"/>
<g>
	<path style="fill:#71E2EF;" d="M255.426,237.037v142.222h77.047c22.531,0,42.793-13.717,51.16-34.637l43.034-107.586H255.426z"/>
	<path style="fill:#71E2EF;" d="M86.769,258.586h338.46c4.125,0,7.47-3.344,7.47-7.47v-21.261c0-4.125-3.344-7.47-7.47-7.47H86.769
		c-4.125-0.002-7.47,3.343-7.47,7.468v21.261C79.3,255.241,82.644,258.586,86.769,258.586z"/>
</g>
<path style="fill:#38C6D9;" d="M425.229,222.384H255.424v36.202h169.805c4.125,0,7.47-3.344,7.47-7.47v-21.261
	C432.7,225.728,429.356,222.384,425.229,222.384z"/>
<rect x="181.01" y="137.171" style="fill:#FFC61B;" width="84.471" height="20.687"/>
<g>
</g>
<g>
</g>
<g>
</g>
<g>
</g>
<g>
</g>
<g>
</g>
<g>
</g>
<g>
</g>
<g>
</g>
<g>
</g>
<g>
</g>
<g>
</g>
<g>
</g>
<g>
</g>
<g>
</g>
</svg>
