<?xml version="1.0" encoding="iso-8859-1"?>
<!-- Generator: Adobe Illustrator 19.0.0, SVG Export Plug-In . SVG Version: 6.00 Build 0)  -->
<svg version="1.1" id="Capa_1" xmlns="http://www.w3.org/2000/svg" xmlns:xlink="http://www.w3.org/1999/xlink" x="0px" y="0px"
	 viewBox="0 0 512 512" style="enable-background:new 0 0 512 512;" xml:space="preserve">
<circle style="fill:#B9EAFF;" cx="256" cy="256" r="256"/>
<path style="fill:#35CCFF;" d="M512,256c0-8.393-0.417-16.687-1.206-24.873l-91.461-91.461l-1.45,1.05l-27.05-27.05l-64.026,38.807
	L288,113.667l-57.212,45.621l-45.621-45.621l-92.5,66l295.571,295.571C462.411,430.402,512,348.995,512,256z"/>
<path style="fill:#8CC63F;" d="M1.04,279C12.672,409.606,122.369,512,256,512s243.328-102.394,254.96-233H1.04z"/>
<path style="fill:#39B54A;" d="M256,279v233c133.631,0,243.328-102.394,254.96-233H256z"/>
<g>
	<polygon style="fill:#FF6838;" points="185.167,361.667 121.167,361.667 121.167,113.667 153.167,92.282 185.167,113.667 	"/>
	<polygon style="fill:#FF6838;" points="288,361.667 224,361.667 224,113.667 256,92.282 288,113.667 	"/>
</g>
<g>
	<polygon style="fill:#AE4E32;" points="288,113.667 256,92.282 256,361.667 288,361.667 	"/>
	<polygon style="fill:#AE4E32;" points="390.833,361.667 326.833,361.667 326.833,113.667 358.833,92.282 390.833,113.667 	"/>
</g>
<rect x="92.67" y="139.67" style="fill:#FF9451;" width="326.67" height="40"/>
<rect x="256" y="139.67" style="fill:#F7674F;" width="163.33" height="40"/>
<rect x="92.67" y="263" style="fill:#FF9451;" width="326.67" height="40"/>
<rect x="256" y="263" style="fill:#F7674F;" width="163.33" height="40"/>
<g>
</g>
<g>
</g>
<g>
</g>
<g>
</g>
<g>
</g>
<g>
</g>
<g>
</g>
<g>
</g>
<g>
</g>
<g>
</g>
<g>
</g>
<g>
</g>
<g>
</g>
<g>
</g>
<g>
</g>
</svg>
