<?xml version="1.0" encoding="iso-8859-1"?>
<!-- Generator: Adobe Illustrator 19.0.0, SVG Export Plug-In . SVG Version: 6.00 Build 0)  -->
<svg version="1.1" id="Capa_1" xmlns="http://www.w3.org/2000/svg" xmlns:xlink="http://www.w3.org/1999/xlink" x="0px" y="0px"
	 viewBox="0 0 512 512" style="enable-background:new 0 0 512 512;" xml:space="preserve">
<circle style="fill:#405BE9;" cx="256" cy="256" r="256"/>
<path style="fill:#052AE3;" d="M512,256c0-16.523-1.584-32.673-4.575-48.324L367.772,68.023h-84.604l-6.825-7.078
	c-4.854-4.801-12.159-7.86-20.343-7.86c-11.714,0-21.641,6.262-25.138,14.937h-86.634v48.864l17.744,14.534l7.446,117.373h-7.001
	c-8.21,0-14.927,6.717-14.927,14.927v0.9c0,4.031,1.625,7.694,4.248,10.383l21.163,20.941v12.839c0,12.819,5.185,24.48,13.56,33
	l20.662,20.636l-3.031,66.11h-16.743c-4.125,0-7.5,3.375-7.5,7.5v7.051c0,2.304,1.053,4.372,2.702,5.75l63.513,62.959
	c3.298,0.126,6.608,0.21,9.937,0.21C397.385,512,512,397.385,512,256z"/>
<polygon style="fill:#FFF5CA;" points="304.478,353.719 207.522,353.719 204.047,429.505 307.953,429.505 "/>
<polygon style="fill:#FFEE93;" points="307.95,429.51 256,429.51 256,353.72 304.48,353.72 304.5,354.23 307.91,428.53 "/>
<path style="fill:#FFFFFF;" d="M291.932,355.951h-71.865c-25.942,0-47.167-21.225-47.167-47.167v-33.241h166.198v33.241
	C339.099,334.726,317.874,355.951,291.932,355.951z"/>
<path style="fill:#FFF5CA;" d="M339.1,275.54v33.24c0,21.6-14.71,39.92-34.6,45.45c-4,1.12-8.22,1.72-12.57,1.72H256v-80.41H339.1z"
	/>
<polygon style="fill:#FFFFFF;" points="160.946,115.238 169.512,250.265 342.488,250.265 351.054,115.238 "/>
<polygon style="fill:#FFF5CA;" points="351.05,115.24 350.95,116.89 342.58,248.79 342.49,250.26 256,250.26 256,115.24 "/>
<path style="fill:#00E8F2;" d="M256,53.085c-12.4,0-22.808,7.013-25.694,16.483h51.387C278.808,60.099,268.4,53.085,256,53.085z"/>
<path style="fill:#00B8C0;" d="M281.69,69.57H256V53.09c11.71,0,21.65,6.25,25.14,14.93C281.35,68.53,281.53,69.04,281.69,69.57z"/>
<rect x="144.23" y="68.02" style="fill:#FFAA20;" width="223.54" height="48.863"/>
<rect x="256" y="68.02" style="fill:#FF8A00;" width="111.77" height="48.87"/>
<path style="fill:#00E8F2;" d="M349.583,279.548H162.417c-8.21,0-14.927-6.717-14.927-14.927v-0.9
	c0-8.21,6.717-14.927,14.927-14.927h187.165c8.21,0,14.927,6.717,14.927,14.927v0.9C364.51,272.831,357.792,279.548,349.583,279.548
	z"/>
<path style="fill:#00B8C0;" d="M364.51,263.72v0.9c0,8.21-6.72,14.93-14.93,14.93H256v-30.76h93.58
	C357.79,248.79,364.51,255.51,364.51,263.72z"/>
<path style="fill:#FFAA20;" d="M324.651,450.581H187.349c-4.125,0-7.5-3.375-7.5-7.5v-7.051c0-4.125,3.375-7.5,7.5-7.5h137.303
	c4.125,0,7.5,3.375,7.5,7.5v7.051C332.151,447.206,328.776,450.581,324.651,450.581z"/>
<path style="fill:#FF8A00;" d="M332.15,436.03v7.05c0,4.13-3.37,7.5-7.5,7.5H256v-22.05h68.65
	C328.78,428.53,332.15,431.91,332.15,436.03z"/>
<g>
</g>
<g>
</g>
<g>
</g>
<g>
</g>
<g>
</g>
<g>
</g>
<g>
</g>
<g>
</g>
<g>
</g>
<g>
</g>
<g>
</g>
<g>
</g>
<g>
</g>
<g>
</g>
<g>
</g>
</svg>
