<?xml version="1.0" encoding="iso-8859-1"?>
<!-- Generator: Adobe Illustrator 19.0.0, SVG Export Plug-In . SVG Version: 6.00 Build 0)  -->
<svg version="1.1" id="Capa_1" xmlns="http://www.w3.org/2000/svg" xmlns:xlink="http://www.w3.org/1999/xlink" x="0px" y="0px"
	 viewBox="0 0 512 512" style="enable-background:new 0 0 512 512;" xml:space="preserve">
<circle style="fill:#00E8F2;" cx="256" cy="256" r="256"/>
<path style="fill:#00B8C0;" d="M512,256c0-9.402-0.522-18.681-1.51-27.82L383.948,101.637C376.55,92.697,365.37,87,352.86,87H159.14
	c-22.275,0-40.333,18.058-40.333,40.333v100.404c-7.677,4.839-12.782,13.388-12.782,23.134v25.819H93.179v128.563l98.63,98.63
	C212.322,509.18,233.832,512,256,512C397.385,512,512,397.385,512,256z"/>
<path style="fill:#415BE9;" d="M393.193,253.461H118.807V127.333c0-22.275,18.058-40.333,40.333-40.333h193.72
	c22.276,0,40.333,18.058,40.333,40.333V253.461z"/>
<path style="fill:#052AE3;" d="M393.19,127.33v126.13H256V87h96.86C375.14,87,393.19,105.06,393.19,127.33z"/>
<path style="fill:#FFED93;" d="M231.225,233.992h-69.526c-9.941,0-18-8.059-18-18V188.23c0-9.941,8.059-18,18-18h69.526
	c9.941,0,18,8.059,18,18v27.762C249.225,225.934,241.166,233.992,231.225,233.992z"/>
<path style="fill:#FFD500;" d="M350.301,233.992h-69.526c-9.941,0-18-8.059-18-18V188.23c0-9.941,8.059-18,18-18h69.526
	c9.941,0,18,8.059,18,18v27.762C368.301,225.934,360.242,233.992,350.301,233.992z"/>
<path style="fill:#FFFFFF;" d="M405.975,283.384h-299.95V250.87c0-15.096,12.238-27.333,27.333-27.333h245.284
	c15.096,0,27.333,12.238,27.333,27.333V283.384z"/>
<path style="fill:#FFF5CA;" d="M405.98,250.87v32.51H256v-59.84h122.64c5.35,0,10.34,1.54,14.55,4.2
	C400.88,232.57,405.98,241.13,405.98,250.87z"/>
<rect x="93.18" y="350" style="fill:#415BE9;" width="32.601" height="55.25"/>
<rect x="386.22" y="350" style="fill:#052AE3;" width="32.601" height="55.25"/>
<rect x="93.18" y="276.69" style="fill:#6977EB;" width="325.64" height="84.29"/>
<rect x="256" y="276.69" style="fill:#415BE9;" width="162.82" height="84.29"/>
<g>
</g>
<g>
</g>
<g>
</g>
<g>
</g>
<g>
</g>
<g>
</g>
<g>
</g>
<g>
</g>
<g>
</g>
<g>
</g>
<g>
</g>
<g>
</g>
<g>
</g>
<g>
</g>
<g>
</g>
</svg>
