<?xml version="1.0" encoding="iso-8859-1"?>
<!-- Generator: Adobe Illustrator 19.0.0, SVG Export Plug-In . SVG Version: 6.00 Build 0)  -->
<svg version="1.1" id="Capa_1" xmlns="http://www.w3.org/2000/svg" xmlns:xlink="http://www.w3.org/1999/xlink" x="0px" y="0px"
	 viewBox="0 0 512 512" style="enable-background:new 0 0 512 512;" xml:space="preserve">
<circle style="fill:#E1E1E3;" cx="256" cy="256" r="256"/>
<path style="fill:#AEADB3;" d="M511.737,267.34L319.46,74.962C303.424,58.34,280.919,48,255.999,48
	c-48.696,0-88.172,39.476-88.172,88.172c0,7.954,1.06,15.66,3.034,22.99h-49.282v268.841l77.674,77.674
	C217.507,509.808,236.497,512,256,512C393.583,512,505.801,403.461,511.737,267.34z"/>
<rect x="121.58" y="159.16" style="fill:#0088FF;" width="268.84" height="268.84"/>
<rect x="256" y="159.16" style="fill:#004EB1;" width="134.42" height="268.84"/>
<polygon style="fill:#FF9A00;" points="390.418,323.804 390.418,360.596 323.005,428 286.222,428 371.405,342.816 324.772,296.183 
	343.168,277.796 389.802,324.42 "/>
<polygon style="fill:#FFE670;" points="159.371,298.231 258.719,198.883 305.343,245.508 323.739,227.121 277.105,180.487 
	298.429,159.164 261.637,159.164 140.975,279.835 121.582,260.433 121.582,297.225 199.861,375.503 147.355,428 184.147,428 
	262.117,350.03 271.315,340.832 280.513,331.634 230.653,281.783 212.257,300.179 243.721,331.634 218.247,357.107 "/>
<g>
	<polygon style="fill:#FF9A00;" points="256,307.119 280.51,331.629 271.319,340.831 256,356.149 	"/>
	<polygon style="fill:#FF9A00;" points="323.738,227.126 305.346,245.508 258.718,198.88 256,201.598 256,164.802 261.639,159.163 
		298.424,159.163 277.11,180.488 	"/>
</g>
<polygon style="fill:#990011;" points="255.999,290.92 301.059,206.463 210.939,206.463 "/>
<polygon style="fill:#72000B;" points="301.057,206.465 296.866,214.326 255.999,290.92 255.999,206.465 "/>
<circle style="fill:#E02424;" cx="256" cy="136.17" r="88.17"/>
<path style="fill:#990011;" d="M344.173,136.174c0,33.947-19.185,63.415-47.307,78.152c-12.221,6.397-26.117,10.016-40.867,10.016
	V48C304.695,48,344.173,87.478,344.173,136.174z"/>
<circle style="fill:#00E8F2;" cx="256" cy="136.17" r="46.03"/>
<path style="fill:#00B7BE;" d="M302.029,136.174c0,25.419-20.611,46.03-46.03,46.03v-92.06
	C281.418,90.144,302.029,110.748,302.029,136.174z"/>
<g>
</g>
<g>
</g>
<g>
</g>
<g>
</g>
<g>
</g>
<g>
</g>
<g>
</g>
<g>
</g>
<g>
</g>
<g>
</g>
<g>
</g>
<g>
</g>
<g>
</g>
<g>
</g>
<g>
</g>
</svg>
