<?xml version="1.0" encoding="iso-8859-1"?>
<!-- Generator: Adobe Illustrator 19.0.0, SVG Export Plug-In . SVG Version: 6.00 Build 0)  -->
<svg version="1.1" id="Capa_1" xmlns="http://www.w3.org/2000/svg" xmlns:xlink="http://www.w3.org/1999/xlink" x="0px" y="0px"
	 viewBox="0 0 512 512" style="enable-background:new 0 0 512 512;" xml:space="preserve">
<circle style="fill:#0088FF;" cx="256" cy="256" r="256"/>
<path style="fill:#004EB1;" d="M512,256c0-18.822-2.05-37.162-5.905-54.828l-111.03-111.03h-278.13v331.716l84.237,84.237
	C218.838,509.95,237.178,512,256,512C397.385,512,512,397.385,512,256z"/>
<polygon style="fill:#FFFFFF;" points="395.065,90.142 116.935,90.142 116.935,421.858 323.263,421.858 395.065,350.056 "/>
<polygon style="fill:#FFF5CB;" points="395.064,90.142 395.064,350.051 323.267,421.858 256,421.858 256,90.142 "/>
<polygon style="fill:#FFFFFF;" points="395.065,350.056 395.065,421.858 323.263,421.858 323.262,421.858 395.065,421.858 "/>
<polygon style="fill:#00B7BE;" points="323.263,421.858 395.065,350.056 323.263,350.056 "/>
<polygon style="fill:#FEC000;" points="157.24,126.743 157.24,293.581 255.997,293.581 255.997,280.761 170.06,280.761 
	170.06,139.562 223.494,139.562 223.494,211.071 204.534,211.071 191.427,189.727 180.502,196.434 197.361,223.89 283.092,223.89 
	283.092,211.071 236.313,211.071 236.313,139.562 341.94,139.562 341.94,211.071 316.82,211.071 300.644,189.306 290.354,196.954 
	310.375,223.89 341.94,223.89 341.94,280.761 289.653,280.761 273.759,258.303 263.295,265.708 283.019,293.581 354.759,293.581 
	354.759,126.743 "/>
<g>
	<rect x="256" y="211.07" style="fill:#FF9A00;" width="27.09" height="12.82"/>
	<polygon style="fill:#FF9A00;" points="354.76,126.742 354.76,293.582 283.02,293.582 263.29,265.712 273.76,258.302 
		289.65,280.762 341.94,280.762 341.94,223.892 310.38,223.892 290.35,196.952 300.64,189.302 316.82,211.072 341.94,211.072 
		341.94,139.562 256,139.562 256,126.742 	"/>
</g>
<g>
	<rect x="157.24" y="325.58" style="fill:#E02424;" width="98.76" height="15.06"/>
	<rect x="157.24" y="357.31" style="fill:#E02424;" width="98.76" height="15.06"/>
</g>
<g>
</g>
<g>
</g>
<g>
</g>
<g>
</g>
<g>
</g>
<g>
</g>
<g>
</g>
<g>
</g>
<g>
</g>
<g>
</g>
<g>
</g>
<g>
</g>
<g>
</g>
<g>
</g>
<g>
</g>
</svg>
