<?xml version="1.0" encoding="iso-8859-1"?>
<!-- Generator: Adobe Illustrator 19.0.0, SVG Export Plug-In . SVG Version: 6.00 Build 0)  -->
<svg version="1.1" id="Capa_1" xmlns="http://www.w3.org/2000/svg" xmlns:xlink="http://www.w3.org/1999/xlink" x="0px" y="0px"
	 viewBox="0 0 512 512" style="enable-background:new 0 0 512 512;" xml:space="preserve">
<circle style="fill:#E02424;" cx="256" cy="256" r="256"/>
<path style="fill:#990011;" d="M512,256c0-15.779-1.437-31.222-4.17-46.212l-90.121-90.121H94.291v272.667L209.788,507.83
	c14.99,2.733,30.433,4.17,46.212,4.17C397.385,512,512,397.385,512,256z"/>
<rect x="108.33" y="131" style="fill:#006EF5;" width="294" height="261.33"/>
<rect x="256" y="131" style="fill:#004EB1;" width="146.33" height="261.33"/>
<polygon style="fill:#00E8F2;" points="94.291,119.667 94.291,392.333 256,392.333 256,374.436 112.188,374.436 112.188,137.564 
	203.884,137.564 203.884,259.158 169.942,259.158 148.643,224.473 133.392,233.836 159.929,277.055 299.16,277.055 299.16,259.158 
	221.781,259.158 221.781,137.564 399.812,137.564 399.812,259.158 355.774,259.158 329.507,223.817 315.142,234.492 
	346.777,277.055 399.812,277.055 399.812,374.436 310.812,374.436 284.982,337.938 270.373,348.276 301.552,392.333 
	417.709,392.333 417.709,119.667 "/>
<g>
	<polygon style="fill:#00B7BE;" points="417.71,119.67 417.71,392.33 301.55,392.33 270.37,348.28 284.98,337.94 310.81,374.44 
		399.81,374.44 399.81,277.06 346.78,277.06 315.14,234.49 329.51,223.82 355.77,259.16 399.81,259.16 399.81,137.56 256,137.56 
		256,119.67 	"/>
	<rect x="256" y="259.16" style="fill:#00B7BE;" width="43.16" height="17.9"/>
</g>
<g>
</g>
<g>
</g>
<g>
</g>
<g>
</g>
<g>
</g>
<g>
</g>
<g>
</g>
<g>
</g>
<g>
</g>
<g>
</g>
<g>
</g>
<g>
</g>
<g>
</g>
<g>
</g>
<g>
</g>
</svg>
