<?xml version="1.0" encoding="iso-8859-1"?>
<!-- Generator: Adobe Illustrator 19.0.0, SVG Export Plug-In . SVG Version: 6.00 Build 0)  -->
<svg version="1.1" id="Capa_1" xmlns="http://www.w3.org/2000/svg" xmlns:xlink="http://www.w3.org/1999/xlink" x="0px" y="0px"
	 viewBox="0 0 512 512" style="enable-background:new 0 0 512 512;" xml:space="preserve">
<circle style="fill:#E1E1E3;" cx="256" cy="256" r="256"/>
<path style="fill:#AEADB3;" d="M511.512,271.616L337.591,97.695c-20.202-22.12-49.276-35.999-81.594-35.999
	c-61.014,0-110.475,49.461-110.475,110.475c0,30.718,12.548,58.496,32.786,78.517l34.584,34.584l25.531,47.854H137.646L75.441,399
	l100.077,100.077C200.828,507.453,227.882,512,256,512C392.14,512,503.44,405.726,511.512,271.616z"/>
<polygon style="fill:#0088FF;" points="374.351,333.125 137.646,333.125 75.441,399 436.556,399 "/>
<polygon style="fill:#004EB1;" points="436.559,399 255.999,399 255.999,333.13 374.349,333.13 "/>
<polygon style="fill:#990011;" points="255.997,366.063 312.455,260.241 199.539,260.241 "/>
<polygon style="fill:#72000B;" points="312.453,260.244 307.201,270.093 255.997,366.063 255.997,260.244 "/>
<circle style="fill:#E02424;" cx="256" cy="172.17" r="110.47"/>
<path style="fill:#990011;" d="M366.475,172.173c0,42.533-24.037,79.455-59.274,97.92c-15.312,8.015-32.723,12.549-51.204,12.549
	V61.695C317.011,61.695,366.475,111.159,366.475,172.173z"/>
<circle style="fill:#FFE670;" cx="256" cy="172.17" r="57.673"/>
<path style="fill:#FEC000;" d="M313.671,172.173c0,31.849-25.824,57.674-57.674,57.674V114.499
	C287.846,114.499,313.671,140.316,313.671,172.173z"/>
<g>
</g>
<g>
</g>
<g>
</g>
<g>
</g>
<g>
</g>
<g>
</g>
<g>
</g>
<g>
</g>
<g>
</g>
<g>
</g>
<g>
</g>
<g>
</g>
<g>
</g>
<g>
</g>
<g>
</g>
</svg>
