<?xml version="1.0" encoding="iso-8859-1"?>
<!-- Generator: Adobe Illustrator 19.0.0, SVG Export Plug-In . SVG Version: 6.00 Build 0)  -->
<svg version="1.1" id="Layer_1" xmlns="http://www.w3.org/2000/svg" xmlns:xlink="http://www.w3.org/1999/xlink" x="0px" y="0px"
	 viewBox="0 0 512 512" style="enable-background:new 0 0 512 512;" xml:space="preserve">
<circle style="fill:#324A5E;" cx="256" cy="256" r="256"/>
<path style="fill:#2B3B4E;" d="M512,256c0-9.706-0.559-19.278-1.61-28.703l-94.396-94.398L310.636,243.366L44.915,279.526
	l57.565,57.565l-10.983,5.766l31.825,31.825l-3.906,1.255l136.056,136.056c0.176,0,0.352,0.007,0.528,0.007
	C397.384,512,512,397.384,512,256z"/>
<path style="fill:#CFDBE6;" d="M260.422,188.299L239.58,300.68c-4.063,21.914,12.512,42.177,34.502,42.177h78.989V189.116
	L260.422,188.299z"/>
<path style="fill:#B8C9D9;" d="M464.441,300.073L440.22,189.885l-87.15-0.769v153.741h76.986
	C452.294,342.857,468.93,322.158,464.441,300.073z"/>
<path style="fill:#FED8B2;" d="M379.437,332.064v-29.925h-53.969v29.925c0,2.388-1.936,4.324-4.324,4.324h-37.19v103.267h136.999
	V336.387h-37.19C381.373,336.387,379.437,334.451,379.437,332.064z"/>
<path style="fill:#EABE96;" d="M420.952,336.387h-37.19c-2.388,0-4.324-1.936-4.324-4.324v-29.925h-29.456v137.518h70.971V336.387
	H420.952z"/>
<path style="fill:#B5F1F4;" d="M304.487,336.389h-28.715c-34.583,0-62.617,28.034-62.617,62.617v109.404
	C227.088,510.759,241.399,512,256,512c33.18,0,64.884-6.313,93.98-17.803V369.386C325.765,368.881,304.487,360.782,304.487,336.389z
	"/>
<path style="fill:#84DBFF;" d="M482.513,375.349c-9.332-22.854-31.77-38.962-57.98-38.962h-28.715
	c0,25.221-18.148,33.023-43.368,33.023c-0.827,0-1.651-0.01-2.472-0.026v124.811C407.068,471.655,454.094,429.175,482.513,375.349z"
	/>
<circle style="fill:#FED8B2;" cx="262.74" cy="264.464" r="21.568"/>
<circle style="fill:#EABE96;" cx="437.562" cy="264.464" r="21.568"/>
<path style="fill:#F4E3C3;" d="M352.584,354.287h-4.861c-44.954,0-81.398-36.443-81.398-81.398v-74.318
	c0-44.954,36.443-81.398,81.398-81.398h4.861c44.954,0,81.398,36.443,81.398,81.398v74.318
	C433.981,317.843,397.538,354.287,352.584,354.287z"/>
<path style="fill:#FED8B2;" d="M352.584,117.172h-2.603v237.113h2.603c44.954,0,81.398-36.443,81.398-81.398V198.57
	C433.981,153.616,397.538,117.172,352.584,117.172z"/>
<g>
	<circle style="fill:#59595B;" cx="310.631" cy="272.101" r="8.383"/>
	<circle style="fill:#59595B;" cx="389.672" cy="272.101" r="8.383"/>
</g>
<path style="fill:#FD8469;" d="M350.153,324.911c-9.202,0-16.687-7.485-16.687-16.687c0-2.56,2.076-4.636,4.636-4.636
	s4.636,2.076,4.636,4.636c0,4.091,3.327,7.416,7.416,7.416c4.091,0,7.416-3.327,7.416-7.416c0-2.56,2.076-4.636,4.636-4.636
	s4.636,2.076,4.636,4.636C366.84,317.426,359.355,324.911,350.153,324.911z"/>
<path style="fill:#FC6F58;" d="M362.205,303.588c-2.56,0-4.636,2.076-4.636,4.636c0,4.091-3.327,7.416-7.416,7.416
	c-0.06,0-0.116-0.016-0.174-0.017v9.28c0.059,0,0.116,0.009,0.174,0.009c9.202,0,16.687-7.485,16.687-16.687
	C366.84,305.664,364.766,303.588,362.205,303.588z"/>
<g>
	<path style="fill:#FED8B2;" d="M391.385,200.151c-1.022,0-2.053-0.336-2.912-1.033c-10.306-8.335-22.761-12.74-36.023-12.74
		s-25.717,4.406-36.023,12.74c-1.993,1.614-4.911,1.298-6.518-0.688c-1.612-1.989-1.302-4.91,0.688-6.518
		c11.802-9.547,26.665-14.805,41.853-14.805c15.189,0,30.051,5.258,41.853,14.805c1.989,1.61,2.3,4.529,0.688,6.518
		C394.076,199.561,392.738,200.151,391.385,200.151z"/>
	<path style="fill:#FED8B2;" d="M399.729,181.229c-1.022,0-2.053-0.336-2.912-1.033c-12.691-10.266-28.034-15.693-44.366-15.693
		s-31.675,5.427-44.366,15.693c-1.993,1.614-4.911,1.298-6.518-0.688c-1.612-1.989-1.302-4.91,0.688-6.518
		c14.155-11.452,31.982-17.756,50.197-17.756c18.217,0,36.043,6.304,50.197,17.756c1.989,1.61,2.3,4.529,0.688,6.518
		C402.422,180.641,401.082,181.229,399.729,181.229z"/>
</g>
<g>
	<path style="fill:#EABE96;" d="M394.304,191.91c-11.802-9.547-26.665-14.805-41.853-14.805c-0.826,0-1.648,0.022-2.472,0.053v9.321
		c0.824-0.034,1.641-0.103,2.472-0.103c13.262,0,25.717,4.406,36.023,12.74c0.858,0.695,1.889,1.033,2.912,1.033
		c1.353,0,2.691-0.588,3.606-1.72C396.603,196.439,396.295,193.52,394.304,191.91z"/>
	<path style="fill:#EABE96;" d="M402.649,172.99c-14.155-11.452-31.982-17.756-50.197-17.756c-0.826,0-1.648,0.028-2.472,0.053
		v9.269c0.822-0.028,1.645-0.052,2.472-0.052c16.332,0,31.675,5.427,44.366,15.693c0.858,0.695,1.889,1.033,2.912,1.033
		c1.353,0,2.693-0.588,3.606-1.72C404.949,177.519,404.639,174.601,402.649,172.99z"/>
</g>
<path style="fill:#E6F3FF;" d="M272.105,235.23h153.891v28.494h15.169v-46.539v-22.547c0-18.872-5.935-36.349-16.013-50.705
	c-15.986-22.771-42.425-37.669-72.361-37.669h-5.277c-48.807,0-88.374,39.567-88.374,88.374v6.834v62.25h12.974L272.105,235.23z"/>
<g>
	<path style="fill:#CFDBE6;" d="M425.153,143.934c-15.986-22.771-42.425-37.669-72.361-37.669h-2.551V235.23h75.757v28.494h15.169
		v-46.539v-22.547C441.166,175.766,435.231,158.289,425.153,143.934z"/>
</g>
<path style="fill:#FFD15D;" d="M389.672,243.365c-14.896,0-27.176,11.392-28.598,25.921h-21.842
	c-1.422-14.527-13.702-25.921-28.598-25.921c-15.848,0-28.741,12.893-28.741,28.741c0,15.848,12.893,28.741,28.741,28.741
	c14.279,0,26.126-10.48,28.338-24.143h22.363c2.212,13.665,14.057,24.143,28.338,24.143c15.848,0,28.741-12.893,28.741-28.741
	C418.413,256.259,405.52,243.365,389.672,243.365z M310.634,293.429c-11.757,0-21.323-9.566-21.323-21.323
	s9.566-21.323,21.323-21.323s21.323,9.566,21.323,21.323S322.391,293.429,310.634,293.429z M389.672,293.429
	c-11.757,0-21.323-9.566-21.323-21.323s9.566-21.323,21.323-21.323s21.323,9.566,21.323,21.323S401.429,293.429,389.672,293.429z"/>
<path style="fill:#F9B54C;" d="M389.672,243.365c-14.896,0-27.176,11.392-28.598,25.921h-10.835v7.416h11.095
	c2.212,13.665,14.057,24.143,28.338,24.143c15.848,0,28.741-12.893,28.741-28.741C418.413,256.257,405.52,243.365,389.672,243.365z
	 M389.672,293.429c-11.757,0-21.323-9.566-21.323-21.323s9.566-21.323,21.323-21.323s21.323,9.566,21.323,21.323
	S401.429,293.429,389.672,293.429z"/>
<path style="fill:#935635;" d="M260.668,406.497c-22.494,0-40.793,18.301-40.793,40.793h20.396c0-11.247,9.149-20.396,20.396-20.396
	c11.247,0,20.396,9.149,20.396,20.396v63.488c6.882-0.669,13.686-1.6,20.396-2.803V447.29
	C301.461,424.796,283.162,406.497,260.668,406.497z"/>
<path style="fill:#FED8B2;" d="M175.997,392.321v-19.227h-34.673v19.227c0,1.534-1.245,2.779-2.779,2.779H114.65v66.348h88.019
	V395.1h-23.895C177.242,395.1,175.997,393.856,175.997,392.321z"/>
<path style="fill:#EABE96;" d="M202.669,395.1h-23.893c-1.534,0-2.779-1.245-2.779-2.779v-19.227h-18.13v88.352h44.803
	L202.669,395.1z"/>
<circle style="fill:#FED8B2;" cx="101.021" cy="332.817" r="13.86"/>
<circle style="fill:#EABE96;" cx="213.333" cy="332.817" r="13.86"/>
<path style="fill:#F4E3C3;" d="M158.744,390.516h-3.124c-28.882,0-52.296-23.414-52.296-52.296v-47.747
	c0-28.882,23.414-52.296,52.296-52.296h3.124c28.882,0,52.296,23.414,52.296,52.296v47.747
	C211.041,367.102,187.626,390.516,158.744,390.516z"/>
<path style="fill:#FED8B2;" d="M158.744,238.177h-0.877v152.34h0.877c28.882,0,52.296-23.414,52.296-52.296v-47.747
	C211.041,261.591,187.626,238.177,158.744,238.177z"/>
<circle style="fill:#59595B;" cx="131.793" cy="326.663" r="5.385"/>
<circle style="fill:#272525;" cx="182.579" cy="326.663" r="5.385"/>
<path style="fill:#FF6472;" d="M206.448,395.1h-18.449c0,16.205-29.339,31.939-29.339,31.939s-29.339-15.736-29.339-31.939h-18.448
	c-21.325,0-38.765,16.596-40.134,37.574c44.625,46.78,106.791,76.662,175.94,79.139v-76.483
	C246.679,413.112,228.667,395.1,206.448,395.1z"/>
<path style="fill:#C75163;" d="M246.679,435.331c0-22.218-18.011-40.231-40.231-40.231h-18.449
	c0,16.205-29.339,31.939-29.339,31.939s-0.233-0.126-0.636-0.352v65.862c27.469,11.385,57.342,18.142,88.655,19.265V435.331z"/>
<path style="fill:#FD8469;" d="M157.182,370.798c-9.704,0-17.598-7.894-17.598-17.598c0-1.645,1.333-2.979,2.979-2.979
	c1.645,0,2.979,1.333,2.979,2.979c0,6.418,5.222,11.64,11.64,11.64c6.418,0,11.64-5.222,11.64-11.64
	c0-1.645,1.333-2.979,2.979-2.979c1.645,0,2.979,1.333,2.979,2.979C174.78,362.905,166.886,370.798,157.182,370.798z"/>
<g>
	<path style="fill:#FC6F58;" d="M174.78,353.201c0-1.645-1.333-2.979-2.979-2.979c-1.646,0-2.979,1.333-2.979,2.979
		c0,6.187-4.858,11.248-10.957,11.605v5.956C167.252,370.4,174.78,362.674,174.78,353.201z"/>
	<path style="fill:#FC6F58;" d="M116.267,272.932c0,0-2.627-33.337-53.85-47.273l-17.503,53.867L116.267,272.932z"/>
</g>
<g>
	<path style="fill:#F1543F;" d="M201.052,272.932c0,0,2.627-33.337,53.85-47.273l17.503,53.867L201.052,272.932z"/>
	<path style="fill:#F1543F;" d="M205.912,314.506v18.306h9.745v-29.899v-14.486c0-12.124-3.813-23.354-10.288-32.577
		c-10.271-14.631-27.258-24.202-46.49-24.202h-3.391c-31.358,0-56.779,25.421-56.779,56.779v4.391v39.995h8.335v-18.306H205.912z"/>
</g>
<path style="fill:#D83E20;" d="M205.369,255.85c-10.271-14.631-27.258-24.202-46.49-24.202h-0.853v82.858h47.888v18.306h9.745
	v-29.899v-14.486C215.657,276.301,211.844,265.073,205.369,255.85z"/>
<g>
</g>
<g>
</g>
<g>
</g>
<g>
</g>
<g>
</g>
<g>
</g>
<g>
</g>
<g>
</g>
<g>
</g>
<g>
</g>
<g>
</g>
<g>
</g>
<g>
</g>
<g>
</g>
<g>
</g>
</svg>
