<?xml version="1.0" encoding="iso-8859-1"?>
<!-- Generator: Adobe Illustrator 19.0.0, SVG Export Plug-In . SVG Version: 6.00 Build 0)  -->
<svg version="1.1" id="Layer_1" xmlns="http://www.w3.org/2000/svg" xmlns:xlink="http://www.w3.org/1999/xlink" x="0px" y="0px"
	 viewBox="0 0 512 512" style="enable-background:new 0 0 512 512;" xml:space="preserve">
<circle style="fill:#FFEDB5;" cx="256" cy="256" r="256"/>
<path style="fill:#FEE187;" d="M511.988,256.957L410.864,155.832l-215.128,9.876l-52.364-52.362L110.187,350.93l160.632,160.632
	C404.99,503.903,511.488,392.93,511.988,256.957z"/>
<path style="fill:#386895;" d="M125.145,356.166h285.718V155.834H101.136v176.323C101.136,345.417,111.885,356.166,125.145,356.166z
	"/>
<g>
	<rect x="264.051" y="155.841" style="fill:#273B7A;" width="146.825" height="200.335"/>
	<path style="fill:#273B7A;" d="M101.136,331.238c0-13.448,10.902-24.35,24.35-24.35h17.886V113.347h-17.886
		c-13.448,0-24.35,10.902-24.35,24.35V331.238z"/>
</g>
<path style="fill:#FFFFFF;" d="M376.906,186.032H173.882c-2.381,0-4.31,1.929-4.31,4.31v131.317c0,2.381,1.929,4.31,4.31,4.31
	h203.024c2.381,0,4.31-1.929,4.31-4.31V190.342C381.216,187.961,379.287,186.032,376.906,186.032z M178.192,317.349v-29.753h59.564
	c2.381,0,4.31-1.929,4.31-4.31s-1.929-4.31-4.31-4.31h-59.564v-84.325h109.127v76.7c0,2.381,1.929,4.31,4.31,4.31
	s4.31-1.929,4.31-4.31v-76.7h76.659v72.49c-9.214-0.369-28.032,2.122-37.574,26.507c-0.867,2.217,0.228,4.717,2.443,5.584
	c0.517,0.202,1.046,0.298,1.569,0.298c1.722,0,3.35-1.041,4.015-2.741c7.849-20.056,22.878-21.525,29.548-21.095v41.655H178.192z"/>
<path style="fill:#D0D1D3;" d="M376.906,186.032H264.045v8.62h23.273v76.7c0,2.381,1.929,4.31,4.31,4.31s4.31-1.929,4.31-4.31v-76.7
	h76.659v72.49c-9.214-0.369-28.032,2.122-37.574,26.507c-0.867,2.217,0.228,4.717,2.443,5.584c0.517,0.202,1.046,0.298,1.569,0.298
	c1.722,0,3.35-1.041,4.015-2.741c7.849-20.056,22.878-21.525,29.548-21.095v41.655H264.045v8.62h112.861
	c2.381,0,4.31-1.929,4.31-4.31V190.342C381.216,187.961,379.287,186.032,376.906,186.032z"/>
<g>
</g>
<g>
</g>
<g>
</g>
<g>
</g>
<g>
</g>
<g>
</g>
<g>
</g>
<g>
</g>
<g>
</g>
<g>
</g>
<g>
</g>
<g>
</g>
<g>
</g>
<g>
</g>
<g>
</g>
</svg>
