<?xml version="1.0" encoding="iso-8859-1"?>
<!-- Generator: Adobe Illustrator 19.0.0, SVG Export Plug-In . SVG Version: 6.00 Build 0)  -->
<svg version="1.1" id="Layer_1" xmlns="http://www.w3.org/2000/svg" xmlns:xlink="http://www.w3.org/1999/xlink" x="0px" y="0px"
	 viewBox="0 0 512 512" style="enable-background:new 0 0 512 512;" xml:space="preserve">
<path style="fill:#F85C67;" d="M509.095,217.33C490.453,94.294,384.239,0,256,0C114.615,0,0,114.616,0,256
	c0,128.239,94.294,234.451,217.33,253.095L509.095,217.33z"/>
<path style="fill:#F63341;" d="M509.095,217.331l-79.386-79.387l-21.642,9.143L311.361,50.38l-12.975,9.397
	c-4.24-2.613-9.226-4.125-14.56-4.125c-11.055,0-20.622,6.48-25.108,15.84l-4.807,1.419c-4.169-10.116-14.132-17.259-25.737-17.259
	c-15.344,0-27.826,12.483-27.826,27.826L82.292,374.056L217.33,509.095C229.941,511.005,242.855,512,256,512
	c141.384,0,256-114.616,256-256C512,242.855,511.005,229.941,509.095,217.331z"/>
<path style="fill:#40D2BE;" d="M200.348,411.826c-85.923,0-155.826-69.904-155.826-155.826s69.904-155.826,155.826-155.826h111.304
	c85.922,0,155.826,69.904,155.826,155.826s-69.904,155.826-155.826,155.826H200.348z"/>
<path style="fill:#02AF92;" d="M466.326,237.078H233.739v174.748h77.913c85.922,0,155.826-69.904,155.826-155.826
	C467.478,249.596,467.081,243.282,466.326,237.078z"/>
<path style="fill:#02C8A7;" d="M45.674,237.078c-0.755,6.204-1.152,12.517-1.152,18.922c0,85.923,69.904,155.826,155.826,155.826
	H256V237.078H45.674z"/>
<path style="fill:#7DDCD4;" d="M311.652,100.174H256l-22.261,89.043l197.171-33.391
	C402.304,121.824,359.462,100.174,311.652,100.174z"/>
<path style="fill:#D8F4F2;" d="M200.348,100.174c-47.81,0-90.652,21.65-119.258,55.652L256,189.217v-89.043H200.348z"/>
<path style="fill:#02C8A7;" d="M430.91,155.826H256l-22.261,59.548L256,274.922c20.901,0,37.843-16.943,37.843-37.843
	c0,20.901,16.943,37.843,37.843,37.843c20.901,0,37.843-16.943,37.843-37.843c0,20.901,16.943,37.843,37.843,37.843
	c20.901,0,37.843-16.943,37.843-37.843h21.109C462.589,206.363,449.884,178.377,430.91,155.826z"/>
<path style="fill:#7DDCD4;" d="M81.089,155.826c-18.973,22.551-31.678,50.537-35.415,81.252h21.109
	c0,20.901,16.943,37.843,37.843,37.843s37.843-16.943,37.843-37.843c0,20.901,16.943,37.843,37.843,37.843
	s37.843-16.943,37.843-37.843c0,20.901,16.943,37.843,37.843,37.843V155.826H81.089z"/>
<path style="fill:#D8F4F2;" d="M311.652,89.043H256l-22.261,16.696L256,122.435h55.652c35.676,0,69.218,13.893,94.445,39.12
	s39.12,58.769,39.12,94.445s-13.893,69.218-39.12,94.445s-58.769,39.12-94.445,39.12H256l-22.261,16.696L256,422.957h55.652
	c92.208,0,166.957-74.749,166.957-166.957S403.86,89.043,311.652,89.043z"/>
<polygon style="fill:#616F6D;" points="189.217,89.043 189.217,100.174 211.478,100.174 211.478,89.043 200.348,66.783 "/>
<path style="fill:#FFFFFF;" d="M200.348,389.565c-35.676,0-69.218-13.893-94.445-39.12S66.783,291.676,66.783,256
	s13.893-69.218,39.12-94.445s58.769-39.12,94.445-39.12H256V89.043h-55.652C108.14,89.043,33.391,163.792,33.391,256
	s74.749,166.957,166.957,166.957H256v-33.391H200.348z"/>
<polygon style="fill:#0E7563;" points="322.783,178.087 300.522,178.087 300.522,155.826 311.652,144.696 322.783,155.826 "/>
<polygon style="fill:#02967D;" points="267.13,178.087 244.87,178.087 244.87,155.826 256,144.696 267.13,155.826 "/>
<rect x="256" y="111.304" style="fill:#616F6D;" width="55.652" height="22.261"/>
<path style="fill:#394B48;" d="M283.826,38.957c-21.481,0-38.957,17.476-38.957,38.957h22.261c0-9.206,7.49-16.696,16.696-16.696
	c9.206,0,16.696,7.49,16.696,16.696v77.913h22.261V77.913C322.783,56.432,305.307,38.957,283.826,38.957z"/>
<path style="fill:#616F6D;" d="M267.13,155.826H244.87V77.913c0-9.206-7.49-16.696-16.696-16.696s-16.696,7.49-16.696,16.696v11.13
	h-22.261v-11.13c0-21.481,17.476-38.957,38.957-38.957s38.957,17.476,38.957,38.957V155.826z"/>
<g>
</g>
<g>
</g>
<g>
</g>
<g>
</g>
<g>
</g>
<g>
</g>
<g>
</g>
<g>
</g>
<g>
</g>
<g>
</g>
<g>
</g>
<g>
</g>
<g>
</g>
<g>
</g>
<g>
</g>
</svg>
