<?xml version="1.0" encoding="iso-8859-1"?>
<!-- Generator: Adobe Illustrator 19.0.0, SVG Export Plug-In . SVG Version: 6.00 Build 0)  -->
<svg version="1.1" id="Layer_1" xmlns="http://www.w3.org/2000/svg" xmlns:xlink="http://www.w3.org/1999/xlink" x="0px" y="0px"
	 viewBox="0 0 512 512" style="enable-background:new 0 0 512 512;" xml:space="preserve">
<path style="fill:#40D2BE;" d="M511.944,260.397C511.969,258.933,512,257.47,512,256C512,114.616,397.385,0,256,0S0,114.616,0,256
	c0,124.041,88.224,227.468,205.344,250.979L511.944,260.397z"/>
<path style="fill:#02AF92;" d="M511.944,260.397l-54.483-54.483l-38.558,7.077L278.261,72.348L256,120.579L93.496,194.783
	l50.087,50.087l-50.087,50.087l50.087,50.087L93.496,395.13l111.849,111.849C221.719,510.266,238.657,512,256,512
	C395.915,512,509.595,399.751,511.944,260.397z"/>
<polygon style="fill:#701C12;" points="278.261,72.348 233.739,72.348 233.739,94.609 256,116.87 278.261,94.609 "/>
<polygon style="fill:#FFFFFF;" points="93.496,217.043 54.539,256 93.496,294.957 256,294.957 256,217.043 "/>
<polygon style="fill:#FEF2CC;" points="211.478,239.304 211.478,272.696 102.712,272.696 86.016,256 102.712,239.304 "/>
<polygon style="fill:#FFFFFF;" points="93.496,116.87 54.539,155.826 93.496,194.783 256,194.783 256,116.87 "/>
<polygon style="fill:#FEF2CC;" points="211.478,139.13 211.478,172.522 102.712,172.522 86.016,155.826 102.712,139.13 "/>
<polygon style="fill:#FFFFFF;" points="93.496,317.217 54.539,356.174 93.496,395.13 256,395.13 256,317.217 "/>
<g>
	<polygon style="fill:#FEF2CC;" points="211.478,372.87 211.478,339.478 102.712,339.478 86.016,356.174 102.712,372.87 	"/>
	<polygon style="fill:#FEF2CC;" points="418.504,267.13 256,267.13 256,345.043 418.504,345.043 457.461,306.087 	"/>
</g>
<polygon style="fill:#FDE59A;" points="300.522,289.391 300.522,322.783 409.288,322.783 425.984,306.087 409.288,289.391 "/>
<polygon style="fill:#FEF2CC;" points="418.504,166.957 256,166.957 256,244.87 418.504,244.87 457.461,205.913 "/>
<polygon style="fill:#FDE59A;" points="300.522,222.609 300.522,189.217 409.288,189.217 425.984,205.913 409.288,222.609 "/>
<path style="fill:#A72B1A;" d="M244.87,294.957l10.457,217.035c0.225,0,0.449,0.009,0.673,0.009c7.502,0,14.923-0.342,22.261-0.974
	V94.609H256L244.87,294.957z"/>
<path style="fill:#F63341;" d="M233.739,94.609v416.417C241.077,511.658,248.498,512,256,512V94.609H233.739z"/>
<g>
</g>
<g>
</g>
<g>
</g>
<g>
</g>
<g>
</g>
<g>
</g>
<g>
</g>
<g>
</g>
<g>
</g>
<g>
</g>
<g>
</g>
<g>
</g>
<g>
</g>
<g>
</g>
<g>
</g>
</svg>
