<?xml version="1.0" encoding="iso-8859-1"?>
<!-- Generator: Adobe Illustrator 19.0.0, SVG Export Plug-In . SVG Version: 6.00 Build 0)  -->
<svg version="1.1" id="Layer_1" xmlns="http://www.w3.org/2000/svg" xmlns:xlink="http://www.w3.org/1999/xlink" x="0px" y="0px"
	 viewBox="0 0 512 512" style="enable-background:new 0 0 512 512;" xml:space="preserve">
<path style="fill:#F85C67;" d="M505.771,199.684C480.112,85.395,378.035,0,256,0C114.616,0,0,114.616,0,256
	c0,122.034,85.395,224.112,199.684,249.77L505.771,199.684z"/>
<g>
	
		<rect x="48.607" y="318.483" transform="matrix(-0.7071 -0.7071 0.7071 -0.7071 -89.077 645.1508)" style="fill:#C92B31;" width="80.94" height="45.081"/>
	
		<rect x="37.559" y="222.718" transform="matrix(-0.7071 -0.7071 0.7071 -0.7071 24.1725 500.5301)" style="fill:#C92B31;" width="156.381" height="45.081"/>
</g>
<path style="fill:#F63341;" d="M512,256c0-19.35-2.16-38.194-6.23-56.316l-60.553-60.554l-40.07,40.07l-40.07-40.07l-40.07,40.07
	l-40.07-40.07l-40.07,40.07l-40.07-40.07l-40.07,40.07l-40.07-40.07L66.783,372.87l132.902,132.902
	C217.806,509.84,236.65,512,256,512C397.384,512,512,397.384,512,256z"/>
<polygon style="fill:#F9BE02;" points="467.478,306.087 256,306.087 225.789,317.217 256,328.348 467.478,328.348 "/>
<rect x="44.522" y="306.087" style="fill:#FDE59A;" width="211.478" height="22.261"/>
<polygon style="fill:#F9BE02;" points="467.478,183.652 256,183.652 225.789,194.783 256,205.913 467.478,205.913 "/>
<rect x="44.522" y="183.652" style="fill:#FDE59A;" width="211.478" height="22.261"/>
<g>
	<polygon style="fill:#FEF2CC;" points="445.217,372.87 387.339,372.87 387.339,139.13 416.278,116.87 445.217,139.13 	"/>
	<polygon style="fill:#FEF2CC;" points="365.078,372.87 307.2,372.87 307.2,139.13 336.139,116.87 365.078,139.13 	"/>
</g>
<g>
	<polygon style="fill:#FFFFFF;" points="124.661,372.87 66.783,372.87 66.783,139.13 95.722,116.87 124.661,139.13 	"/>
	<polygon style="fill:#FFFFFF;" points="204.8,372.87 146.922,372.87 146.922,139.13 175.861,116.87 204.8,139.13 	"/>
</g>
<polygon style="fill:#FEF2CC;" points="284.939,139.13 256,116.87 244.87,256 256,372.87 284.939,372.87 "/>
<polygon style="fill:#FFFFFF;" points="227.061,139.13 227.061,372.87 256,372.87 256,116.87 "/>
<g>
</g>
<g>
</g>
<g>
</g>
<g>
</g>
<g>
</g>
<g>
</g>
<g>
</g>
<g>
</g>
<g>
</g>
<g>
</g>
<g>
</g>
<g>
</g>
<g>
</g>
<g>
</g>
<g>
</g>
</svg>
