<?xml version="1.0" encoding="iso-8859-1"?>
<!-- Generator: Adobe Illustrator 19.0.0, SVG Export Plug-In . SVG Version: 6.00 Build 0)  -->
<svg version="1.1" id="Layer_1" xmlns="http://www.w3.org/2000/svg" xmlns:xlink="http://www.w3.org/1999/xlink" x="0px" y="0px"
	 viewBox="0 0 512 512" style="enable-background:new 0 0 512 512;" xml:space="preserve">
<circle style="fill:#FFC61B;" cx="256" cy="256" r="256"/>
<path style="fill:#EAA22F;" d="M512,256c0-0.86-0.024-1.715-0.033-2.574L393.804,135.263L224.601,281.859l-105.465,95.93
	l134.177,134.177c0.896,0.009,1.788,0.034,2.686,0.034C397.384,512,512,397.384,512,256z"/>
<path style="fill:#FFFFFF;" d="M378.54,384H133.458c-10.869,0-19.68-8.811-19.68-19.682V147.68c0-10.869,8.811-19.68,19.68-19.68
	H378.54c10.869,0,19.682,8.811,19.682,19.68v216.638C398.222,375.189,389.411,384,378.54,384z"/>
<path style="fill:#D0D1D3;" d="M378.54,128H255.855v256H378.54c10.869,0,19.682-8.811,19.682-19.682V147.682
	C398.222,136.811,389.411,128,378.54,128z"/>
<path style="fill:#386895;" d="M398.222,147.682c0-10.869-8.811-19.682-19.682-19.682H133.46c-10.871,0-19.682,8.811-19.682,19.682
	v20.744h284.444V147.682z"/>
<path style="fill:#273B7A;" d="M398.222,147.682c0-10.869-8.811-19.682-19.682-19.682H255.855v40.426h142.367V147.682z"/>
<path style="fill:#808183;" d="M113.988,367.049c1.333,9.575,9.528,16.951,19.47,16.951H378.54c9.942,0,18.137-7.378,19.47-16.951
	L113.988,367.049L113.988,367.049z"/>
<path style="fill:#59595B;" d="M255.857,367.049V384h122.685c9.942,0,18.137-7.378,19.47-16.951L255.857,367.049L255.857,367.049z"
	/>
<path style="fill:#D0D1D3;" d="M373.226,158.599H138.774c-4.046,0-7.327-3.281-7.327-7.327l0,0c0-4.046,3.281-7.327,7.327-7.327
	h234.451c4.046,0,7.327,3.281,7.327,7.327l0,0C380.552,155.319,377.272,158.599,373.226,158.599z"/>
<path style="fill:#A6A8AA;" d="M373.226,143.946H255.857v14.653h117.369c4.046,0,7.327-3.281,7.327-7.327
	S377.272,143.946,373.226,143.946z"/>
<path style="fill:#FF7F4F;" d="M299.096,340.473c-2.188,0-4.218-1.4-4.922-3.594L256,217.779l-38.174,119.099
	c-0.871,2.719-3.782,4.218-6.503,3.344c-2.719-0.871-4.217-3.782-3.344-6.503l43.098-134.465c0.684-2.139,2.677-3.593,4.923-3.593
	c2.246,0,4.239,1.453,4.923,3.593l43.098,134.465c0.872,2.72-0.626,5.634-3.344,6.503
	C300.151,340.392,299.62,340.473,299.096,340.473z"/>
<g>
	<path style="fill:#D35933;" d="M304.021,333.721l-43.098-134.465c-0.684-2.139-2.677-3.593-4.923-3.593
		c-0.048,0-0.095,0.01-0.143,0.012v22.552l0.143-0.447l38.174,119.099c0.703,2.195,2.736,3.594,4.922,3.594
		c0.524,0,1.055-0.081,1.581-0.25C303.395,339.354,304.893,336.441,304.021,333.721z"/>
	<path style="fill:#D35933;" d="M261.172,194.379v-7.766c0-2.857-2.315-5.172-5.172-5.172s-5.172,2.315-5.172,5.172v7.766
		c-16.082,2.501-28.444,16.403-28.444,33.177c0,18.535,15.081,33.616,33.616,33.616s33.616-15.081,33.616-33.616
		C289.616,210.784,277.254,196.88,261.172,194.379z M256,250.828c-12.833,0-23.273-10.44-23.273-23.273
		c0-12.833,10.44-23.273,23.273-23.273c12.833,0,23.273,10.44,23.273,23.273C279.273,240.388,268.833,250.828,256,250.828z"/>
</g>
<g>
	<path style="fill:#B54324;" d="M261.172,194.379v-7.766c0-2.857-2.315-5.172-5.172-5.172c-0.048,0-0.095,0.014-0.143,0.014v22.835
		c0.048,0,0.095-0.007,0.143-0.007c12.833,0,23.273,10.44,23.273,23.273s-10.44,23.273-23.273,23.273
		c-0.048,0-0.095-0.007-0.143-0.007v10.343c0.048,0,0.095,0.007,0.143,0.007c18.535,0,33.616-15.081,33.616-33.616
		C289.616,210.784,277.254,196.88,261.172,194.379z"/>
	<path style="fill:#B54324;" d="M293.064,287.03h-74.128c-2.857,0-5.172-2.315-5.172-5.172s2.315-5.172,5.172-5.172h74.128
		c2.857,0,5.172,2.315,5.172,5.172S295.92,287.03,293.064,287.03z"/>
</g>
<g>
</g>
<g>
</g>
<g>
</g>
<g>
</g>
<g>
</g>
<g>
</g>
<g>
</g>
<g>
</g>
<g>
</g>
<g>
</g>
<g>
</g>
<g>
</g>
<g>
</g>
<g>
</g>
<g>
</g>
</svg>
