<?xml version="1.0" encoding="iso-8859-1"?>
<!-- Generator: Adobe Illustrator 19.0.0, SVG Export Plug-In . SVG Version: 6.00 Build 0)  -->
<svg version="1.1" id="Layer_1" xmlns="http://www.w3.org/2000/svg" xmlns:xlink="http://www.w3.org/1999/xlink" x="0px" y="0px"
	 viewBox="0 0 512 512" style="enable-background:new 0 0 512 512;" xml:space="preserve">
<path style="fill:#FBD867;" d="M502.388,186.283C472.031,78.782,373.217,0,256,0C114.616,0,0,114.616,0,256
	c0,117.217,78.782,216.031,186.283,246.388L502.388,186.283z"/>
<path style="fill:#F9BE02;" d="M512,256c0-24.168-3.354-47.551-9.612-69.717l-88.336-88.336L97.948,414.052l88.336,88.336
	C208.449,508.647,231.832,512,256,512C397.385,512,512,397.385,512,256z"/>
<polygon style="fill:#FEF2CC;" points="256,109.078 211.478,256 256,402.922 347.27,402.922 347.27,256 402.922,256 
	402.922,109.078 "/>
<rect x="109.078" y="109.078" style="fill:#FFFFFF;" width="146.922" height="293.843"/>
<polygon style="fill:#263230;" points="256,97.948 244.87,109.078 256,120.209 335.026,120.209 335.026,178.087 357.287,178.087 
	357.287,120.209 391.791,120.209 391.791,244.87 357.287,244.87 357.287,222.609 335.026,222.609 335.026,244.87 256,244.87 
	244.87,256 256,267.13 336.139,267.13 336.139,318.33 313.878,318.33 313.878,340.591 336.139,340.591 336.139,391.791 256,391.791 
	244.87,402.922 256,414.052 358.4,414.052 358.4,267.13 414.052,267.13 414.052,97.948 "/>
<g>
	<polygon style="fill:#394B48;" points="231.513,222.609 209.252,222.609 209.252,289.391 231.513,289.391 231.513,267.13 
		256,267.13 256,244.87 231.513,244.87 	"/>
	<polygon style="fill:#394B48;" points="231.513,391.791 231.513,333.913 209.252,333.913 209.252,391.791 120.209,391.791 
		120.209,120.209 142.47,120.209 142.47,97.948 97.948,97.948 97.948,414.052 256,414.052 256,391.791 	"/>
	<polygon style="fill:#394B48;" points="186.991,97.948 186.991,120.209 209.252,120.209 209.252,178.087 231.513,178.087 
		231.513,120.209 256,120.209 256,97.948 	"/>
</g>
<g>
</g>
<g>
</g>
<g>
</g>
<g>
</g>
<g>
</g>
<g>
</g>
<g>
</g>
<g>
</g>
<g>
</g>
<g>
</g>
<g>
</g>
<g>
</g>
<g>
</g>
<g>
</g>
<g>
</g>
</svg>
