<?xml version="1.0" encoding="iso-8859-1"?>
<!-- Generator: Adobe Illustrator 19.0.0, SVG Export Plug-In . SVG Version: 6.00 Build 0)  -->
<svg version="1.1" id="Capa_1" xmlns="http://www.w3.org/2000/svg" xmlns:xlink="http://www.w3.org/1999/xlink" x="0px" y="0px"
	 viewBox="0 0 512 512" style="enable-background:new 0 0 512 512;" xml:space="preserve">
<circle style="fill:#662E57;" cx="256" cy="256" r="256"/>
<path style="fill:#590F38;" d="M512,256c0-17.067-1.685-33.739-4.871-49.871L418,117L83.308,226l113.345,113.345L94,390.5
	l117.664,117.664C226.066,510.679,240.878,512,256,512C397.385,512,512,397.385,512,256z"/>
<rect x="94" y="186" style="fill:#FFECB3;" width="324" height="204.5"/>
<rect x="255.95" y="186" style="fill:#FFD863;" width="162.05" height="204.5"/>
<polygon style="fill:#FFB344;" points="428.692,226 83.308,226 94,117 418,117 "/>
<polygon style="fill:#FF9451;" points="418,117 255.952,117 255.952,226 428.692,226 "/>
<rect x="116.77" y="256.25" style="fill:#35CCFF;" width="64" height="82.25"/>
<rect x="331.23" y="256.25" style="fill:#00BAFF;" width="64" height="82.25"/>
<rect x="209" y="256.25" style="fill:#FF6838;" width="94" height="134.25"/>
<rect x="255.95" y="256.25" style="fill:#AE4E32;" width="47.05" height="134.25"/>
<g>
</g>
<g>
</g>
<g>
</g>
<g>
</g>
<g>
</g>
<g>
</g>
<g>
</g>
<g>
</g>
<g>
</g>
<g>
</g>
<g>
</g>
<g>
</g>
<g>
</g>
<g>
</g>
<g>
</g>
</svg>
