<?xml version="1.0" encoding="iso-8859-1"?>
<!-- Generator: Adobe Illustrator 19.0.0, SVG Export Plug-In . SVG Version: 6.00 Build 0)  -->
<svg version="1.1" id="Layer_1" xmlns="http://www.w3.org/2000/svg" xmlns:xlink="http://www.w3.org/1999/xlink" x="0px" y="0px"
	 viewBox="0 0 512 512" style="enable-background:new 0 0 512 512;" xml:space="preserve">
<path style="fill:#6E6057;" d="M256,512c-9.217,0-16.696-7.473-16.696-16.696v-27.826c0-9.223,7.479-16.696,16.696-16.696
	s16.696,7.473,16.696,16.696v27.826C272.696,504.527,265.217,512,256,512z"/>
<path style="fill:#615349;" d="M272.696,495.304v-27.826c0-9.223-7.479-16.696-16.696-16.696V512
	C265.217,512,272.696,504.527,272.696,495.304z"/>
<path style="fill:#A1AAB3;" d="M189.217,345.043c-9.217,0-16.696-7.473-16.696-16.696v-66.783c0-9.223,7.479-16.696,16.696-16.696
	c9.217,0,16.696,7.473,16.696,16.696v66.783C205.913,337.57,198.435,345.043,189.217,345.043z"/>
<path style="fill:#8A9199;" d="M322.783,345.043c-9.217,0-16.696-7.473-16.696-16.696v-66.783c0-9.223,7.479-16.696,16.696-16.696
	s16.696,7.473,16.696,16.696v66.783C339.478,337.57,332,345.043,322.783,345.043z"/>
<path style="fill:#C5DCFD;" d="M389.565,233.739h-267.13c-27.619,0-50.087-22.468-50.087-50.087V50.087
	C72.348,22.468,94.816,0,122.435,0h267.13c27.619,0,50.087,22.468,50.087,50.087v133.565
	C439.652,211.271,417.184,233.739,389.565,233.739z"/>
<path style="fill:#B1C6E4;" d="M389.565,0H256v233.739h133.565c27.619,0,50.087-22.468,50.087-50.087V50.087
	C439.652,22.468,417.184,0,389.565,0z"/>
<path style="fill:#DBE9FD;" d="M122.435,33.391c-9.206,0-16.696,7.49-16.696,16.696v133.565c0,9.206,7.49,16.696,16.696,16.696
	h267.13c9.206,0,16.696-7.49,16.696-16.696V50.087c0-9.206-7.49-16.696-16.696-16.696H122.435z"/>
<path style="fill:#C5DCFD;" d="M389.565,33.391H256v166.957h133.565c9.206,0,16.696-7.49,16.696-16.696V50.087
	C406.261,40.881,398.771,33.391,389.565,33.391z"/>
<path style="fill:#FF6243;" d="M256,484.174c-64.445,0-116.87-52.429-116.87-116.87v-38.957c0-9.223,7.479-16.696,16.696-16.696
	h200.348c9.217,0,16.696,7.473,16.696,16.696v38.957C372.87,431.745,320.445,484.174,256,484.174z"/>
<path style="fill:#B1C6E4;" d="M322.783,166.957c-27.619,0-50.087-22.468-50.087-50.087s22.468-50.087,50.087-50.087
	s50.087,22.468,50.087,50.087S350.402,166.957,322.783,166.957z"/>
<path style="fill:#615349;" d="M322.783,100.174c-9.206,0-16.696,7.49-16.696,16.696s7.49,16.696,16.696,16.696
	c9.206,0,16.696-7.49,16.696-16.696S331.989,100.174,322.783,100.174z"/>
<path style="fill:#C5DCFD;" d="M189.217,166.957c-27.619,0-50.087-22.468-50.087-50.087s22.468-50.087,50.087-50.087
	s50.087,22.468,50.087,50.087S216.836,166.957,189.217,166.957z"/>
<path style="fill:#6E6057;" d="M189.217,100.174c-9.206,0-16.696,7.49-16.696,16.696s7.49,16.696,16.696,16.696
	s16.696-7.49,16.696-16.696S198.423,100.174,189.217,100.174z"/>
<path style="fill:#FF3501;" d="M356.174,311.652H256v172.522c64.445,0,116.87-52.429,116.87-116.87v-38.957
	C372.87,319.125,365.391,311.652,356.174,311.652z"/>
<g>
</g>
<g>
</g>
<g>
</g>
<g>
</g>
<g>
</g>
<g>
</g>
<g>
</g>
<g>
</g>
<g>
</g>
<g>
</g>
<g>
</g>
<g>
</g>
<g>
</g>
<g>
</g>
<g>
</g>
</svg>
