<?xml version="1.0" encoding="iso-8859-1"?>
<!-- Generator: Adobe Illustrator 19.0.0, SVG Export Plug-In . SVG Version: 6.00 Build 0)  -->
<svg version="1.1" id="Layer_1" xmlns="http://www.w3.org/2000/svg" xmlns:xlink="http://www.w3.org/1999/xlink" x="0px" y="0px"
	 viewBox="0 0 512 512" style="enable-background:new 0 0 512 512;" xml:space="preserve">
<path style="fill:#DBE9FD;" d="M449.391,512H62.609c-31.457,0-57.043-25.587-57.043-57.043V57.043C5.565,25.587,31.152,0,62.609,0
	h386.783c31.457,0,57.043,25.587,57.043,57.043v397.913C506.435,486.413,480.848,512,449.391,512z"/>
<path style="fill:#C5DCFD;" d="M449.391,0H256v512h193.391c31.457,0,57.043-25.587,57.043-57.043V57.043
	C506.435,25.587,480.848,0,449.391,0z"/>
<path style="fill:#A1AAB3;" d="M422.957,66.783H89.043c-9.217,0-16.696,7.473-16.696,16.696v345.043
	c0,9.223,7.479,16.696,16.696,16.696h333.913c9.217,0,16.696-7.473,16.696-16.696V83.478
	C439.652,74.256,432.174,66.783,422.957,66.783z"/>
<path style="fill:#8A9199;" d="M422.957,66.783H256v378.435h166.957c9.217,0,16.696-7.473,16.696-16.696V83.478
	C439.652,74.256,432.174,66.783,422.957,66.783z"/>
<rect x="105.739" y="100.174" style="fill:#ECEFF0;" width="300.522" height="311.652"/>
<rect x="256" y="100.174" style="fill:#C5DCFD;" width="150.261" height="311.652"/>
<path style="fill:#FF3501;" d="M356.174,166.957h-33.391c-9.217,0-16.696-7.473-16.696-16.696s7.479-16.696,16.696-16.696h33.391
	c9.217,0,16.696,7.473,16.696,16.696S365.391,166.957,356.174,166.957z"/>
<path style="fill:#9DCA40;" d="M189.217,166.957h-33.391c-9.217,0-16.696-7.473-16.696-16.696s7.479-16.696,16.696-16.696h33.391
	c9.217,0,16.696,7.473,16.696,16.696S198.435,166.957,189.217,166.957z"/>
<rect x="239.304" y="66.783" style="fill:#A1AAB3;" width="33.391" height="378.435"/>
<rect x="256" y="66.783" style="fill:#8A9199;" width="16.696" height="378.435"/>
<g>
</g>
<g>
</g>
<g>
</g>
<g>
</g>
<g>
</g>
<g>
</g>
<g>
</g>
<g>
</g>
<g>
</g>
<g>
</g>
<g>
</g>
<g>
</g>
<g>
</g>
<g>
</g>
<g>
</g>
</svg>
