<?xml version="1.0" encoding="iso-8859-1"?>
<!-- Generator: Adobe Illustrator 19.0.0, SVG Export Plug-In . SVG Version: 6.00 Build 0)  -->
<svg version="1.1" id="Layer_1" xmlns="http://www.w3.org/2000/svg" xmlns:xlink="http://www.w3.org/1999/xlink" x="0px" y="0px"
	 viewBox="0 0 512 512" style="enable-background:new 0 0 512 512;" xml:space="preserve">
<path style="fill:#ECB33D;" d="M503.399,140.675c15.523-22.93,9.456-54.054-13.553-69.657L456.83,48.719l-50.115-33.725
	c-22.851-15.445-54.133-9.377-69.657,13.553c-15.444,23.008-9.376,54.133,13.553,69.657l33.883,22.851l49.248,33.173
	C456.594,169.672,487.876,163.605,503.399,140.675z"/>
<path style="fill:#E09B33;" d="M433.743,154.228l-49.248-33.173l72.335-72.335l33.016,22.299
	c23.009,15.602,29.076,46.726,13.553,69.656C487.876,163.605,456.594,169.672,433.743,154.228z"/>
<path style="fill:#F1C94B;" d="M483.07,207.494c15.444-23.008,9.377-54.133-13.553-69.656l-60.832-40.975l-77.694-52.48
	c-22.93-15.365-54.054-9.612-69.656,13.553c-15.444,22.851-9.377,54.135,13.475,69.578l61.62,41.605l76.985,51.928
	C436.343,236.413,467.547,230.424,483.07,207.494z"/>
<path style="fill:#E8B33C;" d="M413.412,221.048l-76.985-51.928l72.257-72.257l60.832,40.975
	c22.93,15.523,28.997,46.648,13.553,69.656C467.547,230.424,436.343,236.413,413.412,221.048z"/>
<path style="fill:#C2CCD7;" d="M66.862,505.551c-17.858,0-34.65-6.954-47.273-19.583C6.954,473.34,0,456.553,0,438.69
	c0-17.858,6.954-34.65,19.588-47.279l11.818-11.818c3.135-3.135,7.389-4.898,11.818-4.898l0,0c4.43,0,8.684,1.763,11.818,4.898
	l70.91,70.921c6.529,6.529,6.529,17.112,0,23.637l-11.818,11.818C101.512,498.598,84.719,505.551,66.862,505.551z"/>
<path style="fill:#ABBDC9;" d="M125.953,450.514l-35.456-35.462l-70.912,70.912c0.001,0.001,0.003,0.003,0.003,0.003
	c12.623,12.63,29.416,19.584,47.273,19.584c17.859,0,34.65-6.954,47.273-19.583l11.818-11.818
	C132.483,467.626,132.483,457.043,125.953,450.514z"/>
<path style="fill:#F1C94B;" d="M372.944,241.127c-0.478-4.969-3.153-9.465-7.291-12.257l-56.476-38.089
	c-0.002-0.001-0.003-0.002-0.006-0.003l-56.458-38.084c-6.634-4.475-15.509-3.622-21.167,2.038l-70.606,70.606
	c-3.135,3.135-4.896,7.387-4.896,11.82c0,4.433,1.762,8.685,4.898,11.82l47.282,47.271c0.002,0.002,0.003,0.003,0.006,0.006
	l47.263,47.275c3.135,3.135,7.386,4.897,11.819,4.898h0.001c4.433,0,8.684-1.761,11.818-4.895l88.993-88.982
	C371.656,251.019,373.424,246.097,372.944,241.127z"/>
<path style="fill:#E8B33C;" d="M372.944,241.127c-0.478-4.969-3.153-9.465-7.291-12.257l-53.134-35.836L208.764,296.789
	l46.729,46.74c3.135,3.135,7.386,4.897,11.819,4.898h0.001c4.433,0,8.684-1.761,11.818-4.895l88.993-88.982
	C371.656,251.019,373.424,246.097,372.944,241.127z"/>
<path style="fill:#F6DF5A;" d="M434.846,255.718c15.523-23.087,9.455-54.213-13.553-69.656l-60.832-40.975l-77.694-52.479
	c-22.93-15.523-54.213-9.455-69.656,13.553c-15.444,22.851-9.377,54.135,13.553,69.499l61.619,41.605l76.985,51.927
	C388.198,284.716,419.402,278.569,434.846,255.718z"/>
<path style="fill:#F0CA45;" d="M365.268,269.193l-76.985-51.927l72.178-72.178l60.832,40.975
	c23.008,15.444,29.076,46.569,13.553,69.656C419.402,278.569,388.198,284.716,365.268,269.193z"/>
<path style="fill:#DBE9FD;" d="M106.261,478.084l-78.798-78.798c-17.407-17.407-17.407-45.631,0-63.038l23.639-23.639
	l141.835,141.835l-23.639,23.639C151.892,495.492,123.668,495.492,106.261,478.084z"/>
<path style="fill:#C5DCFD;" d="M66.863,438.686l39.398,39.398c17.407,17.407,45.63,17.407,63.038,0l23.639-23.639l-70.918-70.918
	L66.863,438.686z"/>
<path style="fill:#C2CCD7;" d="M51.104,312.611l141.835,141.835c0,0,70.308-23.35,70.918-23.639L74.742,241.693
	C74.453,242.302,51.104,312.611,51.104,312.611z"/>
<path style="fill:#ABBDC9;" d="M122.02,383.528l70.918,70.918c0,0,70.308-23.35,70.918-23.639l-94.557-94.557L122.02,383.528z"/>
<path style="fill:#DBE9FD;" d="M263.856,430.807L74.742,241.693l31.519-31.519c17.407-17.407,45.631-17.407,63.038,0L295.375,336.25
	c17.407,17.407,17.407,45.631,0,63.038L263.856,430.807z"/>
<path style="fill:#C5DCFD;" d="M295.375,336.25l-63.038-63.038l-63.038,63.038l94.557,94.557l31.519-31.519
	C312.782,381.879,312.782,353.657,295.375,336.25z"/>
<g>
</g>
<g>
</g>
<g>
</g>
<g>
</g>
<g>
</g>
<g>
</g>
<g>
</g>
<g>
</g>
<g>
</g>
<g>
</g>
<g>
</g>
<g>
</g>
<g>
</g>
<g>
</g>
<g>
</g>
</svg>
