<?xml version="1.0" encoding="iso-8859-1"?>
<!-- Generator: Adobe Illustrator 19.0.0, SVG Export Plug-In . SVG Version: 6.00 Build 0)  -->
<svg version="1.1" id="Layer_1" xmlns="http://www.w3.org/2000/svg" xmlns:xlink="http://www.w3.org/1999/xlink" x="0px" y="0px"
	 viewBox="0 0 512 512" style="enable-background:new 0 0 512 512;" xml:space="preserve">
<path style="fill:#FFD9B3;" d="M495.304,473.043H16.696C7.473,473.043,0,465.57,0,456.348V55.652
	c0-9.223,7.473-16.696,16.696-16.696h478.609c9.217,0,16.696,7.473,16.696,16.696v400.696
	C512,465.57,504.521,473.043,495.304,473.043z"/>
<path style="fill:#FFC080;" d="M495.304,38.957H256v434.087h239.304c9.217,0,16.696-7.473,16.696-16.696V55.652
	C512,46.429,504.521,38.957,495.304,38.957z"/>
<path style="fill:#E79D2E;" d="M33.391,439.652h445.217V72.348H33.391V439.652z"/>
<rect x="256" y="72.348" style="fill:#D8842A;" width="222.609" height="367.304"/>
<path style="fill:#FFD9B3;" d="M512,172.522V139.13H411.826V38.957h-33.391V139.13H233.739V38.957h-33.391V139.13H0v33.391h100.174
	v66.783H0v33.391h200.348v66.783H0v33.391h100.174v100.174h33.391V372.87h144.696v100.174h33.391V372.87H512v-33.391H411.826
	v-66.783H512v-33.391H311.652v-66.783H512z M378.435,339.478H233.739v-66.783h144.696V339.478z M278.261,239.304H133.565v-66.783
	h144.696V239.304z"/>
<polygon style="fill:#FFC080;" points="411.826,38.957 378.435,38.957 378.435,139.13 256,139.13 256,172.522 278.261,172.522 
	278.261,239.304 256,239.304 256,272.696 378.435,272.696 378.435,339.478 256,339.478 256,372.87 278.261,372.87 278.261,473.043 
	311.652,473.043 311.652,372.87 512,372.87 512,339.478 411.826,339.478 411.826,272.696 512,272.696 512,239.304 311.652,239.304 
	311.652,172.522 512,172.522 512,139.13 411.826,139.13 "/>
<g>
</g>
<g>
</g>
<g>
</g>
<g>
</g>
<g>
</g>
<g>
</g>
<g>
</g>
<g>
</g>
<g>
</g>
<g>
</g>
<g>
</g>
<g>
</g>
<g>
</g>
<g>
</g>
<g>
</g>
</svg>
