<?xml version="1.0" encoding="iso-8859-1"?>
<!-- Generator: Adobe Illustrator 19.0.0, SVG Export Plug-In . SVG Version: 6.00 Build 0)  -->
<svg version="1.1" id="Layer_1" xmlns="http://www.w3.org/2000/svg" xmlns:xlink="http://www.w3.org/1999/xlink" x="0px" y="0px"
	 viewBox="0 0 512 512" style="enable-background:new 0 0 512 512;" xml:space="preserve">
<path style="fill:#BFC5CC;" d="M208.783,97.473c-4.272,0-8.544-1.631-11.804-4.892L132.892,28.5c-6.521-6.516-6.521-17.087,0-23.609
	c6.521-6.521,17.087-6.521,23.609,0l64.087,64.081c6.521,6.516,6.521,17.087,0,23.609C217.326,95.842,213.054,97.473,208.783,97.473
	z"/>
<path style="fill:#AFB9BF;" d="M303.218,97.473c-4.272,0-8.544-1.631-11.804-4.892c-6.521-6.521-6.521-17.092,0-23.609
	l64.087-64.081c6.521-6.521,17.087-6.521,23.609,0s6.521,17.092,0,23.609l-64.087,64.081
	C311.761,95.842,307.49,97.473,303.218,97.473z"/>
<path style="fill:#DBE9FD;" d="M256,44.522c-46.032,0-83.478,37.446-83.478,83.478c0,9.223,7.479,16.696,16.696,16.696h133.565
	c9.217,0,16.696-7.473,16.696-16.696C339.478,81.968,302.032,44.522,256,44.522z"/>
<path style="fill:#C5DCFD;" d="M322.783,144.696c9.217,0,16.696-7.473,16.696-16.696c0-46.032-37.446-83.478-83.478-83.478v100.174
	H322.783z"/>
<path style="fill:#FF6243;" d="M461.913,512H50.087C22.468,512,0,489.532,0,461.913V161.392c0-27.619,22.468-50.087,50.087-50.087
	h411.826c27.619,0,50.087,22.468,50.087,50.087v300.522C512,489.532,489.532,512,461.913,512z"/>
<path style="fill:#FF3501;" d="M461.913,111.305H256V512h205.913C489.532,512,512,489.532,512,461.913V161.392
	C512,133.773,489.532,111.305,461.913,111.305z"/>
<path style="fill:#6E6057;" d="M328.348,445.218H83.478c-9.217,0-16.696-7.473-16.696-16.696V194.783
	c0-9.223,7.479-16.696,16.696-16.696h244.87c9.217,0,16.696,7.473,16.696,16.696v233.739
	C345.044,437.745,337.565,445.218,328.348,445.218z"/>
<g>
	<circle style="fill:#C5DCFD;" cx="411.826" cy="211.479" r="16.696"/>
	<circle style="fill:#C5DCFD;" cx="411.826" cy="278.261" r="16.696"/>
	<path style="fill:#C5DCFD;" d="M428.522,378.435h-33.391c-9.217,0-16.696-7.473-16.696-16.696c0-9.223,7.479-16.696,16.696-16.696
		h33.391c9.217,0,16.696,7.473,16.696,16.696C445.217,370.962,437.739,378.435,428.522,378.435z"/>
	<path style="fill:#C5DCFD;" d="M428.522,445.218h-33.391c-9.217,0-16.696-7.473-16.696-16.696s7.479-16.696,16.696-16.696h33.391
		c9.217,0,16.696,7.473,16.696,16.696S437.739,445.218,428.522,445.218z"/>
</g>
<path style="fill:#615349;" d="M328.348,178.087H256v267.13h72.348c9.217,0,16.696-7.473,16.696-16.696V194.783
	C345.044,185.56,337.565,178.087,328.348,178.087z"/>
<g>
</g>
<g>
</g>
<g>
</g>
<g>
</g>
<g>
</g>
<g>
</g>
<g>
</g>
<g>
</g>
<g>
</g>
<g>
</g>
<g>
</g>
<g>
</g>
<g>
</g>
<g>
</g>
<g>
</g>
</svg>
