<?xml version="1.0" encoding="iso-8859-1"?>
<!-- Generator: Adobe Illustrator 19.0.0, SVG Export Plug-In . SVG Version: 6.00 Build 0)  -->
<svg version="1.1" id="Layer_1" xmlns="http://www.w3.org/2000/svg" xmlns:xlink="http://www.w3.org/1999/xlink" x="0px" y="0px"
	 viewBox="0 0 512 512" style="enable-background:new 0 0 512 512;" xml:space="preserve">
<g>
	<path style="fill:#6E6057;" d="M150.261,133.565H83.478c-9.217,0-16.696-7.479-16.696-16.696s7.479-16.696,16.696-16.696h66.783
		c9.217,0,16.696,7.479,16.696,16.696S159.478,133.565,150.261,133.565z"/>
	<path style="fill:#6E6057;" d="M150.261,200.348H83.478c-9.217,0-16.696-7.479-16.696-16.696s7.479-16.696,16.696-16.696h66.783
		c9.217,0,16.696,7.479,16.696,16.696S159.478,200.348,150.261,200.348z"/>
</g>
<path style="fill:#EFBE44;" d="M495.304,267.13H150.261c-9.217,0-16.696-7.479-16.696-16.696V50.087
	c0-9.217,7.479-16.696,16.696-16.696h345.043c9.217,0,16.696,7.479,16.696,16.696v200.348
	C512,259.652,504.521,267.13,495.304,267.13z"/>
<path style="fill:#E4A738;" d="M495.304,33.391H322.783V267.13h172.522c9.217,0,16.696-7.479,16.696-16.696V50.087
	C512,40.87,504.521,33.391,495.304,33.391z"/>
<path style="fill:#A1AAB3;" d="M83.478,512H16.696C7.479,512,0,504.521,0,495.304V16.696C0,7.479,7.479,0,16.696,0h66.783
	c9.217,0,16.696,7.479,16.696,16.696v478.609C100.174,504.521,92.695,512,83.478,512z"/>
<g>
	<path style="fill:#95673F;" d="M306.087,200.348h-89.043c-9.217,0-16.696-7.479-16.696-16.696s7.479-16.696,16.696-16.696h89.043
		c9.217,0,16.696,7.479,16.696,16.696S315.304,200.348,306.087,200.348z"/>
	<path style="fill:#95673F;" d="M417.391,133.565H217.043c-9.217,0-16.696-7.479-16.696-16.696s7.479-16.696,16.696-16.696h200.348
		c9.217,0,16.696,7.479,16.696,16.696S426.608,133.565,417.391,133.565z"/>
</g>
<path style="fill:#875334;" d="M417.391,100.174h-94.609v33.391h94.609c9.217,0,16.696-7.479,16.696-16.696
	S426.608,100.174,417.391,100.174z"/>
<path style="fill:#8A9199;" d="M83.478,0H50.087v512h33.391c9.217,0,16.696-7.479,16.696-16.696V16.696
	C100.174,7.479,92.695,0,83.478,0z"/>
<g>
</g>
<g>
</g>
<g>
</g>
<g>
</g>
<g>
</g>
<g>
</g>
<g>
</g>
<g>
</g>
<g>
</g>
<g>
</g>
<g>
</g>
<g>
</g>
<g>
</g>
<g>
</g>
<g>
</g>
</svg>
