<?xml version="1.0" encoding="iso-8859-1"?>
<!-- Generator: Adobe Illustrator 19.0.0, SVG Export Plug-In . SVG Version: 6.00 Build 0)  -->
<svg version="1.1" id="Layer_1" xmlns="http://www.w3.org/2000/svg" xmlns:xlink="http://www.w3.org/1999/xlink" x="0px" y="0px"
	 viewBox="0 0 512 512" style="enable-background:new 0 0 512 512;" xml:space="preserve">
<path style="fill:#95673F;" d="M256,489.739c-9.217,0-16.696-7.479-16.696-16.696V239.304c0-9.217,7.479-16.696,16.696-16.696
	s16.696,7.479,16.696,16.696v233.739C272.696,482.261,265.217,489.739,256,489.739z"/>
<path style="fill:#875334;" d="M272.696,473.043V239.304c0-9.217-7.479-16.696-16.696-16.696v267.13
	C265.217,489.739,272.696,482.261,272.696,473.043z"/>
<g>
	<path style="fill:#95673F;" d="M16.696,489.739C7.479,489.739,0,482.261,0,473.043V372.87c0-9.217,7.479-16.696,16.696-16.696
		s16.696,7.479,16.696,16.696v100.174C33.391,482.261,25.913,489.739,16.696,489.739z"/>
	<path style="fill:#95673F;" d="M116.87,489.739c-9.217,0-16.696-7.479-16.696-16.696V372.87c0-9.217,7.479-16.696,16.696-16.696
		s16.696,7.479,16.696,16.696v100.174C133.565,482.261,126.087,489.739,116.87,489.739z"/>
</g>
<g>
	<path style="fill:#875334;" d="M495.304,489.739c-9.217,0-16.696-7.479-16.696-16.696V372.87c0-9.217,7.479-16.696,16.696-16.696
		c9.217,0,16.696,7.479,16.696,16.696v100.174C512,482.261,504.521,489.739,495.304,489.739z"/>
	<path style="fill:#875334;" d="M395.13,489.739c-9.217,0-16.696-7.479-16.696-16.696V372.87c0-9.217,7.479-16.696,16.696-16.696
		c9.217,0,16.696,7.479,16.696,16.696v100.174C411.826,482.261,404.348,489.739,395.13,489.739z"/>
</g>
<path style="fill:#B1C6E4;" d="M322.783,189.217c-9.217,0-16.696-7.479-16.696-16.696v-66.783c0-9.223,7.479-16.696,16.696-16.696
	s16.696,7.473,16.696,16.696v66.783C339.478,181.739,332,189.217,322.783,189.217z"/>
<path style="fill:#C5DCFD;" d="M189.217,189.217c-9.217,0-16.696-7.479-16.696-16.696v-66.783c0-9.223,7.479-16.696,16.696-16.696
	c9.217,0,16.696,7.473,16.696,16.696v66.783C205.913,181.739,198.435,189.217,189.217,189.217z"/>
<path style="fill:#FF6243;" d="M439.652,205.913v33.391c0,9.238-7.457,16.696-16.696,16.696H89.043
	c-9.238,0-16.696-7.457-16.696-16.696v-33.391c0-21.259,13.357-39.402,32.056-46.748c5.565-2.115,11.687-3.339,18.031-3.339h267.13
	C417.169,155.826,439.652,178.31,439.652,205.913z"/>
<path style="fill:#FF3501;" d="M389.565,155.826H256V256h166.957c9.217,0,16.696-7.479,16.696-16.696v-33.391
	C439.652,178.294,417.184,155.826,389.565,155.826z"/>
<path style="fill:#95673F;" d="M16.696,322.783C7.479,322.783,0,315.304,0,306.087V105.739c0-9.223,7.479-16.696,16.696-16.696
	s16.696,7.473,16.696,16.696v200.348C33.391,315.304,25.913,322.783,16.696,322.783z"/>
<path style="fill:#875334;" d="M495.304,322.783c-9.217,0-16.696-7.479-16.696-16.696V105.739c0-9.223,7.479-16.696,16.696-16.696
	c9.217,0,16.696,7.473,16.696,16.696v200.348C512,315.304,504.521,322.783,495.304,322.783z"/>
<path style="fill:#DBE9FD;" d="M189.217,122.435c-27.619,0-50.087-22.468-50.087-50.087V38.957c0-9.223,7.479-16.696,16.696-16.696
	h66.783c9.217,0,16.696,7.473,16.696,16.696v33.391C239.304,99.967,216.836,122.435,189.217,122.435z"/>
<path style="fill:#C5DCFD;" d="M322.783,122.435c-27.619,0-50.087-22.468-50.087-50.087V38.957c0-9.223,7.479-16.696,16.696-16.696
	h66.783c9.217,0,16.696,7.473,16.696,16.696v33.391C372.87,99.967,350.402,122.435,322.783,122.435z"/>
<path style="fill:#FFD9B3;" d="M276.035,155.826L256,190.553L218.157,256l-15.026,25.934c-3.117,4.675-8.348,7.457-13.913,7.457
	s-10.797-2.783-13.913-7.457L160.278,256l-55.875-96.835c5.565-2.115,11.687-3.339,18.031-3.339H276.035z"/>
<polygon style="fill:#FFC080;" points="276.035,155.826 256,190.553 256,155.826 "/>
<path style="fill:#FF6243;" d="M133.565,389.565H0V289.391h116.87c9.22,0,16.696,7.475,16.696,16.696V389.565z"/>
<path style="fill:#FF3501;" d="M512,389.565H378.435v-83.478c0-9.22,7.475-16.696,16.696-16.696H512V389.565z"/>
<path style="fill:#95673F;" d="M322.783,489.739H189.217c-9.217,0-16.696-7.479-16.696-16.696s7.479-16.696,16.696-16.696h133.565
	c9.217,0,16.696,7.479,16.696,16.696S332,489.739,322.783,489.739z"/>
<path style="fill:#875334;" d="M322.783,456.348H256v33.391h66.783c9.217,0,16.696-7.479,16.696-16.696S332,456.348,322.783,456.348
	z"/>
<g>
</g>
<g>
</g>
<g>
</g>
<g>
</g>
<g>
</g>
<g>
</g>
<g>
</g>
<g>
</g>
<g>
</g>
<g>
</g>
<g>
</g>
<g>
</g>
<g>
</g>
<g>
</g>
<g>
</g>
</svg>
