<?xml version="1.0" encoding="iso-8859-1"?>
<!-- Generator: Adobe Illustrator 19.0.0, SVG Export Plug-In . SVG Version: 6.00 Build 0)  -->
<svg version="1.1" id="Layer_1" xmlns="http://www.w3.org/2000/svg" xmlns:xlink="http://www.w3.org/1999/xlink" x="0px" y="0px"
	 viewBox="0 0 512 512" style="enable-background:new 0 0 512 512;" xml:space="preserve">
<path style="fill:#6E6057;" d="M443.13,439.652H68.87c-37.973,0-68.87-30.897-68.87-68.87V141.217
	c0-37.973,30.897-68.87,68.87-68.87H443.13c37.978,0,68.87,30.897,68.87,68.87v229.565C512,408.755,481.109,439.652,443.13,439.652z
	"/>
<path style="fill:#615349;" d="M443.13,72.348H256v367.304h187.13c37.978,0,68.87-30.897,68.87-68.87V141.217
	C512,103.245,481.109,72.348,443.13,72.348z"/>
<path style="fill:#DBE9FD;" d="M361.739,372.87H150.261c-9.223,0-16.696-7.473-16.696-16.696V155.826
	c0-9.223,7.473-16.696,16.696-16.696h211.478c9.223,0,16.696,7.473,16.696,16.696v200.348
	C378.435,365.397,370.962,372.87,361.739,372.87z"/>
<path style="fill:#C5DCFD;" d="M361.739,139.13H256V372.87h105.739c9.223,0,16.696-7.473,16.696-16.696V155.826
	C378.435,146.603,370.962,139.13,361.739,139.13z"/>
<path style="fill:#DBE9FD;" d="M83.478,306.087c-9.223,0-16.696-7.473-16.696-16.696v-66.783c0-9.223,7.473-16.696,16.696-16.696
	s16.696,7.473,16.696,16.696v66.783C100.174,298.614,92.701,306.087,83.478,306.087z"/>
<circle style="fill:#C5DCFD;" cx="428.522" cy="256" r="16.696"/>
<path style="fill:#9DCA40;" d="M301.195,238.631l-33.37-33.37c-3.275-3.29-7.743-4.913-11.825-4.913
	c-4.279,0-8.636,1.71-11.825,4.912l-33.37,33.37c-6.521,6.516-6.521,17.092,0,23.609c6.521,6.521,17.087,6.521,23.609,0l4.892-4.892
	v37.61c0,9.223,7.473,16.696,16.696,16.696c9.223,0,16.696-7.473,16.696-16.696v-37.609l4.892,4.892
	c6.522,6.522,17.086,6.522,23.609,0C307.718,255.723,307.718,245.147,301.195,238.631z"/>
<path style="fill:#8EB043;" d="M272.696,294.957v-37.609l4.892,4.892c6.521,6.521,17.087,6.521,23.609,0
	c6.521-6.516,6.521-17.092,0-23.609l-33.37-33.37c-3.276-3.29-7.743-4.913-11.826-4.913v111.304
	C265.223,311.652,272.696,304.179,272.696,294.957z"/>
<g>
</g>
<g>
</g>
<g>
</g>
<g>
</g>
<g>
</g>
<g>
</g>
<g>
</g>
<g>
</g>
<g>
</g>
<g>
</g>
<g>
</g>
<g>
</g>
<g>
</g>
<g>
</g>
<g>
</g>
</svg>
