<?xml version="1.0" encoding="iso-8859-1"?>
<!-- Generator: Adobe Illustrator 19.0.0, SVG Export Plug-In . SVG Version: 6.00 Build 0)  -->
<svg version="1.1" id="Layer_1" xmlns="http://www.w3.org/2000/svg" xmlns:xlink="http://www.w3.org/1999/xlink" x="0px" y="0px"
	 viewBox="0 0 512 512" style="enable-background:new 0 0 512 512;" xml:space="preserve">
<path style="fill:#DBE9FD;" d="M439.48,492.945l-25.901-181.29c-2.431-17.017-2.598-22.363-6.361-33.391H104.782
	c-3.774,11.049-3.939,16.403-6.366,33.391L72.52,492.945c-1.435,10.046,6.379,19.054,16.527,19.054h333.907
	C433.103,512,440.916,502.993,439.48,492.945z"/>
<path style="fill:#C5DCFD;" d="M413.579,311.656c-2.431-17.017-2.597-22.363-6.361-33.391H256.001V512h166.952
	c10.149,0,17.962-9.008,16.527-19.054L413.579,311.656z"/>
<path style="fill:#E79D2E;" d="M407.219,278.265c-6.9-20.215-21.369-37.225-40.829-46.956
	c-16.603-8.293-26.913-24.989-26.913-43.543V87.051c0-42.532-29.913-79.465-69.575-85.912
	c-51.572-8.441-97.378,31.136-97.378,82.346v104.28c0,18.554-10.316,35.238-26.913,43.543c-19.456,9.73-33.925,26.74-40.829,46.956
	c-3.774,11.049-3.939,16.403-6.367,33.391h315.164C411.148,294.639,410.983,289.293,407.219,278.265z"/>
<path style="fill:#D8842A;" d="M269.902,1.139c-4.701-0.77-9.327-1.01-13.902-1.008v311.525h157.579
	c-2.431-17.017-2.597-22.363-6.361-33.391c-6.9-20.215-21.369-37.225-40.829-46.956c-16.603-8.293-26.913-24.989-26.913-43.543
	V87.051C339.477,44.519,309.565,7.584,269.902,1.139z"/>
<circle style="fill:#95673F;" cx="255.996" cy="83.488" r="16.695"/>
<path style="fill:#875334;" d="M272.696,83.486c0-9.22-7.475-16.695-16.695-16.695v33.391
	C265.222,100.181,272.696,92.706,272.696,83.486z"/>
<g>
</g>
<g>
</g>
<g>
</g>
<g>
</g>
<g>
</g>
<g>
</g>
<g>
</g>
<g>
</g>
<g>
</g>
<g>
</g>
<g>
</g>
<g>
</g>
<g>
</g>
<g>
</g>
<g>
</g>
</svg>
