<?xml version="1.0" encoding="iso-8859-1"?>
<!-- Generator: Adobe Illustrator 19.0.0, SVG Export Plug-In . SVG Version: 6.00 Build 0)  -->
<svg version="1.1" id="Layer_1" xmlns="http://www.w3.org/2000/svg" xmlns:xlink="http://www.w3.org/1999/xlink" x="0px" y="0px"
	 viewBox="0 0 512 512" style="enable-background:new 0 0 512 512;" xml:space="preserve">
<path style="fill:#9DB0CA;" d="M487.476,339.534c-6.213,0-11.956-3.463-14.834-9.042c-27.589-53.494-92.833-77.325-148.522-54.258
	l-15.497,6.429c-5.152,2.136-11.031,1.559-15.669-1.537c-4.638-3.098-7.424-8.307-7.424-13.885v-83.588
	c0-9.806,0.948-19.596,2.818-29.102c1.145-5.821,5.235-10.436,10.538-12.418c38.804-15.665,83.502-15.087,122.713,1.603
	c37.013,15.753,65.199,44.009,79.367,79.559c13.387,33.608,14.196,70.913,2.277,105.046c-2.199,6.299-7.937,10.684-14.592,11.152
	C488.257,339.521,487.865,339.534,487.476,339.534z"/>
<path style="fill:#60AED5;" d="M67.193,377.197c-8.658,0-17.318-1.706-25.558-5.12c-16.485-6.827-29.322-19.666-36.147-36.151
	c-6.825-16.479-6.824-34.63,0.007-51.111c6.829-16.477,19.664-29.312,36.145-36.138l154.022-63.799
	c5.15-2.133,11.028-1.555,15.665,1.544c4.636,3.098,7.42,8.306,7.42,13.882v108.433c0,6.753-4.068,12.841-10.307,15.425
	L92.751,372.078C84.51,375.49,75.851,377.197,67.193,377.197z"/>
<path style="fill:#6BBAE2;" d="M252.137,512c-36.824,0-66.783-29.959-66.783-66.783V233.739c0-9.22,7.475-16.696,16.696-16.696
	c9.22,0,16.696,7.475,16.696,16.696c0,18.412,14.979,33.391,33.391,33.391s33.391-14.979,33.391-33.391
	c0-9.22,7.475-16.696,16.696-16.696s16.696,7.475,16.696,16.696v211.478C318.92,482.041,288.961,512,252.137,512z"/>
<path style="fill:#60AED5;" d="M302.224,217.043c-9.22,0-16.696,7.475-16.696,16.696c0,16.849-12.547,30.816-28.788,33.066v245.018
	c34.682-2.375,62.179-31.331,62.179-66.606V233.739C318.92,224.519,311.445,217.043,302.224,217.043z"/>
<path style="fill:#DBE9FD;" d="M302.224,250.435c-9.22,0-16.696-7.475-16.696-16.696c0-18.412-14.979-33.391-33.391-33.391
	s-33.391,14.979-33.391,33.391c0,9.22-7.475,16.696-16.696,16.696c-9.22,0-16.696-7.475-16.696-16.696V157.05
	c0-42.169,17.537-83.656,48.116-113.826C261.768,15.305,298.04,0,335.797,0c0.627,0,1.251,0.004,1.88,0.012
	c36.174,0.494,70.951,14.02,97.928,38.083c4.98,4.441,6.836,11.421,4.723,17.749s-7.791,10.79-14.441,11.347
	c-51.704,4.338-94.785,42.909-104.764,93.796c-0.039,0.197-0.08,0.392-0.126,0.584c-1.379,7.207-2.078,14.632-2.078,22.081v50.087
	C318.92,242.96,311.445,250.435,302.224,250.435z"/>
<path style="fill:#C5DCFD;" d="M435.606,38.095c-26.977-24.063-61.754-37.589-97.928-38.083C337.048,0.004,336.425,0,335.797,0
	c-28.061,0-55.299,8.46-79.056,24.263v176.41c16.24,2.251,28.788,16.217,28.788,33.066c0,9.22,7.475,16.696,16.696,16.696
	s16.696-7.475,16.696-16.696v-50.087c0-7.447,0.699-14.874,2.078-22.081c0.046-0.194,0.087-0.388,0.126-0.584
	c9.98-50.887,53.06-89.458,104.764-93.796c6.649-0.558,12.327-5.02,14.441-11.347C442.442,49.516,440.586,42.536,435.606,38.095z"/>
<path style="fill:#B1C6E4;" d="M252.137,299.409c-36.826,0-66.783-29.956-66.783-66.783s29.956-66.783,66.783-66.783
	s66.783,29.956,66.783,66.783S288.964,299.409,252.137,299.409z"/>
<path style="fill:#9DB0CA;" d="M318.92,232.626c0-36.826-29.956-66.783-66.783-66.783v133.565
	C288.964,299.409,318.92,269.452,318.92,232.626z"/>
<path style="fill:#DBE9FD;" d="M252.137,199.235c-18.413,0-33.391,14.978-33.391,33.391s14.978,33.391,33.391,33.391
	s33.391-14.978,33.391-33.391S270.551,199.235,252.137,199.235z"/>
<path style="fill:#C5DCFD;" d="M285.529,232.626c0-18.413-14.978-33.391-33.391-33.391v66.783
	C270.551,266.017,285.529,251.039,285.529,232.626z"/>
<g>
</g>
<g>
</g>
<g>
</g>
<g>
</g>
<g>
</g>
<g>
</g>
<g>
</g>
<g>
</g>
<g>
</g>
<g>
</g>
<g>
</g>
<g>
</g>
<g>
</g>
<g>
</g>
<g>
</g>
</svg>
