<?xml version="1.0" encoding="iso-8859-1"?>
<!-- Generator: Adobe Illustrator 19.0.0, SVG Export Plug-In . SVG Version: 6.00 Build 0)  -->
<svg version="1.1" id="Layer_1" xmlns="http://www.w3.org/2000/svg" xmlns:xlink="http://www.w3.org/1999/xlink" x="0px" y="0px"
	 viewBox="0 0 512 512" style="enable-background:new 0 0 512 512;" xml:space="preserve">
<path style="fill:#6BBAE2;" d="M389.043,512H122.957c-27.903,0-50.609-22.706-50.609-50.609V50.609
	C72.348,22.706,95.054,0,122.957,0h266.088c27.902,0,50.608,22.706,50.608,50.609v410.783C439.652,489.294,416.946,512,389.043,512z
	"/>
<path style="fill:#60AED5;" d="M389.043,0H256v512h133.043c27.903,0,50.609-22.706,50.609-50.609V50.609
	C439.652,22.706,416.946,0,389.043,0z"/>
<path style="fill:#6E6057;" d="M256,166.957c-27.619,0-50.087-22.468-50.087-50.087S228.381,66.783,256,66.783
	s50.087,22.468,50.087,50.087S283.619,166.957,256,166.957z"/>
<path style="fill:#615349;" d="M306.087,116.87c0-27.619-22.468-50.087-50.087-50.087v100.174
	C283.619,166.957,306.087,144.489,306.087,116.87z"/>
<path style="fill:#6E6057;" d="M256,445.217c-64.445,0-116.87-52.424-116.87-116.87s52.424-116.87,116.87-116.87
	s116.87,52.424,116.87,116.87S320.445,445.217,256,445.217z"/>
<path style="fill:#615349;" d="M372.87,328.348c0-64.445-52.424-116.87-116.87-116.87v233.739
	C320.445,445.217,372.87,392.793,372.87,328.348z"/>
<path style="fill:#DBE9FD;" d="M256,244.87c-46.032,0-83.478,37.446-83.478,83.478s37.446,83.478,83.478,83.478
	s83.478-37.446,83.478-83.478S302.032,244.87,256,244.87z"/>
<path style="fill:#C5DCFD;" d="M339.478,328.348c0-46.032-37.446-83.478-83.478-83.478v166.957
	C302.032,411.826,339.478,374.38,339.478,328.348z"/>
<circle style="fill:#6E6057;" cx="155.826" cy="83.478" r="16.696"/>
<circle style="fill:#615349;" cx="356.174" cy="83.478" r="16.696"/>
<path style="fill:#DBE9FD;" d="M256,100.174c-9.206,0-16.696,7.49-16.696,16.696s7.49,16.696,16.696,16.696
	s16.696-7.49,16.696-16.696S265.206,100.174,256,100.174z"/>
<path style="fill:#C5DCFD;" d="M272.696,116.87c0-9.206-7.49-16.696-16.696-16.696v33.391
	C265.206,133.565,272.696,126.076,272.696,116.87z"/>
<path style="fill:#6E6057;" d="M256,378.435c-27.619,0-50.087-22.468-50.087-50.087s22.468-50.087,50.087-50.087
	s50.087,22.468,50.087,50.087S283.619,378.435,256,378.435z"/>
<path style="fill:#615349;" d="M306.087,328.348c0-27.619-22.468-50.087-50.087-50.087v100.174
	C283.619,378.435,306.087,355.967,306.087,328.348z"/>
<g>
</g>
<g>
</g>
<g>
</g>
<g>
</g>
<g>
</g>
<g>
</g>
<g>
</g>
<g>
</g>
<g>
</g>
<g>
</g>
<g>
</g>
<g>
</g>
<g>
</g>
<g>
</g>
<g>
</g>
</svg>
