<?xml version="1.0" encoding="iso-8859-1"?>
<!-- Generator: Adobe Illustrator 19.0.0, SVG Export Plug-In . SVG Version: 6.00 Build 0)  -->
<svg version="1.1" id="Layer_1" xmlns="http://www.w3.org/2000/svg" xmlns:xlink="http://www.w3.org/1999/xlink" x="0px" y="0px"
	 viewBox="0 0 512 512" style="enable-background:new 0 0 512 512;" xml:space="preserve">
<path style="fill:#A1AAB3;" d="M389.565,467.478h-267.13c-9.217,0-16.696-7.473-16.696-16.696s7.479-16.696,16.696-16.696h267.13
	c9.217,0,16.696,7.473,16.696,16.696S398.782,467.478,389.565,467.478z"/>
<path style="fill:#8A9199;" d="M389.565,434.087H256v33.391h133.565c9.217,0,16.696-7.473,16.696-16.696
	S398.782,434.087,389.565,434.087z"/>
<path style="fill:#A1AAB3;" d="M389.565,367.304h-267.13c-9.217,0-16.696-7.473-16.696-16.696s7.479-16.696,16.696-16.696h267.13
	c9.217,0,16.696,7.473,16.696,16.696S398.782,367.304,389.565,367.304z"/>
<path style="fill:#8A9199;" d="M389.565,333.913H256v33.391h133.565c9.217,0,16.696-7.473,16.696-16.696
	S398.782,333.913,389.565,333.913z"/>
<path style="fill:#A1AAB3;" d="M389.565,267.13h-267.13c-9.217,0-16.696-7.473-16.696-16.696s7.479-16.696,16.696-16.696h267.13
	c9.217,0,16.696,7.473,16.696,16.696S398.782,267.13,389.565,267.13z"/>
<path style="fill:#8A9199;" d="M389.565,233.739H256v33.391h133.565c9.217,0,16.696-7.473,16.696-16.696
	S398.782,233.739,389.565,233.739z"/>
<path style="fill:#A1AAB3;" d="M389.565,166.957h-267.13c-9.217,0-16.696-7.473-16.696-16.696s7.479-16.696,16.696-16.696h267.13
	c9.217,0,16.696,7.473,16.696,16.696S398.782,166.957,389.565,166.957z"/>
<path style="fill:#8A9199;" d="M389.565,133.565H256v33.391h133.565c9.217,0,16.696-7.473,16.696-16.696
	S398.782,133.565,389.565,133.565z"/>
<path style="fill:#6BBAE2;" d="M389.565,512c-9.217,0-16.696-7.473-16.696-16.696V50.087c0-9.206-7.49-16.696-16.696-16.696H155.826
	c-9.206,0-16.696,7.49-16.696,16.696v445.217c0,9.223-7.479,16.696-16.696,16.696s-16.696-7.473-16.696-16.696V50.087
	C105.739,22.468,128.207,0,155.826,0h200.348c27.619,0,50.087,22.468,50.087,50.087v445.217
	C406.261,504.527,398.782,512,389.565,512z"/>
<path style="fill:#60AED5;" d="M356.174,0H256v33.391h100.174c9.206,0,16.696,7.49,16.696,16.696v445.217
	c0,9.223,7.479,16.696,16.696,16.696c9.217,0,16.696-7.473,16.696-16.696V50.087C406.261,22.468,383.793,0,356.174,0z"/>
<g>
</g>
<g>
</g>
<g>
</g>
<g>
</g>
<g>
</g>
<g>
</g>
<g>
</g>
<g>
</g>
<g>
</g>
<g>
</g>
<g>
</g>
<g>
</g>
<g>
</g>
<g>
</g>
<g>
</g>
</svg>
