<?xml version="1.0" encoding="iso-8859-1"?>
<!-- Generator: Adobe Illustrator 19.0.0, SVG Export Plug-In . SVG Version: 6.00 Build 0)  -->
<svg version="1.1" id="Layer_1" xmlns="http://www.w3.org/2000/svg" xmlns:xlink="http://www.w3.org/1999/xlink" x="0px" y="0px"
	 viewBox="0 0 512 512" style="enable-background:new 0 0 512 512;" xml:space="preserve">
<path style="fill:#6BBAE2;" d="M410.827,512H101.173C45.385,512,0,466.609,0,410.827V101.173C0,45.391,45.385,0,101.173,0h309.652
	C466.609,0,512,45.391,512,101.173v309.652C512,466.609,466.609,512,410.827,512z"/>
<path style="fill:#60AED5;" d="M410.827,0H256v512h154.827C466.609,512,512,466.609,512,410.827V101.173
	C512,45.391,466.609,0,410.827,0z"/>
<path style="fill:#DBE9FD;" d="M316.995,66.783H161.614c-4.786,0-9.683,0.445-14.358,1.224c-7.903,1.447-13.69,8.348-13.69,16.473
	v344.042c0,9.238,7.457,16.696,16.696,16.696h33.391c9.238,0,16.696-7.457,16.696-16.696v-116.87h116.647
	c52.313,0,94.831-42.518,94.831-94.831v-55.207C411.826,109.301,369.308,66.783,316.995,66.783z"/>
<path style="fill:#6BBAE2;" d="M316.995,133.565h-99.951c-4.452,0-8.682,1.67-11.798,4.897c-3.117,3.117-4.897,7.346-4.897,11.798
	v77.913c0,9.238,7.457,16.696,16.696,16.696h99.951c15.471,0,28.049-12.577,28.049-28.049v-55.207
	C345.043,146.143,332.466,133.565,316.995,133.565z"/>
<path style="fill:#C5DCFD;" d="M411.826,161.614v55.207c0,52.313-42.518,94.831-94.831,94.831H256V66.783h60.995
	C369.308,66.783,411.826,109.301,411.826,161.614z"/>
<path style="fill:#60AED5;" d="M345.043,161.614v55.207c0,15.471-12.577,28.049-28.049,28.049H256V133.565h60.995
	C332.466,133.565,345.043,146.143,345.043,161.614z"/>
<g>
</g>
<g>
</g>
<g>
</g>
<g>
</g>
<g>
</g>
<g>
</g>
<g>
</g>
<g>
</g>
<g>
</g>
<g>
</g>
<g>
</g>
<g>
</g>
<g>
</g>
<g>
</g>
<g>
</g>
</svg>
