<?xml version="1.0" encoding="iso-8859-1"?>
<!-- Generator: Adobe Illustrator 19.0.0, SVG Export Plug-In . SVG Version: 6.00 Build 0)  -->
<svg version="1.1" id="Layer_1" xmlns="http://www.w3.org/2000/svg" xmlns:xlink="http://www.w3.org/1999/xlink" x="0px" y="0px"
	 viewBox="0 0 512 512" style="enable-background:new 0 0 512 512;" xml:space="preserve">
<path style="fill:#FF6243;" d="M328.348,0H183.652c-64.445,0-116.87,52.424-116.87,116.87v225.457
	c0,9.217,7.479,16.696,16.696,16.696h345.043c9.217,0,16.696-7.479,16.696-16.696V116.87C445.217,52.424,392.793,0,328.348,0z"/>
<path style="fill:#FF3501;" d="M328.348,0H256v359.022h172.522c9.217,0,16.696-7.479,16.696-16.696V116.87
	C445.217,52.424,392.793,0,328.348,0z"/>
<path style="fill:#6E6057;" d="M150.261,512H83.478c-9.217,0-16.696-7.479-16.696-16.696v-66.783
	c0-9.217,7.479-16.696,16.696-16.696h66.783c9.217,0,16.696,7.479,16.696,16.696v66.783C166.957,504.521,159.478,512,150.261,512z"
	/>
<path style="fill:#615349;" d="M428.522,512h-66.783c-9.217,0-16.696-7.479-16.696-16.696v-66.783
	c0-9.217,7.479-16.696,16.696-16.696h66.783c9.217,0,16.696,7.479,16.696,16.696v66.783C445.217,504.521,437.739,512,428.522,512z"
	/>
<g>
	<path style="fill:#953F3F;" d="M183.652,333.913c-9.217,0-16.696-7.479-16.696-16.696v-66.783c0-9.217,7.479-16.696,16.696-16.696
		c9.217,0,16.696,7.479,16.696,16.696v66.783C200.348,326.435,192.869,333.913,183.652,333.913z"/>
	<path style="fill:#953F3F;" d="M256,333.913c-9.217,0-16.696-7.479-16.696-16.696V217.043c0-9.217,7.479-16.696,16.696-16.696
		c9.217,0,16.696,7.479,16.696,16.696v100.174C272.696,326.435,265.217,333.913,256,333.913z"/>
</g>
<g>
	<path style="fill:#873434;" d="M328.348,333.913c-9.217,0-16.696-7.479-16.696-16.696v-66.783c0-9.217,7.479-16.696,16.696-16.696
		c9.217,0,16.696,7.479,16.696,16.696v66.783C345.043,326.435,337.565,333.913,328.348,333.913z"/>
	<path style="fill:#873434;" d="M272.696,317.217V217.043c0-9.217-7.479-16.696-16.696-16.696v133.565
		C265.217,333.913,272.696,326.435,272.696,317.217z"/>
</g>
<path style="fill:#FF7956;" d="M361.739,300.522H150.261c-5.856,0-11.472,1.015-16.696,2.862v-69.644
	c0-40.651-36.501-72.93-78.453-65.788c-24.071,4.098-44.509,21.803-51.877,45.083c-9.995,31.581,4.04,63.413,30.101,78.52
	c0.032,27.826,0.022,75.652,0,103.587c0,27.609,22.468,50.076,50.087,50.076h16.75h33.391h278.261v-94.609
	C411.826,322.946,389.402,300.522,361.739,300.522z"/>
<path style="fill:#FF6243;" d="M508.764,213.034c-7.368-23.279-27.807-40.984-51.877-45.083
	c-41.952-7.142-78.453,25.137-78.453,65.788v69.644c-5.224-1.847-10.84-2.862-16.696-2.862H256v144.696h122.435h33.391h16.75
	c27.619,0,50.087-22.468,50.087-50.087c-0.022-27.935-0.032-75.75,0-103.576C504.724,276.448,518.76,244.615,508.764,213.034z"/>
<g>
</g>
<g>
</g>
<g>
</g>
<g>
</g>
<g>
</g>
<g>
</g>
<g>
</g>
<g>
</g>
<g>
</g>
<g>
</g>
<g>
</g>
<g>
</g>
<g>
</g>
<g>
</g>
<g>
</g>
</svg>
