<?xml version="1.0" encoding="iso-8859-1"?>
<!-- Generator: Adobe Illustrator 19.0.0, SVG Export Plug-In . SVG Version: 6.00 Build 0)  -->
<svg version="1.1" id="Layer_1" xmlns="http://www.w3.org/2000/svg" xmlns:xlink="http://www.w3.org/1999/xlink" x="0px" y="0px"
	 viewBox="0 0 512 512" style="enable-background:new 0 0 512 512;" xml:space="preserve">
<path style="fill:#6E6057;" d="M439.652,445.217H72.348V66.783c0-18.442,14.949-33.391,33.391-33.391h300.522
	c18.442,0,33.391,14.949,33.391,33.391V445.217z"/>
<path style="fill:#615349;" d="M256,445.217h183.652V66.783c0-18.442-14.949-33.391-33.391-33.391H256V445.217z"/>
<path style="fill:#E6745C;" d="M406.261,33.391H105.739c-18.442,0-33.391,14.949-33.391,33.391v378.435h100.174v-94.609
	c0-38.919-19.197-73.363-48.541-94.615c59.674-19.87,107.947-64.913,132.019-122.562c24.085,57.682,72.4,102.745,132.12,122.597
	c-29.402,21.206-48.642,55.625-48.642,94.58v94.609h100.174V66.783C439.652,48.341,424.703,33.391,406.261,33.391z"/>
<path style="fill:#FF6243;" d="M406.261,33.391H256v100.04c24.085,57.682,72.4,102.745,132.12,122.597
	c-29.402,21.206-48.642,55.625-48.642,94.58v94.609h100.174V66.783C439.652,48.341,424.703,33.391,406.261,33.391z"/>
<path style="fill:#FF3501;" d="M139.13,0v50.087c0,23.712-10.141,46.397-27.837,62.228c-6.87,6.152-7.445,16.707-1.293,23.576
	c3.293,3.685,7.859,5.56,12.446,5.56c3.957,0,7.935-1.402,11.13-4.255c24.75-22.163,38.945-53.914,38.945-87.109V0H139.13z"/>
<path style="fill:#CD2A00;" d="M372.87,50.087V0h-33.391v50.087c0,33.195,14.196,64.946,38.945,87.109
	c3.196,2.853,7.174,4.255,11.13,4.255c4.587,0,9.153-1.875,12.446-5.56c6.152-6.87,5.576-17.424-1.293-23.576
	C383.01,96.484,372.87,73.799,372.87,50.087z"/>
<path style="fill:#C9D0D7;" d="M422.957,0H89.043C61.381,0,38.957,22.424,38.957,50.087v395.13h33.391V66.783
	c0-18.442,14.949-33.391,33.391-33.391h300.522c18.442,0,33.391,14.949,33.391,33.391v378.435h33.391V50.087
	C473.043,22.424,450.619,0,422.957,0z"/>
<path style="fill:#B8C2C9;" d="M422.957,0H256v33.391h150.261c18.442,0,33.391,14.949,33.391,33.391v378.435h33.391V50.087
	C473.043,22.424,450.619,0,422.957,0z"/>
<path style="fill:#DBE9FD;" d="M489.739,512H22.261c-9.217,0-16.696-7.473-16.696-16.696v-33.391
	c0-27.619,22.468-50.087,50.087-50.087h400.696c27.619,0,50.087,22.468,50.087,50.087v33.391
	C506.435,504.527,498.956,512,489.739,512z"/>
<path style="fill:#C5DCFD;" d="M456.348,411.826H256V512h233.739c9.217,0,16.696-7.473,16.696-16.696v-33.391
	C506.435,434.294,483.967,411.826,456.348,411.826z"/>
<g>
</g>
<g>
</g>
<g>
</g>
<g>
</g>
<g>
</g>
<g>
</g>
<g>
</g>
<g>
</g>
<g>
</g>
<g>
</g>
<g>
</g>
<g>
</g>
<g>
</g>
<g>
</g>
<g>
</g>
</svg>
