<?xml version="1.0" encoding="iso-8859-1"?>
<!-- Generator: Adobe Illustrator 19.0.0, SVG Export Plug-In . SVG Version: 6.00 Build 0)  -->
<svg version="1.1" id="Layer_1" xmlns="http://www.w3.org/2000/svg" xmlns:xlink="http://www.w3.org/1999/xlink" x="0px" y="0px"
	 viewBox="0 0 512 512" style="enable-background:new 0 0 512 512;" xml:space="preserve">
<path style="fill:#95673F;" d="M155.826,344.647h-33.391c-27.619,0-50.087-22.468-50.087-50.087V194.386
	c0-27.619,22.468-50.087,50.087-50.087s50.087,22.468,50.087,50.087v133.565C172.522,337.174,165.043,344.647,155.826,344.647z"/>
<path style="fill:#875334;" d="M389.565,344.647h-33.391c-9.217,0-16.696-7.473-16.696-16.696V194.386
	c0-27.619,22.468-50.087,50.087-50.087c27.619,0,50.087,22.468,50.087,50.087V294.56
	C439.652,322.179,417.184,344.647,389.565,344.647z"/>
<path style="fill:#B1C6E4;" d="M356.174,444.821H155.826c-9.217,0-16.696-7.473-16.696-16.696s7.479-16.696,16.696-16.696h200.348
	c9.217,0,16.696,7.473,16.696,16.696S365.391,444.821,356.174,444.821z"/>
<path style="fill:#9DB0CA;" d="M356.174,411.43H256v33.391h100.174c9.217,0,16.696-7.473,16.696-16.696
	S365.391,411.43,356.174,411.43z"/>
<path style="fill:#B1C6E4;" d="M256,445.217c-9.217,0-16.696-7.473-16.696-16.696v-100.57c0-9.223,7.479-16.696,16.696-16.696
	s16.696,7.473,16.696,16.696v100.57C272.696,437.744,265.217,445.217,256,445.217z"/>
<path style="fill:#6E6057;" d="M372.87,267.13H139.13V116.87C139.13,52.324,191.455,0,256,0l0,0
	c64.545,0,116.87,52.324,116.87,116.87V267.13z"/>
<path style="fill:#615349;" d="M372.87,267.13V116.87C372.87,52.324,320.545,0,256,0v267.13H372.87z"/>
<path style="fill:#9DB0CA;" d="M272.696,428.522v-100.57c0-9.223-7.479-16.696-16.696-16.696v133.961
	C265.217,445.217,272.696,437.744,272.696,428.522z"/>
<g>
	<circle style="fill:#615349;" cx="222.609" cy="116.469" r="16.696"/>
	<circle style="fill:#615349;" cx="222.609" cy="183.251" r="16.696"/>
</g>
<g>
	<circle style="fill:#554A43;" cx="289.391" cy="183.251" r="16.696"/>
	<circle style="fill:#554A43;" cx="289.391" cy="116.469" r="16.696"/>
</g>
<path style="fill:#6E6057;" d="M155.826,512c-27.619,0-50.087-22.468-50.087-50.087s22.468-50.087,50.087-50.087
	s50.087,22.468,50.087,50.087S183.445,512,155.826,512z"/>
<path style="fill:#615349;" d="M205.913,461.913c0-27.619-22.468-50.087-50.087-50.087V512
	C183.445,512,205.913,489.532,205.913,461.913z"/>
<path style="fill:#DBE9FD;" d="M155.826,445.217c-9.206,0-16.696,7.49-16.696,16.696c0,9.206,7.49,16.696,16.696,16.696
	s16.696-7.49,16.696-16.696C172.522,452.707,165.032,445.217,155.826,445.217z"/>
<path style="fill:#C5DCFD;" d="M172.522,461.913c0-9.206-7.49-16.696-16.696-16.696v33.391
	C165.032,478.609,172.522,471.119,172.522,461.913z"/>
<path style="fill:#6E6057;" d="M356.174,512c-27.619,0-50.087-22.468-50.087-50.087s22.468-50.087,50.087-50.087
	s50.087,22.468,50.087,50.087S383.793,512,356.174,512z"/>
<path style="fill:#615349;" d="M406.261,461.913c0-27.619-22.468-50.087-50.087-50.087V512
	C383.793,512,406.261,489.532,406.261,461.913z"/>
<path style="fill:#DBE9FD;" d="M356.174,445.217c-9.206,0-16.696,7.49-16.696,16.696c0,9.206,7.49,16.696,16.696,16.696
	c9.206,0,16.696-7.49,16.696-16.696C372.87,452.707,365.38,445.217,356.174,445.217z"/>
<path style="fill:#C5DCFD;" d="M372.87,461.913c0-9.206-7.49-16.696-16.696-16.696v33.391
	C365.38,478.609,372.87,471.119,372.87,461.913z"/>
<path style="fill:#805836;" d="M372.87,344.647H139.13V245.03H372.87V344.647z"/>
<rect x="256" y="245.025" style="fill:#73472C;" width="116.87" height="99.617"/>
<path style="fill:#6E6057;" d="M256,511.604c-9.217,0-16.696-7.473-16.696-16.696v-66.386c0-9.223,7.479-16.696,16.696-16.696
	s16.696,7.473,16.696,16.696v66.386C272.696,504.131,265.217,511.604,256,511.604z"/>
<path style="fill:#615349;" d="M272.696,494.908v-66.386c0-9.223-7.479-16.696-16.696-16.696v99.778
	C265.217,511.604,272.696,504.131,272.696,494.908z"/>
<g>
</g>
<g>
</g>
<g>
</g>
<g>
</g>
<g>
</g>
<g>
</g>
<g>
</g>
<g>
</g>
<g>
</g>
<g>
</g>
<g>
</g>
<g>
</g>
<g>
</g>
<g>
</g>
<g>
</g>
</svg>
