<?xml version="1.0" encoding="iso-8859-1"?>
<!-- Generator: Adobe Illustrator 19.0.0, SVG Export Plug-In . SVG Version: 6.00 Build 0)  -->
<svg version="1.1" id="Layer_1" xmlns="http://www.w3.org/2000/svg" xmlns:xlink="http://www.w3.org/1999/xlink" x="0px" y="0px"
	 viewBox="0 0 512 512" style="enable-background:new 0 0 512 512;" xml:space="preserve">
<path style="fill:#806F65;" d="M122.435,367.304c-9.217,0-16.696-7.479-16.696-16.696v-66.783c0-9.217,7.479-16.696,16.696-16.696
	s16.696,7.479,16.696,16.696v66.783C139.13,359.826,131.652,367.304,122.435,367.304z"/>
<path style="fill:#615349;" d="M389.565,367.304c-9.217,0-16.696-7.479-16.696-16.696v-66.783c0-9.217,7.479-16.696,16.696-16.696
	c9.217,0,16.696,7.479,16.696,16.696v66.783C406.261,359.826,398.782,367.304,389.565,367.304z"/>
<g>
	<path style="fill:#6E6057;" d="M222.609,367.304H55.652c-9.217,0-16.696-7.479-16.696-16.696c0-9.217,7.479-16.696,16.696-16.696
		h166.957c9.217,0,16.696,7.479,16.696,16.696C239.304,359.826,231.826,367.304,222.609,367.304z"/>
	<path style="fill:#6E6057;" d="M456.348,367.304H289.391c-9.217,0-16.696-7.479-16.696-16.696c0-9.217,7.479-16.696,16.696-16.696
		h166.957c9.217,0,16.696,7.479,16.696,16.696C473.043,359.826,465.565,367.304,456.348,367.304z"/>
</g>
<path style="fill:#A1AAB3;" d="M289.391,512h-66.783c-9.217,0-16.696-7.479-16.696-16.696V283.826
	c0-9.217,7.479-16.696,16.696-16.696h66.783c9.217,0,16.696,7.479,16.696,16.696v211.478C306.087,504.521,298.608,512,289.391,512z"
	/>
<path style="fill:#8A9199;" d="M289.391,267.13H256V512h33.391c9.217,0,16.696-7.479,16.696-16.696V283.826
	C306.087,274.609,298.608,267.13,289.391,267.13z"/>
<path style="fill:#DBE9FD;" d="M456.348,300.522H55.652c-27.619,0-50.087-22.468-50.087-50.087V50.087
	C5.565,22.468,28.033,0,55.652,0h400.696c27.619,0,50.087,22.468,50.087,50.087v200.348
	C506.435,278.054,483.967,300.522,456.348,300.522z"/>
<path style="fill:#C5DCFD;" d="M456.348,0H256v300.522h200.348c27.619,0,50.087-22.468,50.087-50.087V50.087
	C506.435,22.468,483.967,0,456.348,0z"/>
<path style="fill:#B1C6E4;" d="M55.652,267.13c-9.206,0-16.696-7.49-16.696-16.696V50.087c0-9.206,7.49-16.696,16.696-16.696
	h400.696c9.206,0,16.696,7.49,16.696,16.696v200.348c0,9.206-7.49,16.696-16.696,16.696H55.652z"/>
<path style="fill:#9DB0CA;" d="M456.348,33.391H256V267.13h200.348c9.206,0,16.696-7.49,16.696-16.696V50.087
	C473.043,40.881,465.554,33.391,456.348,33.391z"/>
<rect x="239.304" style="fill:#6E6057;" width="33.391" height="100.174"/>
<g>
	<rect x="256" style="fill:#615349;" width="16.696" height="100.174"/>
	<rect x="372.87" style="fill:#615349;" width="33.391" height="100.174"/>
</g>
<rect x="105.739" style="fill:#6E6057;" width="33.391" height="100.174"/>
<path style="fill:#806F65;" d="M289.391,100.174h-66.783c-9.217,0-16.696-7.473-16.696-16.696s7.479-16.696,16.696-16.696h66.783
	c9.217,0,16.696,7.473,16.696,16.696S298.608,100.174,289.391,100.174z"/>
<g>
	<path style="fill:#6E6057;" d="M289.391,66.783H256v33.391h33.391c9.217,0,16.696-7.473,16.696-16.696
		S298.608,66.783,289.391,66.783z"/>
	<path style="fill:#6E6057;" d="M422.957,100.174h-66.783c-9.217,0-16.696-7.473-16.696-16.696s7.479-16.696,16.696-16.696h66.783
		c9.217,0,16.696,7.473,16.696,16.696S432.174,100.174,422.957,100.174z"/>
</g>
<path style="fill:#806F65;" d="M155.826,100.174H89.043c-9.217,0-16.696-7.473-16.696-16.696s7.479-16.696,16.696-16.696h66.783
	c9.217,0,16.696,7.473,16.696,16.696S165.043,100.174,155.826,100.174z"/>
<g>
</g>
<g>
</g>
<g>
</g>
<g>
</g>
<g>
</g>
<g>
</g>
<g>
</g>
<g>
</g>
<g>
</g>
<g>
</g>
<g>
</g>
<g>
</g>
<g>
</g>
<g>
</g>
<g>
</g>
</svg>
