<?xml version="1.0" encoding="iso-8859-1"?>
<!-- Generator: Adobe Illustrator 19.0.0, SVG Export Plug-In . SVG Version: 6.00 Build 0)  -->
<svg version="1.1" id="Layer_1" xmlns="http://www.w3.org/2000/svg" xmlns:xlink="http://www.w3.org/1999/xlink" x="0px" y="0px"
	 viewBox="0 0 511.999 511.999" style="enable-background:new 0 0 511.999 511.999;" xml:space="preserve">
<path style="fill:#E4A738;" d="M220.761,150.322c-38.849,0-70.452-31.602-70.452-70.452s31.602-70.452,70.452-70.452
	s70.452,31.602,70.452,70.452S259.61,150.322,220.761,150.322z"/>
<path style="fill:#EFBE44;" d="M291.212,150.322c-38.849,0-70.452-31.602-70.452-70.452s31.602-70.452,70.452-70.452
	c38.849,0,70.452,31.602,70.452,70.452S330.062,150.322,291.212,150.322z"/>
<path style="fill:#F6DF5A;" d="M503.073,232.299c-56.52-83.277-146.602-131.043-247.154-131.043
	c-100.415,0-190.441,47.759-246.983,131.037c-8.715,12.843-11.203,28.828-6.812,43.849c4.483,15.302,15.445,27.681,30.077,33.953
	l28.587,12.253l390.558-0.069l28.45-12.195c14.632-6.273,25.594-18.645,30.077-33.947
	C514.264,261.12,511.788,245.141,503.073,232.299z"/>
<path style="fill:#F0CA45;" d="M451.346,322.278l28.45-12.195c14.632-6.273,25.594-18.645,30.077-33.947
	c4.391-15.016,1.915-30.994-6.8-43.837c-56.52-83.278-146.602-131.043-247.154-131.043v221.057L451.346,322.278z"/>
<path style="fill:#FF6243;" d="M255.987,171.692h-0.117c-147.949,0-226.855,126.578-226.855,218.048
	c0,31.586,9.041,58.827,25.95,78.789c18.905,22.31,46.85,34.052,80.55,34.052h240.828c33.699,0,61.528-11.859,80.432-34.287
	c17.026-20.079,25.95-47.438,25.95-79.258C482.724,297.919,403.935,171.81,255.987,171.692z"/>
<path style="fill:#FF3501;" d="M482.724,389.036c0,31.821-8.924,59.179-25.95,79.258c-18.905,22.427-46.733,34.287-80.432,34.287
	H255.987V171.692C403.935,171.81,482.724,297.919,482.724,389.036z"/>
<g>
</g>
<g>
</g>
<g>
</g>
<g>
</g>
<g>
</g>
<g>
</g>
<g>
</g>
<g>
</g>
<g>
</g>
<g>
</g>
<g>
</g>
<g>
</g>
<g>
</g>
<g>
</g>
<g>
</g>
</svg>
