<?xml version="1.0" encoding="iso-8859-1"?>
<!-- Generator: Adobe Illustrator 19.0.0, SVG Export Plug-In . SVG Version: 6.00 Build 0)  -->
<svg version="1.1" id="Layer_1" xmlns="http://www.w3.org/2000/svg" xmlns:xlink="http://www.w3.org/1999/xlink" x="0px" y="0px"
	 viewBox="0 0 512 512" style="enable-background:new 0 0 512 512;" xml:space="preserve">
<path style="fill:#737980;" d="M461.913,172.522c-9.217,0-16.696-7.479-16.696-16.696V22.261c0-9.223,7.479-16.696,16.696-16.696
	c9.217,0,16.696,7.473,16.696,16.696v133.565C478.609,165.043,471.13,172.522,461.913,172.522z"/>
<g>
	<path style="fill:#9DB0CA;" d="M495.304,105.739h-66.783c-9.217,0-16.696-7.473-16.696-16.696s7.479-16.696,16.696-16.696h66.783
		c9.217,0,16.696,7.473,16.696,16.696S504.521,105.739,495.304,105.739z"/>
	<path style="fill:#9DB0CA;" d="M495.304,38.957h-66.783c-9.217,0-16.696-7.473-16.696-16.696s7.479-16.696,16.696-16.696h66.783
		c9.217,0,16.696,7.473,16.696,16.696S504.521,38.957,495.304,38.957z"/>
	<path style="fill:#9DB0CA;" d="M495.304,139.13H306.087v367.304h189.217c9.217,0,16.696-7.479,16.696-16.696V155.826
		C512,146.609,504.521,139.13,495.304,139.13z"/>
</g>
<g>
	<path style="fill:#77BDBD;" d="M428.522,205.913H328.348v100.174h100.174c9.217,0,16.696-7.479,16.696-16.696v-66.783
		C445.217,213.392,437.739,205.913,428.522,205.913z"/>
	<path style="fill:#77BDBD;" d="M428.522,339.478H328.348v100.174h100.174c9.217,0,16.696-7.479,16.696-16.696v-66.783
		C445.217,346.957,437.739,339.478,428.522,339.478z"/>
</g>
<path style="fill:#DBE9FD;" d="M328.348,506.435H16.696C7.479,506.435,0,498.956,0,489.739V22.261
	C0,13.038,7.479,5.565,16.696,5.565h311.652c9.217,0,16.696,7.473,16.696,16.696v467.478
	C345.043,498.956,337.565,506.435,328.348,506.435z"/>
<path style="fill:#C5DCFD;" d="M328.348,5.565H172.522v500.87h155.826c9.217,0,16.696-7.479,16.696-16.696V22.261
	C345.043,13.038,337.565,5.565,328.348,5.565z"/>
<path style="fill:#8FF0F0;" d="M261.565,172.522H83.478c-9.217,0-16.696-7.479-16.696-16.696V89.043
	c0-9.223,7.479-16.696,16.696-16.696h178.087c9.217,0,16.696,7.473,16.696,16.696v66.783
	C278.261,165.043,270.782,172.522,261.565,172.522z"/>
<path style="fill:#87D7D7;" d="M261.565,72.348h-89.043v100.174h89.043c9.217,0,16.696-7.479,16.696-16.696V89.043
	C278.261,79.821,270.782,72.348,261.565,72.348z"/>
<path style="fill:#8FF0F0;" d="M261.565,306.087H83.478c-9.217,0-16.696-7.479-16.696-16.696v-66.783
	c0-9.223,7.479-16.696,16.696-16.696h178.087c9.217,0,16.696,7.473,16.696,16.696v66.783
	C278.261,298.608,270.782,306.087,261.565,306.087z"/>
<path style="fill:#87D7D7;" d="M261.565,205.913h-89.043v100.174h89.043c9.217,0,16.696-7.479,16.696-16.696v-66.783
	C278.261,213.386,270.782,205.913,261.565,205.913z"/>
<path style="fill:#8FF0F0;" d="M261.565,439.652H83.478c-9.217,0-16.696-7.479-16.696-16.696v-66.783
	c0-9.223,7.479-16.696,16.696-16.696h178.087c9.217,0,16.696,7.473,16.696,16.696v66.783
	C278.261,432.174,270.782,439.652,261.565,439.652z"/>
<path style="fill:#87D7D7;" d="M261.565,339.478h-89.043v100.174h89.043c9.217,0,16.696-7.479,16.696-16.696v-66.783
	C278.261,346.951,270.782,339.478,261.565,339.478z"/>
<g>
</g>
<g>
</g>
<g>
</g>
<g>
</g>
<g>
</g>
<g>
</g>
<g>
</g>
<g>
</g>
<g>
</g>
<g>
</g>
<g>
</g>
<g>
</g>
<g>
</g>
<g>
</g>
<g>
</g>
</svg>
