<?xml version="1.0" encoding="iso-8859-1"?>
<!-- Generator: Adobe Illustrator 19.0.0, SVG Export Plug-In . SVG Version: 6.00 Build 0)  -->
<svg version="1.1" id="Layer_1" xmlns="http://www.w3.org/2000/svg" xmlns:xlink="http://www.w3.org/1999/xlink" x="0px" y="0px"
	 viewBox="0 0 512 512" style="enable-background:new 0 0 512 512;" xml:space="preserve">
<path style="fill:#BFC5CC;" d="M395.129,478.608H211.477c-9.217,0-16.696-7.473-16.696-16.696s7.479-16.696,16.696-16.696h183.651
	c9.217,0,16.696,7.473,16.696,16.696S404.346,478.608,395.129,478.608z"/>
<path style="fill:#AFB9BF;" d="M395.129,445.217h-66.782v33.391h66.782c9.217,0,16.696-7.473,16.696-16.696
	S404.346,445.217,395.129,445.217z"/>
<path style="fill:#DBE9FD;" d="M211.477,178.087v-77.909l116.869-84.873l116.869,84.873v77.909H211.477z"/>
<polygon style="fill:#C5DCFD;" points="445.215,178.087 445.215,100.178 328.346,15.305 328.346,178.087 "/>
<path style="fill:#95673F;" d="M328.346,100.175c-27.619,0-50.087,22.468-50.087,50.087v33.391c0,9.223,7.478,16.696,16.696,16.696
	h66.782c9.217,0,16.696-7.473,16.696-16.696v-33.391C378.433,122.642,355.965,100.175,328.346,100.175z"/>
<path style="fill:#875334;" d="M361.738,200.348c9.217,0,16.696-7.473,16.696-16.696v-33.391c0-27.619-22.468-50.087-50.087-50.087
	v100.173H361.738z"/>
<path style="fill:#6BBAE2;" d="M508.15,172.99c-3.174-3.821-7.88-6.033-12.848-6.033H134.641l25.543,211.477h301.727
	c8.033,0,14.924-5.723,16.413-13.619l33.391-178.086C512.628,181.848,511.324,176.811,508.15,172.99z"/>
<path style="fill:#BFC5CC;" d="M170.51,446.076c-8.131,0-15.261-5.951-16.489-14.245L97.032,48.197
	c-0.066-0.386-0.109-0.777-0.13-1.169c-0.598-7.647-7.066-13.636-14.728-13.636H16.696C7.479,33.392,0,25.919,0,16.697
	S7.479,0.001,16.696,0.001h65.478c24.793,0,45.728,19.195,47.956,43.815l56.913,383.112c1.359,9.119-4.935,17.608-14.054,18.967
	C172.151,446.016,171.326,446.076,170.51,446.076z"/>
<path style="fill:#6E6057;" d="M178.086,511.999c-27.619,0-50.087-22.468-50.087-50.087s22.468-50.087,50.087-50.087
	s50.087,22.468,50.087,50.087S205.705,511.999,178.086,511.999z"/>
<path style="fill:#615349;" d="M228.173,461.912c0-27.619-22.468-50.087-50.087-50.087v100.173
	C205.705,511.999,228.173,489.532,228.173,461.912z"/>
<path style="fill:#DBE9FD;" d="M178.086,445.217c-9.206,0-16.696,7.49-16.696,16.696s7.49,16.696,16.696,16.696
	c9.206,0,16.696-7.49,16.696-16.696S187.292,445.217,178.086,445.217z"/>
<path style="fill:#C5DCFD;" d="M194.782,461.912c0-9.206-7.49-16.696-16.696-16.696v33.391
	C187.292,478.608,194.782,471.119,194.782,461.912z"/>
<path style="fill:#6E6057;" d="M428.52,511.999c-27.619,0-50.087-22.468-50.087-50.087s22.468-50.087,50.087-50.087
	c27.619,0,50.087,22.468,50.087,50.087S456.139,511.999,428.52,511.999z"/>
<path style="fill:#615349;" d="M478.607,461.912c0-27.619-22.468-50.087-50.087-50.087v100.173
	C456.139,511.999,478.607,489.532,478.607,461.912z"/>
<path style="fill:#DBE9FD;" d="M428.52,445.217c-9.206,0-16.696,7.49-16.696,16.696s7.49,16.696,16.696,16.696
	c9.206,0,16.696-7.49,16.696-16.696S437.726,445.217,428.52,445.217z"/>
<path style="fill:#C5DCFD;" d="M445.215,461.912c0-9.206-7.49-16.696-16.696-16.696v33.391
	C437.726,478.608,445.215,471.119,445.215,461.912z"/>
<path style="fill:#FF6243;" d="M461.9,133.566c-3.489,0-7-1.087-10.011-3.337L328.346,37.566l-123.543,92.663
	c-7.381,5.522-17.836,4.049-23.38-3.342c-5.533-7.375-4.033-17.842,3.337-23.375L318.325,3.338c5.935-4.445,14.109-4.445,20.044,0
	l133.565,100.173c7.369,5.533,8.87,16,3.337,23.375C471.987,131.262,466.976,133.566,461.9,133.566z"/>
<path style="fill:#FF3501;" d="M451.889,130.229c3.011,2.249,6.521,3.337,10.011,3.337c5.077,0,10.087-2.304,13.37-6.679
	c5.533-7.375,4.033-17.842-3.337-23.375L338.368,3.338c-2.967-2.223-6.495-3.335-10.022-3.335v37.563L451.889,130.229z"/>
<path style="fill:#60AED5;" d="M495.302,166.957H328.346v211.477h133.565c8.033,0,14.924-5.723,16.413-13.619l33.391-178.086
	c0.913-4.881-0.392-9.918-3.565-13.739C504.977,169.169,500.27,166.957,495.302,166.957z"/>
<g>
</g>
<g>
</g>
<g>
</g>
<g>
</g>
<g>
</g>
<g>
</g>
<g>
</g>
<g>
</g>
<g>
</g>
<g>
</g>
<g>
</g>
<g>
</g>
<g>
</g>
<g>
</g>
<g>
</g>
</svg>
