<?xml version="1.0" encoding="iso-8859-1"?>
<!-- Generator: Adobe Illustrator 19.0.0, SVG Export Plug-In . SVG Version: 6.00 Build 0)  -->
<svg version="1.1" id="Layer_1" xmlns="http://www.w3.org/2000/svg" xmlns:xlink="http://www.w3.org/1999/xlink" x="0px" y="0px"
	 viewBox="0 0 512 512" style="enable-background:new 0 0 512 512;" xml:space="preserve">
<path style="fill:#737980;" d="M461.913,166.957c-9.217,0-16.696-7.473-16.696-16.696V16.696C445.217,7.473,452.696,0,461.913,0
	c9.217,0,16.696,7.473,16.696,16.696v133.565C478.609,159.484,471.13,166.957,461.913,166.957z"/>
<g>
	<path style="fill:#9DB0CA;" d="M495.304,100.174h-66.783c-9.217,0-16.696-7.473-16.696-16.696s7.479-16.696,16.696-16.696h66.783
		c9.217,0,16.696,7.473,16.696,16.696S504.521,100.174,495.304,100.174z"/>
	<path style="fill:#9DB0CA;" d="M495.304,33.391h-66.783c-9.217,0-16.696-7.473-16.696-16.696S419.305,0,428.522,0h66.783
		C504.521,0,512,7.473,512,16.696S504.521,33.391,495.304,33.391z"/>
</g>
<path style="fill:#B1C6E4;" d="M495.304,133.565H222.609V512h272.696c9.217,0,16.696-7.473,16.696-16.696V150.261
	C512,141.038,504.521,133.565,495.304,133.565z"/>
<path style="fill:#DBE9FD;" d="M233.739,512H16.696C7.475,512,0,504.525,0,495.304V16.696C0,7.475,7.475,0,16.696,0h200.348
	c9.22,0,16.696,7.475,16.696,16.696V512z"/>
<path style="fill:#8FF0F0;" d="M150.261,233.739H83.478c-9.217,0-16.696-7.473-16.696-16.696V83.478
	c0-9.223,7.479-16.696,16.696-16.696h66.783c9.217,0,16.696,7.473,16.696,16.696v133.565
	C166.957,226.266,159.478,233.739,150.261,233.739z"/>
<path style="fill:#A1AAB3;" d="M445.217,512H267.13V294.957c0-9.22,7.475-16.696,16.696-16.696h144.696
	c9.22,0,16.696,7.475,16.696,16.696V512z"/>
<path style="fill:#737980;" d="M428.522,233.739H283.826c-9.217,0-16.696-7.473-16.696-16.696s7.479-16.696,16.696-16.696h144.696
	c9.217,0,16.696,7.473,16.696,16.696S437.739,233.739,428.522,233.739z"/>
<path style="fill:#8FF0F0;" d="M150.261,434.087H83.478c-9.217,0-16.696-7.473-16.696-16.696V283.826
	c0-9.223,7.479-16.696,16.696-16.696h66.783c9.217,0,16.696,7.473,16.696,16.696v133.565
	C166.957,426.614,159.478,434.087,150.261,434.087z"/>
<path style="fill:#C5DCFD;" d="M217.043,0H116.87v512h116.87V16.696C233.739,7.475,226.264,0,217.043,0z"/>
<g>
	<path style="fill:#87D7D7;" d="M150.261,267.13H116.87v166.957h33.391c9.217,0,16.696-7.473,16.696-16.696V283.826
		C166.957,274.603,159.478,267.13,150.261,267.13z"/>
	<path style="fill:#87D7D7;" d="M150.261,66.783H116.87v166.957h33.391c9.217,0,16.696-7.473,16.696-16.696V83.478
		C166.957,74.256,159.478,66.783,150.261,66.783z"/>
</g>
<rect x="66.783" y="133.565" style="fill:#80D7D7;" width="100.174" height="33.391"/>
<rect x="116.87" y="133.565" style="fill:#77BDBD;" width="50.087" height="33.391"/>
<rect x="66.783" y="333.913" style="fill:#80D7D7;" width="100.174" height="33.391"/>
<rect x="116.87" y="333.913" style="fill:#77BDBD;" width="50.087" height="33.391"/>
<g>
	<rect x="267.13" y="345.043" style="fill:#8A9199;" width="178.087" height="33.391"/>
	<path style="fill:#8A9199;" d="M445.217,311.652H267.13v-16.696c0-9.22,7.475-16.696,16.696-16.696h144.696
		c9.22,0,16.696,7.475,16.696,16.696V311.652z"/>
	<rect x="267.13" y="411.826" style="fill:#8A9199;" width="178.087" height="33.391"/>
	<rect x="267.13" y="478.609" style="fill:#8A9199;" width="178.087" height="33.391"/>
</g>
<g>
</g>
<g>
</g>
<g>
</g>
<g>
</g>
<g>
</g>
<g>
</g>
<g>
</g>
<g>
</g>
<g>
</g>
<g>
</g>
<g>
</g>
<g>
</g>
<g>
</g>
<g>
</g>
<g>
</g>
</svg>
