<?xml version="1.0" encoding="iso-8859-1"?>
<!-- Generator: Adobe Illustrator 19.0.0, SVG Export Plug-In . SVG Version: 6.00 Build 0)  -->
<svg version="1.1" id="Layer_1" xmlns="http://www.w3.org/2000/svg" xmlns:xlink="http://www.w3.org/1999/xlink" x="0px" y="0px"
	 viewBox="0 0 512 512" style="enable-background:new 0 0 512 512;" xml:space="preserve">
<path style="fill:#9DCA40;" d="M356.174,200.348h-96.39c-1.224,0-2.56,0-3.784-0.223c-24.821-1.558-45.746-18.699-49.419-41.294
	c-5.231-32.056,19.59-58.657,49.419-58.657c21.593,0,40.737,13.802,47.527,34.282c6.456,19.478,25.6,32.501,47.638,32.501
	c33.391,0,58.101-32.835,47.193-65.113C377.544,40.96,319.889,0.111,256,0c-2.783,0-5.677,0.111-8.459,0.223
	c-76.911,4.23-141.802,75.91-141.802,156.605v305.085c0,27.603,22.483,50.087,50.087,50.087h200.348
	c27.603,0,50.087-22.483,50.087-50.087V250.435C406.261,222.831,383.777,200.348,356.174,200.348z"/>
<g>
	<path style="fill:#8EB043;" d="M406.261,250.435v211.478c0,27.603-22.483,50.087-50.087,50.087H256V200.125
		c1.224,0.223,2.56,0.223,3.784,0.223h96.39C383.777,200.348,406.261,222.831,406.261,250.435z"/>
	<path style="fill:#8EB043;" d="M351.165,166.957c-22.038,0-41.183-13.023-47.638-32.501c-6.79-20.48-25.934-34.282-47.527-34.282V0
		c63.889,0.111,121.544,40.96,142.358,101.843C409.266,134.122,384.557,166.957,351.165,166.957z"/>
</g>
<g>
</g>
<g>
</g>
<g>
</g>
<g>
</g>
<g>
</g>
<g>
</g>
<g>
</g>
<g>
</g>
<g>
</g>
<g>
</g>
<g>
</g>
<g>
</g>
<g>
</g>
<g>
</g>
<g>
</g>
</svg>
