<?xml version="1.0" encoding="iso-8859-1"?>
<!-- Generator: Adobe Illustrator 19.0.0, SVG Export Plug-In . SVG Version: 6.00 Build 0)  -->
<svg version="1.1" id="Layer_1" xmlns="http://www.w3.org/2000/svg" xmlns:xlink="http://www.w3.org/1999/xlink" x="0px" y="0px"
	 viewBox="0 0 512 512" style="enable-background:new 0 0 512 512;" xml:space="preserve">
<path style="fill:#95673F;" d="M261.566,100.174h-66.783c-9.217,0-16.696-7.479-16.696-16.696V16.696
	C178.087,7.479,185.566,0,194.783,0h66.783c9.217,0,16.696,7.479,16.696,16.696v66.783
	C278.261,92.695,270.783,100.174,261.566,100.174z"/>
<path style="fill:#875334;" d="M261.566,0h-33.391v100.174h33.391c9.217,0,16.696-7.479,16.696-16.696V16.696
	C278.261,7.479,270.783,0,261.566,0z"/>
<path style="fill:#95673F;" d="M261.566,512h-66.783c-9.217,0-16.696-7.479-16.696-16.696V283.826
	c0-9.217,7.479-16.696,16.696-16.696h66.783c9.217,0,16.696,7.479,16.696,16.696v211.478C278.261,504.521,270.783,512,261.566,512z"
	/>
<path style="fill:#875334;" d="M261.566,267.13h-33.391V512h33.391c9.217,0,16.696-7.479,16.696-16.696V283.826
	C278.261,274.609,270.783,267.13,261.566,267.13z"/>
<path style="fill:#EFBE44;" d="M395.131,300.522H16.696C7.479,300.522,0,293.043,0,283.826V83.478
	c0-9.217,7.479-16.696,16.696-16.696h378.435c4.424,0,8.674,1.761,11.804,4.892l100.174,100.174c6.521,6.521,6.521,17.087,0,23.609
	L406.935,295.631C403.805,298.761,399.555,300.522,395.131,300.522z"/>
<path style="fill:#E4A738;" d="M406.935,71.674c-3.13-3.131-7.379-4.892-11.804-4.892H228.174v233.739h166.957
	c4.424,0,8.674-1.761,11.804-4.892l100.174-100.174c6.521-6.521,6.521-17.087,0-23.609L406.935,71.674z"/>
<path style="fill:#95673F;" d="M205.913,233.739H83.479c-9.217,0-16.696-7.479-16.696-16.696s7.479-16.696,16.696-16.696h122.435
	c9.217,0,16.696,7.479,16.696,16.696S215.131,233.739,205.913,233.739z"/>
<path style="fill:#8C6D50;" d="M372.87,133.565H228.174v33.391H372.87c9.217,0,16.696-7.479,16.696-16.696
	S382.087,133.565,372.87,133.565z"/>
<path style="fill:#95673F;" d="M372.87,166.957H83.479c-9.217,0-16.696-7.479-16.696-16.696s7.479-16.696,16.696-16.696H372.87
	c9.217,0,16.696,7.479,16.696,16.696S382.087,166.957,372.87,166.957z"/>
<path style="fill:#875334;" d="M372.87,133.565H228.174v33.391H372.87c9.217,0,16.696-7.479,16.696-16.696
	S382.087,133.565,372.87,133.565z"/>
<g>
</g>
<g>
</g>
<g>
</g>
<g>
</g>
<g>
</g>
<g>
</g>
<g>
</g>
<g>
</g>
<g>
</g>
<g>
</g>
<g>
</g>
<g>
</g>
<g>
</g>
<g>
</g>
<g>
</g>
</svg>
