<?xml version="1.0" encoding="iso-8859-1"?>
<!-- Generator: Adobe Illustrator 19.0.0, SVG Export Plug-In . SVG Version: 6.00 Build 0)  -->
<svg version="1.1" id="Layer_1" xmlns="http://www.w3.org/2000/svg" xmlns:xlink="http://www.w3.org/1999/xlink" x="0px" y="0px"
	 viewBox="0 0 512 512" style="enable-background:new 0 0 512 512;" xml:space="preserve">
<path style="fill:#DBE9FD;" d="M448.696,473.043H63.304C28.397,473.043,0,444.641,0,409.739V102.261
	c0-34.902,28.397-63.304,63.304-63.304h385.391c34.902,0,63.304,28.403,63.304,63.304v307.478
	C512,444.641,483.597,473.043,448.696,473.043z"/>
<path style="fill:#C5DCFD;" d="M448.696,38.957H217.043v434.087h231.652c34.902,0,63.304-28.403,63.304-63.304V102.261
	C512,67.359,483.597,38.957,448.696,38.957z"/>
<path style="fill:#615349;" d="M217.043,139.13c-64.68,0-116.87,52.913-116.87,116.87c0,63.851,52.078,116.87,116.87,116.87
	c64.68,0,116.87-52.913,116.87-116.87C333.913,192.149,281.835,139.13,217.043,139.13z"/>
<path style="fill:#594C43;" d="M333.913,256c0-63.851-52.078-116.87-116.87-116.87V372.87
	C281.724,372.87,333.913,319.955,333.913,256z"/>
<path style="fill:#B1C6E4;" d="M347.051,180.894c-12.93-22.487-31.558-41.325-53.869-54.477
	c-22.949-13.528-49.278-20.678-76.139-20.678c-26.86,0-53.188,7.15-76.137,20.678c-22.311,13.152-40.939,31.99-53.862,54.465
	C73.789,203.884,66.783,229.86,66.783,256s7.007,52.116,20.255,75.106c12.93,22.487,31.558,41.325,53.869,54.477
	c22.949,13.528,49.277,20.678,76.137,20.678c26.861,0,53.19-7.15,76.139-20.678c22.311-13.152,40.939-31.99,53.862-54.466
	c13.254-23.004,20.26-48.979,20.26-75.117S360.299,203.887,347.051,180.894z M300.522,289.391
	c-18.412,0-33.391-14.979-33.391-33.391h-33.391c0,36.824,29.959,66.783,66.783,66.783c4.52,0,8.936-0.456,13.205-1.317
	c-21.513,31.898-57.834,51.404-96.683,51.404c-18.412,0-33.391-14.979-33.391-33.391s14.979-33.391,33.391-33.391v-33.391
	c-36.824,0-66.783,29.959-66.783,66.783c0,4.532,0.459,8.959,1.323,13.24c-14.403-9.759-26.679-22.743-35.607-38.271
	c-10.486-18.196-15.803-37.861-15.803-58.447c0-18.412,14.979-33.391,33.391-33.391s33.391,14.979,33.391,33.391h33.391
	c0-36.824-29.959-66.783-66.783-66.783c-4.519,0-8.933,0.456-13.203,1.317c21.512-31.899,57.833-51.404,96.681-51.404
	c18.412,0,33.391,14.979,33.391,33.391s-14.979,33.391-33.391,33.391v33.391c36.824,0,66.783-29.959,66.783-66.783
	c0-4.532-0.459-8.96-1.323-13.241c14.404,9.76,26.68,22.744,35.61,38.272c10.485,18.197,15.801,37.862,15.801,58.447
	C333.913,274.412,318.934,289.391,300.522,289.391z"/>
<path style="fill:#9DB0CA;" d="M250.435,172.522c0,18.412-14.979,33.391-33.391,33.391v33.391c36.824,0,66.783-29.959,66.783-66.783
	c0-4.532-0.459-8.96-1.323-13.241c14.404,9.76,26.68,22.744,35.61,38.272c10.485,18.197,15.801,37.862,15.801,58.447
	c0,18.412-14.979,33.391-33.391,33.391S267.13,274.412,267.13,256h-33.391c0,36.824,29.959,66.783,66.783,66.783
	c4.52,0,8.936-0.456,13.205-1.317c-21.513,31.898-57.834,51.404-96.683,51.404v33.391c26.861,0,53.19-7.15,76.139-20.678
	c22.311-13.152,40.939-31.99,53.862-54.466c13.254-23.004,20.26-48.979,20.26-75.117s-7.005-52.113-20.253-75.106
	c-12.93-22.487-31.558-41.325-53.869-54.477c-22.949-13.528-49.278-20.678-76.139-20.678v33.391
	C235.455,139.13,250.435,154.11,250.435,172.522z"/>
<path style="fill:#DBE9FD;" d="M217.043,306.087c-27.618,0-50.087-22.469-50.087-50.087s22.469-50.087,50.087-50.087
	S267.13,228.382,267.13,256S244.661,306.087,217.043,306.087z"/>
<path style="fill:#C5DCFD;" d="M267.13,256c0-27.618-22.469-50.087-50.087-50.087v100.174
	C244.661,306.087,267.13,283.618,267.13,256z"/>
<g>
	<path style="fill:#9DB0CA;" d="M217.043,239.304c-9.206,0-16.696,7.49-16.696,16.696s7.49,16.696,16.696,16.696
		s16.696-7.49,16.696-16.696S226.249,239.304,217.043,239.304z"/>
	<path style="fill:#9DB0CA;" d="M233.739,256c0-9.206-7.49-16.696-16.696-16.696v33.391
		C226.249,272.696,233.739,265.206,233.739,256z"/>
	<path style="fill:#9DB0CA;" d="M512,172.522h-94.609c-9.22,0-16.696-7.475-16.696-16.696l0,0c0-9.22,7.475-16.696,16.696-16.696
		H512V172.522z"/>
	<path style="fill:#9DB0CA;" d="M512,239.304h-94.609c-9.22,0-16.696-7.475-16.696-16.696l0,0c0-9.22,7.475-16.696,16.696-16.696
		H512V239.304z"/>
	<path style="fill:#9DB0CA;" d="M512,306.087h-94.609c-9.22,0-16.696-7.475-16.696-16.696l0,0c0-9.22,7.475-16.696,16.696-16.696
		H512V306.087z"/>
	<path style="fill:#9DB0CA;" d="M512,372.87h-94.609c-9.22,0-16.696-7.475-16.696-16.696l0,0c0-9.22,7.475-16.696,16.696-16.696H512
		V372.87z"/>
</g>
<g>
</g>
<g>
</g>
<g>
</g>
<g>
</g>
<g>
</g>
<g>
</g>
<g>
</g>
<g>
</g>
<g>
</g>
<g>
</g>
<g>
</g>
<g>
</g>
<g>
</g>
<g>
</g>
<g>
</g>
</svg>
