<?xml version="1.0" encoding="iso-8859-1"?>
<!-- Generator: Adobe Illustrator 19.0.0, SVG Export Plug-In . SVG Version: 6.00 Build 0)  -->
<svg version="1.1" id="Layer_1" xmlns="http://www.w3.org/2000/svg" xmlns:xlink="http://www.w3.org/1999/xlink" x="0px" y="0px"
	 viewBox="0 0 512 512" style="enable-background:new 0 0 512 512;" xml:space="preserve">
<path style="fill:#E6B78A;" d="M495.304,105.739H16.696C7.473,105.739,0,98.266,0,89.043V22.261C0,13.038,7.473,5.565,16.696,5.565
	h478.609c9.217,0,16.696,7.473,16.696,16.696v66.783C512,98.266,504.521,105.739,495.304,105.739z"/>
<path style="fill:#D99E62;" d="M495.304,5.565H256v100.174h239.304c9.217,0,16.696-7.473,16.696-16.696V22.261
	C512,13.038,504.521,5.565,495.304,5.565z"/>
<path style="fill:#E6B78A;" d="M0,172.522v133.565h155.826c0-11.72,2.129-22.929,5.845-33.391
	c13.797-38.842,50.816-66.783,94.329-66.783s80.532,27.941,94.329,66.783c3.716,10.463,5.845,21.671,5.845,33.391H512V172.522H0z"/>
<path style="fill:#D99E62;" d="M256,205.913c43.513,0,80.532,27.941,94.329,66.783c3.716,10.463,5.845,21.671,5.845,33.391H512
	V172.522H256V205.913z"/>
<path style="fill:#FFD9B3;" d="M512,205.913H0V72.348h512V205.913z"/>
<rect x="256" y="72.348" style="fill:#FFC080;" width="256" height="133.565"/>
<path style="fill:#E6B78A;" d="M33.391,172.522h445.217v-66.783H33.391V172.522z"/>
<g>
	<rect x="256" y="105.739" style="fill:#D99E62;" width="222.609" height="66.783"/>
	<path style="fill:#D99E62;" d="M356.174,489.739c0,9.223,7.473,16.696,16.696,16.696h122.435c9.217,0,16.696-7.473,16.696-16.696
		v-83.478H356.174V489.739z"/>
</g>
<path style="fill:#E6B78A;" d="M0,489.739c0,9.223,7.473,16.696,16.696,16.696H139.13c9.223,0,16.696-7.473,16.696-16.696v-83.478H0
	V489.739z"/>
<path style="fill:#EFBE44;" d="M256,439.652c-36.826,0-66.783-29.956-66.783-66.783c0-8.614,1.619-17,4.815-24.924l46.875-99.092
	c2.76-5.826,8.636-9.549,15.087-9.549H256c6.451,0,12.32,3.712,15.087,9.543l45.87,96.728c0.066,0.141,0.13,0.283,0.196,0.43
	c3.733,8.489,5.63,17.527,5.63,26.864C322.783,409.696,292.826,439.652,256,439.652z"/>
<path style="fill:#95673F;" d="M306.087,506.435H205.913c-9.223,0-16.696-7.473-16.696-16.696s7.473-16.696,16.696-16.696h100.174
	c9.223,0,16.696,7.473,16.696,16.696S315.31,506.435,306.087,506.435z"/>
<path style="fill:#E4A738;" d="M322.783,372.87c0-9.337-1.897-18.375-5.631-26.864c-0.066-0.147-0.13-0.288-0.196-0.43
	l-45.87-96.728c-2.766-5.831-8.635-9.543-15.086-9.543v200.348C292.826,439.652,322.783,409.696,322.783,372.87z"/>
<path style="fill:#875334;" d="M306.087,473.043H256v33.391h50.087c9.223,0,16.696-7.473,16.696-16.696
	S315.31,473.043,306.087,473.043z"/>
<g>
	<rect x="89.043" y="72.348" style="fill:#FFD9B3;" width="33.391" height="133.565"/>
	<rect x="189.217" y="72.348" style="fill:#FFD9B3;" width="33.391" height="133.565"/>
</g>
<g>
	<rect x="289.391" y="72.348" style="fill:#FFC080;" width="33.391" height="133.565"/>
	<rect x="389.565" y="72.348" style="fill:#FFC080;" width="33.391" height="133.565"/>
	<polygon style="fill:#FFC080;" points="356.174,372.87 356.174,406.261 512,406.261 512,372.87 512,306.087 356.174,306.087 	"/>
</g>
<polygon style="fill:#FFD9B3;" points="0,372.87 0,406.261 155.826,406.261 155.826,372.87 155.826,306.087 0,306.087 "/>
<g>
</g>
<g>
</g>
<g>
</g>
<g>
</g>
<g>
</g>
<g>
</g>
<g>
</g>
<g>
</g>
<g>
</g>
<g>
</g>
<g>
</g>
<g>
</g>
<g>
</g>
<g>
</g>
<g>
</g>
</svg>
