<?xml version="1.0" encoding="iso-8859-1"?>
<!-- Generator: Adobe Illustrator 19.0.0, SVG Export Plug-In . SVG Version: 6.00 Build 0)  -->
<svg version="1.1" id="Layer_1" xmlns="http://www.w3.org/2000/svg" xmlns:xlink="http://www.w3.org/1999/xlink" x="0px" y="0px"
	 viewBox="0 0 512 512" style="enable-background:new 0 0 512 512;" xml:space="preserve">
<path style="fill:#615349;" d="M428.522,506.435c-9.217,0-16.696-7.473-16.696-16.696v-33.391c0-9.223,7.479-16.696,16.696-16.696
	c9.217,0,16.696,7.473,16.696,16.696v33.391C445.217,498.962,437.739,506.435,428.522,506.435z"/>
<path style="fill:#6E6057;" d="M83.478,506.435c-9.217,0-16.696-7.473-16.696-16.696v-33.391c0-9.223,7.479-16.696,16.696-16.696
	s16.696,7.473,16.696,16.696v33.391C100.174,498.962,92.695,506.435,83.478,506.435z"/>
<path style="fill:#615349;" d="M445.217,172.522h-89.043V72.348h72.348c9.22,0,16.696,7.475,16.696,16.696V172.522z"/>
<path style="fill:#6E6057;" d="M166.957,172.522H66.783V89.043c0-9.22,7.475-16.696,16.696-16.696h83.478V172.522z"/>
<path style="fill:#DDEBFF;" d="M361.739,5.565H150.261c-9.217,0-16.696,7.473-16.696,16.696v133.565
	c0,9.223,7.479,16.696,16.696,16.696h211.478c9.217,0,16.696-7.473,16.696-16.696V22.261
	C378.435,13.038,370.956,5.565,361.739,5.565z"/>
<path style="fill:#C5DCFD;" d="M361.739,5.565H256v166.957h105.739c9.217,0,16.696-7.473,16.696-16.696V22.261
	C378.435,13.038,370.956,5.565,361.739,5.565z"/>
<path style="fill:#6BBAE2;" d="M418.783,139.13H93.217C41.815,139.13,0,180.945,0,232.348v190.609
	c0,27.619,22.468,50.087,50.087,50.087h411.826c27.619,0,50.087-22.468,50.087-50.087V232.348
	C512,180.945,470.185,139.13,418.783,139.13z"/>
<path style="fill:#60AED5;" d="M418.783,139.13H256v333.913h205.913c27.619,0,50.087-22.468,50.087-50.087V232.348
	C512,180.945,470.185,139.13,418.783,139.13z"/>
<path style="fill:#6E6057;" d="M395.13,306.087H116.87c-27.619,0-50.087,22.468-50.087,50.087l0,0
	c0,27.619,22.468,50.087,50.087,50.087H395.13c27.619,0,50.087-22.468,50.087-50.087l0,0
	C445.217,328.555,422.749,306.087,395.13,306.087z"/>
<path style="fill:#DDEBFF;" d="M361.739,506.435H150.261c-9.22,0-16.696-7.475-16.696-16.696V306.087h244.87v183.652
	C378.435,498.96,370.96,506.435,361.739,506.435z M133.565,489.739V306.087h244.87v183.652"/>
<g>
	<path style="fill:#A1AAB3;" d="M294.957,372.87h-77.913c-9.217,0-16.696-7.473-16.696-16.696s7.479-16.696,16.696-16.696h77.913
		c9.217,0,16.696,7.473,16.696,16.696S304.174,372.87,294.957,372.87z"/>
	<path style="fill:#A1AAB3;" d="M294.957,439.652h-77.913c-9.217,0-16.696-7.473-16.696-16.696s7.479-16.696,16.696-16.696h77.913
		c9.217,0,16.696,7.473,16.696,16.696S304.174,439.652,294.957,439.652z"/>
</g>
<circle style="fill:#C5DCFD;" cx="311.652" cy="222.609" r="16.696"/>
<circle style="fill:#FF6243;" cx="378.435" cy="222.609" r="16.696"/>
<path style="fill:#615349;" d="M395.13,306.087H256v100.174h139.13c27.619,0,50.087-22.468,50.087-50.087l0,0
	C445.217,328.555,422.749,306.087,395.13,306.087z"/>
<path style="fill:#C5DCFD;" d="M256,506.435h105.739c9.22,0,16.696-7.475,16.696-16.696V306.087H256V506.435z"/>
<g>
	<path style="fill:#8A9199;" d="M294.957,406.261H256v33.391h38.957c9.217,0,16.696-7.473,16.696-16.696
		S304.174,406.261,294.957,406.261z"/>
	<path style="fill:#8A9199;" d="M294.957,339.478H256v33.391h38.957c9.217,0,16.696-7.473,16.696-16.696
		S304.174,339.478,294.957,339.478z"/>
</g>
<g>
</g>
<g>
</g>
<g>
</g>
<g>
</g>
<g>
</g>
<g>
</g>
<g>
</g>
<g>
</g>
<g>
</g>
<g>
</g>
<g>
</g>
<g>
</g>
<g>
</g>
<g>
</g>
<g>
</g>
</svg>
