<?xml version="1.0" encoding="iso-8859-1"?>
<!-- Generator: Adobe Illustrator 19.0.0, SVG Export Plug-In . SVG Version: 6.00 Build 0)  -->
<svg version="1.1" id="Layer_1" xmlns="http://www.w3.org/2000/svg" xmlns:xlink="http://www.w3.org/1999/xlink" x="0px" y="0px"
	 viewBox="0 0 512 512" style="enable-background:new 0 0 512 512;" xml:space="preserve">
<path style="fill:#806F65;" d="M289.39,506.436h-66.783c-9.217,0-16.696-7.473-16.696-16.696V55.651
	c0-27.619,22.468-50.087,50.087-50.087s50.087,22.468,50.087,50.087V489.74C306.086,498.963,298.608,506.436,289.39,506.436z"/>
<path style="fill:#6E6057;" d="M289.39,506.436c9.217,0,16.696-7.473,16.696-16.696V55.651c0-27.619-22.468-50.087-50.087-50.087
	v500.872H289.39z"/>
<path style="fill:#9DCA40;" d="M428.521,406.262h-222.61V239.304h222.61c4.427,0,8.672,1.759,11.802,4.889l66.786,66.786
	c6.519,6.519,6.519,17.09,0,23.609l-66.786,66.786C437.193,404.503,432.948,406.262,428.521,406.262z"/>
<path style="fill:#8EB043;" d="M440.326,244.196c-3.131-3.131-7.381-4.892-11.804-4.892H256v166.957h172.523
	c4.424,0,8.674-1.761,11.804-4.892l66.783-66.783c6.521-6.516,6.521-17.092,0-23.609L440.326,244.196z"/>
<path style="fill:#E79D2E;" d="M306.086,239.304H83.476c-4.427,0-8.672-1.759-11.802-4.889L4.889,167.631
	c-6.519-6.519-6.519-17.09,0-23.609l66.786-66.786c3.13-3.13,7.375-4.889,11.802-4.889h222.61v166.957H306.086z"/>
<rect x="256.001" y="72.347" style="fill:#D8842A;" width="50.087" height="166.957"/>
<g>
</g>
<g>
</g>
<g>
</g>
<g>
</g>
<g>
</g>
<g>
</g>
<g>
</g>
<g>
</g>
<g>
</g>
<g>
</g>
<g>
</g>
<g>
</g>
<g>
</g>
<g>
</g>
<g>
</g>
</svg>
