<?xml version="1.0" encoding="iso-8859-1"?>
<!-- Generator: Adobe Illustrator 19.0.0, SVG Export Plug-In . SVG Version: 6.00 Build 0)  -->
<svg version="1.1" id="Layer_1" xmlns="http://www.w3.org/2000/svg" xmlns:xlink="http://www.w3.org/1999/xlink" x="0px" y="0px"
	 viewBox="0 0 512 512" style="enable-background:new 0 0 512 512;" xml:space="preserve">
<path style="fill:#DBE9FD;" d="M339.481,278.261H172.525c-82.853,0-150.261,67.408-150.261,150.261v33.391
	c0,27.619,22.468,50.087,50.087,50.087h367.304c27.615,0,50.081-22.468,50.081-50.087v-33.391
	C489.737,345.669,422.335,278.261,339.481,278.261z"/>
<path style="fill:#C5DCFD;" d="M339.481,278.261h-83.484V512h183.658c27.615,0,50.081-22.468,50.081-50.087v-33.391
	C489.737,345.669,422.335,278.261,339.481,278.261z"/>
<path style="fill:#FFD9B3;" d="M388.204,113.615c-1.191-8.209-8.229-14.298-16.523-14.298h-32.2
	c-28.02,0-54.029-13.954-69.577-37.329c-1.936-2.911-4.703-5.094-7.87-6.322c-1.898-0.736-3.939-1.128-6.033-1.128
	c-5.589,0-10.808,2.798-13.902,7.453c-15.536,23.372-41.544,37.325-69.574,37.325h-32.2c-8.294,0-15.331,6.089-16.523,14.298
	c-0.905,6.24-1.365,12.663-1.365,19.093v33.391c0,47.199,25.232,91.374,66.783,115.505v85.701h133.565v-85.702
	c41.551-24.131,66.783-68.305,66.783-115.504v-33.391C389.568,126.278,389.109,119.855,388.204,113.615z"/>
<path style="fill:#FFC080;" d="M371.681,99.316h-32.2c-28.02,0-54.029-13.954-69.577-37.329c-1.936-2.911-4.703-5.094-7.87-6.322
	c-1.897-0.735-3.938-1.128-6.03-1.128v312.765h66.783V281.6c41.551-24.131,66.783-68.305,66.783-115.504v-33.391
	c0-6.43-0.459-12.853-1.365-19.093C387.014,105.406,379.976,99.316,371.681,99.316z"/>
<path style="fill:#A9B0B7;" d="M255.998,97.948V0c73.127,0,133.343,59.993,133.565,133.12
	C336.694,133.12,294.731,138.129,255.998,97.948z"/>
<rect x="239.305" y="361.739" style="fill:#FF6243;" width="33.391" height="150.261"/>
<rect x="256.001" y="361.739" style="fill:#FF3501;" width="16.696" height="150.261"/>
<path style="fill:#6E6057;" d="M255.998,0c-74.685,0-133.343,61.329-133.565,133.12c53.871,0,86.038,5.899,130.671-38.066
	c0.89,1.002,1.781,2.003,2.894,2.894c38.734,40.181,80.696,35.172,133.565,35.172C389.34,59.993,329.125,0,255.998,0z"/>
<path style="fill:#615349;" d="M389.564,133.12c-52.87,0-94.831,5.009-133.565-35.172V0C329.125,0,389.34,59.993,389.564,133.12z"/>
<path style="fill:#C5DCFD;" d="M186.194,392.265c-12.613-12.613-19.56-29.383-19.56-47.222c0-17.839,6.947-34.61,19.56-47.222
	l2.863-2.864l66.784,66.781l-50.087,50.087L186.194,392.265z"/>
<path style="fill:#B1C6E4;" d="M255.84,361.739l66.783-66.783l2.864,2.865c12.614,12.613,19.56,29.383,19.56,47.222
	c0,17.839-6.946,34.61-19.56,47.222l-19.56,19.561L255.84,361.739z"/>
<g>
</g>
<g>
</g>
<g>
</g>
<g>
</g>
<g>
</g>
<g>
</g>
<g>
</g>
<g>
</g>
<g>
</g>
<g>
</g>
<g>
</g>
<g>
</g>
<g>
</g>
<g>
</g>
<g>
</g>
</svg>
