<?xml version="1.0" encoding="iso-8859-1"?>
<!-- Generator: Adobe Illustrator 19.0.0, SVG Export Plug-In . SVG Version: 6.00 Build 0)  -->
<svg version="1.1" id="Layer_1" xmlns="http://www.w3.org/2000/svg" xmlns:xlink="http://www.w3.org/1999/xlink" x="0px" y="0px"
	 viewBox="0 0 512 512" style="enable-background:new 0 0 512 512;" xml:space="preserve">
<path style="fill:#EFBE44;" d="M477.722,158.839c0,10.384-1.117,20.768-3.238,30.815l-163.461-27.244l-133.65-22.219
	c8.597-70.007,64.759-123.936,133.65-131.193c5.248-0.558,10.607-0.893,15.966-0.893C410.06,8.106,477.722,75.657,477.722,158.839z"
	/>
<path style="fill:#E4A738;" d="M477.722,158.839c0,10.384-1.117,20.768-3.238,30.815l-163.461-27.244V8.999
	c5.248-0.558,10.607-0.893,15.966-0.893C410.06,8.106,477.722,75.657,477.722,158.839z"/>
<path style="fill:#A1AAB3;" d="M510.101,186.306c-2.121-5.471-7.034-9.491-12.952-10.495l-186.127-31.04l-167.481-27.931v220.274
	c0.558,0.163,1.091,0.375,1.675,0.482l165.806,30.147l26.797,4.913c3.015,0.558,6.029,0.893,9.044,0.893
	c15.073,0,29.477-6.811,39.189-18.87l121.479-151.849C511.218,198.141,512.223,191.888,510.101,186.306z"/>
<path style="fill:#8A9199;" d="M507.533,202.83L386.054,354.68c-9.714,12.059-24.117,18.869-39.189,18.869
	c-3.015,0-6.029-0.335-9.044-0.893l-26.797-4.913V144.77l186.127,31.04c5.918,1.005,10.83,5.024,12.952,10.495
	C512.223,191.888,511.218,198.141,507.533,202.83z"/>
<path style="fill:#BFC5CC;" d="M434.288,411.512c-8.821,2.791-18.2-2.233-20.879-11.055l-31.933-103.39
	c-4.131-13.51-11.165-23.002-25.457-25.793c-13.51-2.568-27.133,3.685-33.831,15.743l-11.165,19.763l-59.735,105.848
	c-30.035,53.147-111.096,34.948-115.673-25.904l-20.768-279.581c-2.345-31.821-25.904-58.395-57.278-64.424l-43.21-6.253
	c-9.156-1.34-15.52-9.826-14.18-18.981c1.341-9.156,9.826-15.52,18.981-14.18l43.992,6.364c47.006,9.156,81.619,48.123,85.08,95.017
	l20.879,279.581c2.01,27.913,39.191,36.176,52.925,11.835l70.9-125.611c4.578-8.264,10.83-15.185,18.088-20.433
	c14.403-10.719,32.938-15.185,51.472-11.612c25.234,4.912,45.331,24.229,51.137,49.351l31.71,102.833
	C448.133,399.453,443.109,408.832,434.288,411.512z"/>
<path style="fill:#D8842A;" d="M375.413,128.226c-4.285,0-8.582-1.636-11.852-4.912c-9.486-9.503-22.102-14.736-35.491-14.736
	c-9.246,0-16.748-7.496-16.748-16.748s7.502-16.748,16.748-16.748c22.353,0,43.364,8.724,59.197,24.561
	c6.532,6.542,6.532,17.146-0.011,23.683C383.983,126.59,379.699,128.226,375.413,128.226z"/>
<path style="fill:#AFB9BF;" d="M434.288,411.512c-8.821,2.791-18.2-2.233-20.879-11.055l-31.933-103.39
	c-4.131-13.51-11.165-23.002-25.457-25.793c-13.51-2.568-27.133,3.685-33.831,15.743l-11.165,19.763v-56.72
	c14.403-10.719,32.938-15.185,51.472-11.612c25.234,4.912,45.331,24.229,51.137,49.351l31.71,102.833
	C448.133,399.453,443.109,408.832,434.288,411.512z"/>
<path d="M445.007,508.874c-36.942,0-66.992-30.051-66.992-66.992s30.051-66.992,66.992-66.992S512,404.94,512,441.881
	S481.949,508.874,445.007,508.874z"/>
<path style="fill:#6E6057;" d="M445.007,508.874c-36.942,0-66.992-30.051-66.992-66.992s30.051-66.992,66.992-66.992
	S512,404.94,512,441.881S481.949,508.874,445.007,508.874z"/>
<path style="fill:#615349;" d="M512,441.881c0-36.942-30.051-66.992-66.992-66.992v133.985C481.949,508.874,512,478.823,512,441.881
	z"/>
<path style="fill:#DBE9FD;" d="M445.007,408.385c-18.471,0-33.496,15.025-33.496,33.496c0,18.471,15.025,33.496,33.496,33.496
	c18.471,0,33.496-15.025,33.496-33.496C478.503,423.411,463.478,408.385,445.007,408.385z"/>
<path style="fill:#C5DCFD;" d="M478.503,441.881c0-18.471-15.025-33.496-33.496-33.496v66.992
	C463.478,475.378,478.503,460.352,478.503,441.881z"/>
<g>
</g>
<g>
</g>
<g>
</g>
<g>
</g>
<g>
</g>
<g>
</g>
<g>
</g>
<g>
</g>
<g>
</g>
<g>
</g>
<g>
</g>
<g>
</g>
<g>
</g>
<g>
</g>
<g>
</g>
</svg>
