<?xml version="1.0" encoding="iso-8859-1"?>
<!-- Generator: Adobe Illustrator 19.0.0, SVG Export Plug-In . SVG Version: 6.00 Build 0)  -->
<svg version="1.1" id="Layer_1" xmlns="http://www.w3.org/2000/svg" xmlns:xlink="http://www.w3.org/1999/xlink" x="0px" y="0px"
	 viewBox="0 0 512 512" style="enable-background:new 0 0 512 512;" xml:space="preserve">
<path style="fill:#E6B78A;" d="M489.739,512H22.261c-9.22,0-16.696-7.475-16.696-16.696v-128h500.87v128
	C506.435,504.525,498.96,512,489.739,512z"/>
<path style="fill:#D99E62;" d="M256,512h233.739c9.22,0,16.696-7.475,16.696-16.696v-128H256V512z"/>
<rect x="38.957" y="200.348" style="fill:#E6B78A;" width="434.087" height="100.174"/>
<rect x="256" y="200.348" style="fill:#D99E62;" width="217.043" height="100.174"/>
<path style="fill:#FF3501;" d="M456.348,233.739H55.652c-27.619,0-50.087-22.468-50.087-50.087c0-9.217,7.479-16.696,16.696-16.696
	c27.619,0,50.087-22.468,50.087-50.087c0-9.217,7.479-16.696,16.696-16.696h333.913c9.217,0,16.696,7.479,16.696,16.696
	c0,27.619,22.468,50.087,50.087,50.087c9.217,0,16.696,7.479,16.696,16.696C506.435,211.271,483.967,233.739,456.348,233.739z"/>
<path style="fill:#CD2A00;" d="M489.739,166.957c-27.619,0-50.087-22.468-50.087-50.087c0-9.217-7.479-16.696-16.696-16.696H256
	v133.565h200.348c27.619,0,50.087-22.468,50.087-50.087C506.435,174.435,498.956,166.957,489.739,166.957z"/>
<path style="fill:#FF6243;" d="M422.957,133.565H89.043c-27.619,0-50.087-22.468-50.087-50.087c0-9.217,7.479-16.696,16.696-16.696
	c27.619,0,50.087-22.468,50.087-50.087C105.739,7.479,113.218,0,122.435,0h267.13c9.217,0,16.696,7.479,16.696,16.696
	c0,27.619,22.468,50.087,50.087,50.087c9.217,0,16.696,7.479,16.696,16.696C473.043,111.097,450.576,133.565,422.957,133.565z"/>
<path style="fill:#FF3501;" d="M456.348,66.783c-27.619,0-50.087-22.468-50.087-50.087C406.261,7.479,398.782,0,389.565,0H256
	v133.565h166.957c27.619,0,50.087-22.468,50.087-50.087C473.043,74.261,465.565,66.783,456.348,66.783z"/>
<path style="fill:#FFD9B3;" d="M506.435,400.696H5.565v-116.87c0-9.22,7.475-16.696,16.696-16.696h467.478
	c9.22,0,16.696,7.475,16.696,16.696V400.696z"/>
<path style="fill:#FFC080;" d="M489.739,267.13H256v133.565h250.435v-116.87C506.435,274.606,498.96,267.13,489.739,267.13z"/>
<path style="fill:#6E6057;" d="M256,333.913c-3.673,0-7.346,0.223-11.019,0.668c-42.073,5.454-72.459,43.297-72.459,85.704V512
	h166.957v-94.609C339.478,371.311,302.08,334.024,256,333.913z"/>
<path style="fill:#615349;" d="M339.478,417.391V512H256V333.913C302.08,334.024,339.478,371.311,339.478,417.391z"/>
<g>
</g>
<g>
</g>
<g>
</g>
<g>
</g>
<g>
</g>
<g>
</g>
<g>
</g>
<g>
</g>
<g>
</g>
<g>
</g>
<g>
</g>
<g>
</g>
<g>
</g>
<g>
</g>
<g>
</g>
</svg>
