<?xml version="1.0" encoding="iso-8859-1"?>
<!-- Generator: Adobe Illustrator 19.0.0, SVG Export Plug-In . SVG Version: 6.00 Build 0)  -->
<svg version="1.1" id="Layer_1" xmlns="http://www.w3.org/2000/svg" xmlns:xlink="http://www.w3.org/1999/xlink" x="0px" y="0px"
	 viewBox="0 0 512 512" style="enable-background:new 0 0 512 512;" xml:space="preserve">
<path style="fill:#E8C870;" d="M289.391,66.783h-66.783c-9.217,0-16.696-7.473-16.696-16.696s7.479-16.696,16.696-16.696h66.783
	c9.217,0,16.696,7.473,16.696,16.696S298.608,66.783,289.391,66.783z"/>
<path style="fill:#DFB562;" d="M289.391,33.391H256v33.391h33.391c9.217,0,16.696-7.473,16.696-16.696
	S298.608,33.391,289.391,33.391z"/>
<path style="fill:#E8C870;" d="M289.391,400.696h-66.783c-9.217,0-16.696-7.473-16.696-16.696c0-9.223,7.479-16.696,16.696-16.696
	h66.783c9.217,0,16.696,7.473,16.696,16.696C306.087,393.223,298.608,400.696,289.391,400.696z"/>
<path style="fill:#DFB562;" d="M289.391,367.304H256v33.391h33.391c9.217,0,16.696-7.473,16.696-16.696
	C306.087,374.777,298.608,367.304,289.391,367.304z"/>
<path style="fill:#E8C870;" d="M155.826,66.783H89.043c-9.217,0-16.696-7.473-16.696-16.696s7.479-16.696,16.696-16.696h66.783
	c9.217,0,16.696,7.473,16.696,16.696S165.043,66.783,155.826,66.783z"/>
<path style="fill:#DFB562;" d="M422.957,66.783h-66.783c-9.217,0-16.696-7.473-16.696-16.696s7.479-16.696,16.696-16.696h66.783
	c9.217,0,16.696,7.473,16.696,16.696S432.174,66.783,422.957,66.783z"/>
<path style="fill:#E8C870;" d="M155.826,400.696H89.043c-9.217,0-16.696-7.473-16.696-16.696c0-9.223,7.479-16.696,16.696-16.696
	h66.783c9.217,0,16.696,7.473,16.696,16.696C172.522,393.223,165.043,400.696,155.826,400.696z"/>
<path style="fill:#DFB562;" d="M422.957,400.696h-66.783c-9.217,0-16.696-7.473-16.696-16.696c0-9.223,7.479-16.696,16.696-16.696
	h66.783c9.217,0,16.696,7.473,16.696,16.696C439.652,393.223,432.174,400.696,422.957,400.696z"/>
<path style="fill:#737980;" d="M489.739,512h-44.522c-9.217,0-16.696-7.473-16.696-16.696s7.479-16.696,16.696-16.696h27.826V384
	c0-9.223,7.479-16.696,16.696-16.696c9.217,0,16.696,7.473,16.696,16.696v111.304C506.435,504.527,498.956,512,489.739,512z"/>
<path style="fill:#899199;" d="M77.913,512H22.261c-9.217,0-16.696-7.473-16.696-16.696V384c0-9.223,7.479-16.696,16.696-16.696
	S38.957,374.777,38.957,384v94.609h38.957c9.217,0,16.696,7.473,16.696,16.696S87.13,512,77.913,512z"/>
<path style="fill:#B1C6E4;" d="M489.739,400.696H22.261c-9.22,0-16.696-7.475-16.696-16.696V50.087
	c0-9.22,7.475-16.696,16.696-16.696h467.478c9.22,0,16.696,7.475,16.696,16.696V384C506.435,393.22,498.96,400.696,489.739,400.696z
	"/>
<path style="fill:#9DB0CA;" d="M489.739,33.391H256v367.304h233.739c9.22,0,16.696-7.475,16.696-16.696V50.087
	C506.435,40.867,498.96,33.391,489.739,33.391z"/>
<path style="fill:#DBE9FD;" d="M55.652,434.087c-27.619,0-50.087-22.468-50.087-50.087V50.087C5.565,22.468,28.033,0,55.652,0
	s50.087,22.468,50.087,50.087V384C105.739,411.619,83.271,434.087,55.652,434.087z"/>
<path style="fill:#C5DCFD;" d="M105.739,384V50.087C105.739,22.468,83.271,0,55.652,0v434.087
	C83.271,434.087,105.739,411.619,105.739,384z"/>
<path style="fill:#DBE9FD;" d="M189.217,434.087c-27.619,0-50.087-22.468-50.087-50.087V50.087C139.13,22.468,161.598,0,189.217,0
	s50.087,22.468,50.087,50.087V384C239.304,411.619,216.836,434.087,189.217,434.087z"/>
<path style="fill:#C5DCFD;" d="M239.304,384V50.087C239.304,22.468,216.836,0,189.217,0v434.087
	C216.836,434.087,239.304,411.619,239.304,384z"/>
<path style="fill:#DBE9FD;" d="M322.783,434.087c-27.619,0-50.087-22.468-50.087-50.087V50.087C272.696,22.468,295.164,0,322.783,0
	s50.087,22.468,50.087,50.087V384C372.87,411.619,350.402,434.087,322.783,434.087z"/>
<path style="fill:#C5DCFD;" d="M372.87,384V50.087C372.87,22.468,350.402,0,322.783,0v434.087
	C350.402,434.087,372.87,411.619,372.87,384z"/>
<path style="fill:#DBE9FD;" d="M456.348,434.087c-27.619,0-50.087-22.468-50.087-50.087V50.087C406.261,22.468,428.729,0,456.348,0
	s50.087,22.468,50.087,50.087V384C506.435,411.619,483.967,434.087,456.348,434.087z"/>
<path style="fill:#C5DCFD;" d="M506.435,384V50.087C506.435,22.468,483.967,0,456.348,0v434.087
	C483.967,434.087,506.435,411.619,506.435,384z"/>
<g>
</g>
<g>
</g>
<g>
</g>
<g>
</g>
<g>
</g>
<g>
</g>
<g>
</g>
<g>
</g>
<g>
</g>
<g>
</g>
<g>
</g>
<g>
</g>
<g>
</g>
<g>
</g>
<g>
</g>
</svg>
