<?xml version="1.0" encoding="iso-8859-1"?>
<!-- Generator: Adobe Illustrator 19.0.0, SVG Export Plug-In . SVG Version: 6.00 Build 0)  -->
<svg version="1.1" id="Layer_1" xmlns="http://www.w3.org/2000/svg" xmlns:xlink="http://www.w3.org/1999/xlink" x="0px" y="0px"
	 viewBox="0 0 512 512" style="enable-background:new 0 0 512 512;" xml:space="preserve">
<path style="fill:#C5DCFD;" d="M467.131,445.217H44.87c-24.74,0-44.87-20.13-44.87-44.869V44.87C0,20.131,20.131,0,44.87,0h422.261
	C491.869,0,512,20.131,512,44.87v355.478C512,425.087,491.869,445.217,467.131,445.217z"/>
<path style="fill:#B1C6E4;" d="M467.131,0H256v445.217h211.131c24.739,0,44.869-20.13,44.869-44.869V44.87
	C512,20.131,491.869,0,467.131,0z"/>
<path style="fill:#8EB043;" d="M418.261,178.087H294.087c-21,0-38.087-17.087-38.087-38.087v-35.13
	c0-21,17.087-38.087,38.087-38.087h124.174c20.999,0,38.086,17.087,38.086,38.087v35.131
	C456.348,160.999,439.26,178.087,418.261,178.087z"/>
<g>
	<circle style="fill:#615349;" cx="289.391" cy="228.174" r="16.696"/>
	<circle style="fill:#615349;" cx="289.391" cy="294.957" r="16.696"/>
	<circle style="fill:#615349;" cx="289.391" cy="361.739" r="16.696"/>
	<circle style="fill:#615349;" cx="356.174" cy="228.174" r="16.696"/>
	<circle style="fill:#615349;" cx="356.174" cy="294.957" r="16.696"/>
	<circle style="fill:#615349;" cx="356.174" cy="361.739" r="16.696"/>
	<circle style="fill:#615349;" cx="422.957" cy="228.174" r="16.696"/>
	<circle style="fill:#615349;" cx="422.957" cy="294.957" r="16.696"/>
	<circle style="fill:#615349;" cx="422.957" cy="361.739" r="16.696"/>
</g>
<path style="fill:#6E6057;" d="M183.652,445.217v16.696c0,9.206-7.49,16.696-16.696,16.696s-16.696-7.49-16.696-16.696V361.739
	c0-9.217-7.473-16.696-16.696-16.696s-16.696,7.479-16.696,16.696v100.174c0,27.619,22.468,50.087,50.087,50.087
	s50.087-22.468,50.087-50.087v-16.696H183.652z"/>
<g>
	<path style="fill:#615349;" d="M200.348,126.782c0-33.081-26.919-60-60-60h-13.566c-33.081,0-60,26.919-60,60v6.783h133.565
		V126.782z"/>
	<path style="fill:#615349;" d="M66.783,318.435c0,33.086,26.919,60,60,60h13.566c33.081,0,60-26.913,60-60v-6.783H66.783V318.435z"
		/>
</g>
<rect x="66.783" y="133.565" style="fill:#6E6057;" width="133.565" height="178.087"/>
<g>
</g>
<g>
</g>
<g>
</g>
<g>
</g>
<g>
</g>
<g>
</g>
<g>
</g>
<g>
</g>
<g>
</g>
<g>
</g>
<g>
</g>
<g>
</g>
<g>
</g>
<g>
</g>
<g>
</g>
</svg>
