<?xml version="1.0" encoding="iso-8859-1"?>
<!-- Generator: Adobe Illustrator 19.0.0, SVG Export Plug-In . SVG Version: 6.00 Build 0)  -->
<svg version="1.1" id="Layer_1" xmlns="http://www.w3.org/2000/svg" xmlns:xlink="http://www.w3.org/1999/xlink" x="0px" y="0px"
	 viewBox="0 0 512 512" style="enable-background:new 0 0 512 512;" xml:space="preserve">
<path style="fill:#BFC5CC;" d="M506.435,133.565v83.478c0,27.603-22.483,50.087-50.087,50.087H273.363
	c-9.572,0-17.363,7.791-17.363,17.363v27.158c0,9.238-7.457,16.696-16.696,16.696s-16.696-7.457-16.696-16.696v-27.158
	c0-14.803,6.456-28.271,16.696-37.51c8.904-8.237,20.925-13.245,34.059-13.245h182.984c9.238,0,16.696-7.457,16.696-16.696v-83.478
	c0-9.238-7.457-16.696-16.696-16.696h-33.391c-9.238,0-16.696-7.457-16.696-16.696s7.457-16.696,16.696-16.696h33.391
	C483.951,83.478,506.435,105.962,506.435,133.565z"/>
<path style="fill:#AFB9BF;" d="M506.435,133.565v83.478c0,27.603-22.483,50.087-50.087,50.087H273.363
	c-9.572,0-17.363,7.791-17.363,17.363v27.158c0,9.238-7.457,16.696-16.696,16.696v-81.363c8.904-8.237,20.925-13.245,34.059-13.245
	h182.984c9.238,0,16.696-7.457,16.696-16.696v-83.478c0-9.238-7.457-16.696-16.696-16.696h-33.391
	c-9.238,0-16.696-7.457-16.696-16.696s7.457-16.696,16.696-16.696h33.391C483.951,83.478,506.435,105.962,506.435,133.565z"/>
<rect x="172.522" y="294.957" style="fill:#95673F;" width="133.565" height="105.739"/>
<rect x="239.304" y="294.957" style="fill:#875334;" width="66.783" height="105.739"/>
<path style="fill:#BFC5CC;" d="M55.652,116.87H22.261c-9.217,0-16.696-7.473-16.696-16.696s7.479-16.696,16.696-16.696h33.391
	c9.217,0,16.696,7.473,16.696,16.696S64.869,116.87,55.652,116.87z"/>
<path style="fill:#C9D0D7;" d="M306.087,328.348H172.522c-9.217,0-16.696-7.473-16.696-16.696s7.479-16.696,16.696-16.696h133.565
	c9.217,0,16.696,7.473,16.696,16.696S315.304,328.348,306.087,328.348z"/>
<path style="fill:#B8C2C9;" d="M306.087,294.957h-66.783v33.391h66.783c9.217,0,16.696-7.473,16.696-16.696
	S315.304,294.957,306.087,294.957z"/>
<path style="fill:#6E6057;" d="M172.522,367.304v77.913c0,36.826,29.956,66.783,66.783,66.783s66.783-29.956,66.783-66.783v-77.913
	H172.522z"/>
<path style="fill:#615349;" d="M239.304,512c36.826,0,66.783-29.956,66.783-66.783v-77.913h-66.783V512z"/>
<path style="fill:#9DCA40;" d="M391.68,0H86.929c-26.49,0-47.972,21.482-47.972,47.972v63.443
	c16.696,5.565,98.282,49.197,200.348,6.79c2.226-1.002,4.563-2.003,6.79-3.005c90.379-40.626,158.163-1.781,193.558,8.237
	c0-41.962,0-32.946,0-75.464C439.652,21.482,418.17,0,391.68,0z"/>
<path style="fill:#8EB043;" d="M439.652,47.972c0,42.518,0,33.503,0,75.464c-35.395-10.017-103.179-48.863-193.558-8.238
	c-2.226,1.002-4.563,2.005-6.79,3.005V0H391.68C418.17,0,439.652,21.482,439.652,47.972z"/>
<path style="fill:#FFD9B3;" d="M239.304,82.254c-2.226,0.89-4.452,1.892-6.79,2.894c-93.162,41.85-164.063-0.445-193.558-8.793
	v76.021c0,26.49,21.482,47.972,47.972,47.972H391.68c26.49,0,47.972-21.482,47.972-47.972c0-39.402,0-25.711,0-63.555
	C419.283,82.031,338.254,41.071,239.304,82.254z"/>
<path style="fill:#FFC080;" d="M439.652,88.821c0,37.843,0,24.153,0,63.555c0,26.49-21.482,47.972-47.972,47.972H239.304V82.254
	C338.254,41.071,419.283,82.031,439.652,88.821z"/>
<g>
</g>
<g>
</g>
<g>
</g>
<g>
</g>
<g>
</g>
<g>
</g>
<g>
</g>
<g>
</g>
<g>
</g>
<g>
</g>
<g>
</g>
<g>
</g>
<g>
</g>
<g>
</g>
<g>
</g>
</svg>
