<?xml version="1.0" encoding="iso-8859-1"?>
<!-- Generator: Adobe Illustrator 19.0.0, SVG Export Plug-In . SVG Version: 6.00 Build 0)  -->
<svg version="1.1" id="Layer_1" xmlns="http://www.w3.org/2000/svg" xmlns:xlink="http://www.w3.org/1999/xlink" x="0px" y="0px"
	 viewBox="0 0 512 512" style="enable-background:new 0 0 512 512;" xml:space="preserve">
<path style="fill:#95673F;" d="M294.957,139.13H50.087C23.407,139.13,0,162.532,0,189.217s23.407,50.087,50.087,50.087h244.87
	c9.223,0,16.696-7.479,16.696-16.696v-66.783C311.652,146.609,304.179,139.13,294.957,139.13z"/>
<path style="fill:#875334;" d="M461.913,239.304h-33.386c-9.223,0-16.696-7.479-16.696-16.696v-66.783
	c0-9.217,7.473-16.696,16.696-16.696h33.386c27.619,0,50.087,22.468,50.087,50.087S489.532,239.304,461.913,239.304z"/>
<rect x="278.261" y="83.478" style="fill:#EFBE44;" width="166.957" height="211.478"/>
<rect x="361.739" y="83.478" style="fill:#E4A738;" width="83.478" height="211.478"/>
<path style="fill:#95673F;" d="M495.299,506.435H228.174c-9.223,0-16.696-7.479-16.696-16.696v-33.391
	c0-27.619,22.468-50.087,50.087-50.087h200.342c27.619,0,50.087,22.468,50.087,50.087v33.391
	C511.994,498.956,504.516,506.435,495.299,506.435z"/>
<path style="fill:#875334;" d="M461.907,406.261H361.739v100.174h133.56c9.217,0,16.696-7.479,16.696-16.696v-33.391
	C511.994,428.729,489.528,406.261,461.907,406.261z"/>
<path style="fill:#95673F;" d="M428.527,372.87H294.962c-27.619,0-50.087-22.468-50.087-50.087s22.468-50.087,50.087-50.087h133.565
	c27.615,0,50.081,22.468,50.081,50.087S456.141,372.87,428.527,372.87z"/>
<path style="fill:#875334;" d="M428.527,272.696h-66.788V372.87h66.788c27.615,0,50.081-22.468,50.081-50.087
	S456.141,272.696,428.527,272.696z"/>
<path style="fill:#95673F;" d="M428.527,105.739H294.962c-27.619,0-50.087-22.468-50.087-50.087s22.468-50.087,50.087-50.087
	h133.565c27.613,0,50.081,22.468,50.081,50.087S456.141,105.739,428.527,105.739z"/>
<path style="fill:#875334;" d="M428.527,5.565h-66.788v100.174h66.788c27.613,0,50.081-22.468,50.081-50.087
	S456.141,5.565,428.527,5.565z"/>
<g>
</g>
<g>
</g>
<g>
</g>
<g>
</g>
<g>
</g>
<g>
</g>
<g>
</g>
<g>
</g>
<g>
</g>
<g>
</g>
<g>
</g>
<g>
</g>
<g>
</g>
<g>
</g>
<g>
</g>
</svg>
