<?xml version="1.0" encoding="iso-8859-1"?>
<!-- Generator: Adobe Illustrator 19.0.0, SVG Export Plug-In . SVG Version: 6.00 Build 0)  -->
<svg version="1.1" id="Layer_1" xmlns="http://www.w3.org/2000/svg" xmlns:xlink="http://www.w3.org/1999/xlink" x="0px" y="0px"
	 viewBox="0 0 511.999 511.999" style="enable-background:new 0 0 511.999 511.999;" xml:space="preserve">
<path style="fill:#DBE9FD;" d="M256,29.174L55.652,229.522v22.261v232.391c0,9.223,7.473,16.696,16.696,16.696h367.304
	c9.223,0,16.696-7.473,16.696-16.696V229.522L256,29.174z"/>
<path style="fill:#C5DCFD;" d="M256,29.174v471.696h183.652c9.223,0,16.696-7.473,16.696-16.696V229.522L256,29.174z"/>
<path style="fill:#615349;" d="M256,200.348c-55.236,0-100.174,44.938-100.174,100.174S200.764,400.696,256,400.696
	s100.174-44.938,100.174-100.174S311.236,200.348,256,200.348z"/>
<path style="fill:#594C43;" d="M356.174,300.522c0-55.236-44.938-100.174-100.174-100.174v200.348
	C311.236,400.696,356.174,355.758,356.174,300.522z"/>
<path style="fill:#B1C6E4;" d="M256,166.956c-73.648,0-133.565,59.917-133.565,133.565S182.352,434.087,256,434.087
	s133.565-59.917,133.565-133.565S329.648,166.956,256,166.956z M311.376,383.954c0.18-1.816,0.276-3.657,0.276-5.52
	c0-30.687-24.966-55.652-55.652-55.652c-9.22,0-16.696,7.475-16.696,16.696c0,9.22,7.475,16.696,16.696,16.696
	c12.275,0,22.261,9.986,22.261,22.261s-9.986,22.261-22.261,22.261c-34.776,0-65.466-17.816-83.433-44.798
	c1.816,0.18,3.657,0.276,5.52,0.276c30.687,0,55.652-24.966,55.652-55.652c0-9.22-7.475-16.696-16.696-16.696
	s-16.696,7.475-16.696,16.696c0,12.275-9.986,22.261-22.261,22.261s-22.261-9.986-22.261-22.261
	c0-34.776,17.816-65.466,44.798-83.433c-0.18,1.816-0.276,3.656-0.276,5.52c0,30.687,24.966,55.652,55.652,55.652
	c9.22,0,16.696-7.475,16.696-16.696c0-9.22-7.475-16.696-16.696-16.696c-12.275,0-22.261-9.986-22.261-22.261
	s9.986-22.261,22.261-22.261c34.776,0,65.466,17.816,83.433,44.798c-1.816-0.18-3.656-0.276-5.52-0.276
	c-30.687,0-55.652,24.966-55.652,55.652c0,9.22,7.475,16.696,16.696,16.696s16.696-7.475,16.696-16.696
	c0-12.275,9.986-22.261,22.261-22.261s22.261,9.986,22.261,22.261C356.174,335.298,338.358,365.987,311.376,383.954z"/>
<g>
	<path style="fill:#9DB0CA;" d="M339.433,245.145c-1.816-0.18-3.656-0.276-5.52-0.276c-30.687,0-55.652,24.966-55.652,55.652
		c0,9.22,7.475,16.696,16.696,16.696s16.696-7.475,16.696-16.696c0-12.275,9.986-22.261,22.261-22.261s22.261,9.986,22.261,22.261
		c0,34.776-17.816,65.466-44.798,83.433c0.18-1.816,0.276-3.657,0.276-5.52c0-30.687-24.966-55.652-55.652-55.652v33.391
		c12.275,0,22.261,9.986,22.261,22.261s-9.986,22.261-22.261,22.261v33.391c73.648,0,133.565-59.917,133.565-133.565
		S329.648,166.956,256,166.956v33.391C290.776,200.348,321.466,218.164,339.433,245.145z"/>
	<path style="fill:#9DB0CA;" d="M272.696,261.565c0-9.22-7.475-16.696-16.696-16.696v33.391
		C265.221,278.261,272.696,270.786,272.696,261.565z"/>
</g>
<path style="fill:#DBE9FD;" d="M256,356.174c-30.687,0-55.652-24.966-55.652-55.652s24.966-55.652,55.652-55.652
	s55.652,24.966,55.652,55.652S286.687,356.174,256,356.174z"/>
<path style="fill:#C5DCFD;" d="M311.652,300.522c0-30.687-24.966-55.652-55.652-55.652v111.304
	C286.687,356.174,311.652,331.208,311.652,300.522z"/>
<g>
	<path style="fill:#9DB0CA;" d="M256,278.261c-12.275,0-22.261,9.986-22.261,22.261s9.986,22.261,22.261,22.261
		c12.275,0,22.261-9.986,22.261-22.261S268.275,278.261,256,278.261z"/>
	<path style="fill:#9DB0CA;" d="M278.261,300.522c0-12.275-9.986-22.261-22.261-22.261v44.522
		C268.275,322.782,278.261,312.796,278.261,300.522z"/>
</g>
<path style="fill:#875334;" d="M456.348,233.739L356.174,133.565V94.609c0-9.22,7.475-16.696,16.696-16.696h66.783
	c9.22,0,16.696,7.475,16.696,16.696V233.739z"/>
<path style="fill:#FF6243;" d="M495.305,283.826c-4.272,0-8.544-1.631-11.804-4.892L256,51.435L28.5,278.934
	c-6.521,6.521-17.087,6.521-23.609,0c-6.521-6.516-6.521-17.092,0-23.609L244.195,16.021c6.521-6.521,17.087-6.521,23.609,0
	l239.304,239.304c6.521,6.516,6.521,17.092,0,23.609C503.848,282.195,499.576,283.826,495.305,283.826z"/>
<path style="fill:#FF3501;" d="M267.804,16.022c-3.26-3.261-7.532-4.892-11.804-4.892v40.304l227.501,227.501
	c3.261,3.261,7.533,4.892,11.804,4.892s8.544-1.631,11.804-4.892c6.521-6.516,6.521-17.092,0-23.609L267.804,16.022z"/>
<g>
</g>
<g>
</g>
<g>
</g>
<g>
</g>
<g>
</g>
<g>
</g>
<g>
</g>
<g>
</g>
<g>
</g>
<g>
</g>
<g>
</g>
<g>
</g>
<g>
</g>
<g>
</g>
<g>
</g>
</svg>
