<?xml version="1.0" encoding="iso-8859-1"?>
<!-- Generator: Adobe Illustrator 19.0.0, SVG Export Plug-In . SVG Version: 6.00 Build 0)  -->
<svg version="1.1" id="Layer_1" xmlns="http://www.w3.org/2000/svg" xmlns:xlink="http://www.w3.org/1999/xlink" x="0px" y="0px"
	 viewBox="0 0 512 512" style="enable-background:new 0 0 512 512;" xml:space="preserve">
<path style="fill:#C2CCD7;" d="M38.957,133.565v305.391C38.957,479.234,71.728,512,112,512h288
	c40.272,0,73.043-32.766,73.043-73.043V133.565H38.957z"/>
<path style="fill:#ABBDC9;" d="M256,512h144c40.272,0,73.043-32.766,73.043-73.043V133.565H256V512z"/>
<path style="fill:#DBE9FD;" d="M400,0H112C71.728,0,38.957,32.766,38.957,73.043v93.913h434.087V73.043
	C473.043,32.766,440.272,0,400,0z"/>
<path style="fill:#C5DCFD;" d="M400,0H256v166.957h217.043V73.043C473.043,32.766,440.272,0,400,0z"/>
<circle style="fill:#8EB043;" cx="389.565" cy="83.478" r="16.696"/>
<g>
	<path style="fill:#A1AAB3;" d="M172.522,100.174H139.13c-9.217,0-16.696-7.473-16.696-16.696s7.479-16.696,16.696-16.696h33.391
		c9.217,0,16.696,7.473,16.696,16.696S181.739,100.174,172.522,100.174z"/>
	<path style="fill:#A1AAB3;" d="M272.696,100.174h-33.391c-9.217,0-16.696-7.473-16.696-16.696s7.479-16.696,16.696-16.696h33.391
		c9.217,0,16.696,7.473,16.696,16.696S281.913,100.174,272.696,100.174z"/>
</g>
<path style="fill:#8A9199;" d="M272.696,66.783H256v33.391h16.696c9.217,0,16.696-7.473,16.696-16.696
	S281.913,66.783,272.696,66.783z"/>
<path style="fill:#8FF0F0;" d="M256,417.391c-55.239,0-100.174-44.94-100.174-100.174S200.761,217.043,256,217.043
	s100.174,44.94,100.174,100.174S311.239,417.391,256,417.391z"/>
<path style="fill:#DBE9FD;" d="M337.697,233.739c-21.036-20.591-49.864-33.391-81.697-33.391c-64.445,0-116.87,52.424-116.87,116.87
	s52.424,116.87,116.87,116.87c31.833,0,60.661-12.8,81.697-33.391c21.704-21.259,35.172-50.755,35.172-83.478
	S359.402,254.998,337.697,233.739z M256,400.696c-46.08,0-83.478-37.398-83.478-83.478S209.92,233.739,256,233.739
	c45.778,0,83.478,37.13,83.478,83.478C339.478,363.591,301.752,400.696,256,400.696z"/>
<path style="fill:#87D7D7;" d="M356.174,317.217c0-55.234-44.935-100.174-100.174-100.174v200.348
	C311.239,417.391,356.174,372.451,356.174,317.217z"/>
<path style="fill:#6BBAE2;" d="M356.174,317.217c0,27.047-10.685,52.536-30.163,71.569c-4.341,4.23-8.904,8.014-13.802,11.13
	c-22.929-2.783-43.075-15.026-56.209-32.835c-10.463-13.913-16.696-31.165-16.696-49.864c0-42.296,31.833-77.579,72.904-82.699
	c4.897,3.117,9.461,6.901,13.802,11.13C345.489,264.682,356.174,290.17,356.174,317.217z"/>
<path style="fill:#60AED5;" d="M312.209,234.518c-22.933,2.858-42.969,15.134-56.209,32.771v99.792
	c13.134,17.809,33.28,30.052,56.209,32.835c4.897-3.117,9.461-6.901,13.802-11.13c19.478-19.033,30.163-44.522,30.163-71.569
	s-10.685-52.536-30.163-71.569C321.67,241.419,317.106,237.635,312.209,234.518z"/>
<path style="fill:#C5DCFD;" d="M339.478,317.217c0,46.374-37.727,83.478-83.478,83.478v33.391c31.833,0,60.661-12.8,81.697-33.391
	c21.704-21.259,35.172-50.755,35.172-83.478s-13.468-62.219-35.172-83.478c-21.036-20.591-49.864-33.391-81.697-33.391v33.391
	C301.778,233.739,339.478,270.869,339.478,317.217z"/>
<g>
</g>
<g>
</g>
<g>
</g>
<g>
</g>
<g>
</g>
<g>
</g>
<g>
</g>
<g>
</g>
<g>
</g>
<g>
</g>
<g>
</g>
<g>
</g>
<g>
</g>
<g>
</g>
<g>
</g>
</svg>
