<?xml version="1.0" encoding="iso-8859-1"?>
<!-- Generator: Adobe Illustrator 19.0.0, SVG Export Plug-In . SVG Version: 6.00 Build 0)  -->
<svg version="1.1" id="Layer_1" xmlns="http://www.w3.org/2000/svg" xmlns:xlink="http://www.w3.org/1999/xlink" x="0px" y="0px"
	 viewBox="0 0 512 512" style="enable-background:new 0 0 512 512;" xml:space="preserve">
<path style="fill:#6E6057;" d="M370.783,512H141.217c-37.973,0-68.87-30.891-68.87-68.87V68.87c0-37.978,30.897-68.87,68.87-68.87
	h229.565c37.973,0,68.87,30.891,68.87,68.87V443.13C439.652,481.109,408.755,512,370.783,512z"/>
<path style="fill:#615349;" d="M370.783,0H256v512h114.783c37.973,0,68.87-30.891,68.87-68.87V68.87
	C439.652,30.891,408.755,0,370.783,0z"/>
<path style="fill:#DBE9FD;" d="M356.174,378.435H155.826c-9.223,0-16.696-7.479-16.696-16.696V150.261
	c0-9.217,7.473-16.696,16.696-16.696h200.348c9.223,0,16.696,7.479,16.696,16.696v211.478
	C372.87,370.956,365.397,378.435,356.174,378.435z"/>
<path style="fill:#C5DCFD;" d="M356.174,133.565H256v244.87h100.174c9.223,0,16.696-7.479,16.696-16.696V150.261
	C372.87,141.044,365.397,133.565,356.174,133.565z"/>
<g>
	<path style="fill:#DBE9FD;" d="M289.391,100.174h-66.783c-9.223,0-16.696-7.479-16.696-16.696s7.473-16.696,16.696-16.696h66.783
		c9.223,0,16.696,7.479,16.696,16.696S298.614,100.174,289.391,100.174z"/>
	<circle style="fill:#DBE9FD;" cx="256" cy="428.522" r="16.696"/>
</g>
<path style="fill:#9DCA40;" d="M301.195,238.631l-33.38-33.38c-1.55-1.553-3.41-2.79-5.473-3.639
	c-0.082-0.035-0.168-0.046-0.25-0.078c-1.891-0.745-3.936-1.186-6.092-1.186s-4.201,0.442-6.093,1.186
	c-0.082,0.032-0.168,0.045-0.25,0.078c-2.062,0.848-3.922,2.086-5.473,3.639l-33.38,33.38c-6.521,6.521-6.521,17.087,0,23.609
	c6.521,6.521,17.087,6.521,23.609,0l4.892-4.892v37.609c0,9.217,7.473,16.696,16.696,16.696s16.696-7.479,16.696-16.696v-37.609
	l4.892,4.892c3.261,3.261,7.533,4.892,11.804,4.892s8.544-1.631,11.804-4.892C307.718,255.717,307.718,245.152,301.195,238.631z"/>
<path style="fill:#C5DCFD;" d="M272.696,428.522c0-9.22-7.475-16.696-16.696-16.696v33.391
	C265.22,445.217,272.696,437.742,272.696,428.522z"/>
<path style="fill:#8EB043;" d="M272.696,294.957v-37.609l4.892,4.892c3.261,3.261,7.533,4.892,11.804,4.892
	s8.544-1.631,11.804-4.892c6.521-6.521,6.521-17.087,0-23.609l-33.38-33.38c-1.55-1.553-3.41-2.79-5.473-3.639
	c-0.082-0.035-0.168-0.046-0.25-0.078c-1.891-0.745-3.936-1.186-6.092-1.186v111.304
	C265.223,311.652,272.696,304.174,272.696,294.957z"/>
<path style="fill:#C5DCFD;" d="M289.391,66.783H256v33.391h33.391c9.223,0,16.696-7.479,16.696-16.696
	S298.614,66.783,289.391,66.783z"/>
<g>
</g>
<g>
</g>
<g>
</g>
<g>
</g>
<g>
</g>
<g>
</g>
<g>
</g>
<g>
</g>
<g>
</g>
<g>
</g>
<g>
</g>
<g>
</g>
<g>
</g>
<g>
</g>
<g>
</g>
</svg>
