<?xml version="1.0" encoding="iso-8859-1"?>
<!-- Generator: Adobe Illustrator 19.0.0, SVG Export Plug-In . SVG Version: 6.00 Build 0)  -->
<svg version="1.1" id="Layer_1" xmlns="http://www.w3.org/2000/svg" xmlns:xlink="http://www.w3.org/1999/xlink" x="0px" y="0px"
	 viewBox="0 0 512 512" style="enable-background:new 0 0 512 512;" xml:space="preserve">
<path style="fill:#615349;" d="M233.165,260.005l-11.458,46.055l-8.343,33.373l-13.572,54.064
	c-1.891,7.565-8.788,12.682-16.241,12.682l-66.746-0.223l-70.75-0.223c-9.011-2.336-14.462-11.347-12.125-20.245l33.373-133.492
	c1.78-7.453,8.454-12.682,16.13-12.682h133.492c5.117,0,10.012,2.336,13.127,6.452C233.276,249.77,234.389,255.11,233.165,260.005z"
	/>
<path style="fill:#594C43;" d="M233.165,260.005l-11.458,46.055l-8.343,33.373l-13.572,54.064
	c-1.891,7.565-8.788,12.682-16.241,12.682l-66.746-0.223V239.314h100.119c5.117,0,10.012,2.336,13.127,6.452
	C233.276,249.77,234.389,255.11,233.165,260.005z"/>
<path style="fill:#B1C6E4;" d="M495.314,172.568h-77.87c-9.212,0-16.686-7.474-16.686-16.686s7.474-16.686,16.686-16.686h77.87
	c9.212,0,16.686,7.474,16.686,16.686S504.526,172.568,495.314,172.568z"/>
<path style="fill:#9DB0CA;" d="M417.444,172.568h77.87c9.212,0,16.686-7.474,16.686-16.686H400.757
	C400.757,165.093,408.232,172.568,417.444,172.568z"/>
<path style="fill:#6E6057;" d="M350.415,222.627c-3.683,0-7.301-1.217-10.267-3.531c-4.053-3.162-6.42-8.017-6.42-13.156V105.822
	c0-5.138,2.368-9.994,6.42-13.156c4.051-3.162,9.289-4.291,14.318-3.031l66.746,16.686c7.42,1.858,12.634,8.528,12.634,16.187
	v66.746c0,7.659-5.215,14.329-12.634,16.187l-66.746,16.686C353.121,222.464,351.762,222.627,350.415,222.627z M417.161,189.254
	h0.109H417.161z"/>
<path style="fill:#615349;" d="M333.729,155.881v50.059c0,5.138,2.368,9.994,6.42,13.156c2.966,2.314,6.583,3.531,10.267,3.531
	c1.347,0,2.705-0.162,4.053-0.499l66.746-16.686c7.42-1.858,12.634-8.528,12.634-16.187v-33.373H333.729z"/>
<path style="fill:#9DCA40;" d="M300.356,272.686H50.059C22.412,272.686,0,250.274,0,222.627V89.136
	c0-27.647,22.412-50.059,50.059-50.059h250.297c36.863,0,66.746,29.883,66.746,66.746v100.119
	C367.102,242.803,337.218,272.686,300.356,272.686z"/>
<path style="fill:#8EB043;" d="M0,155.881v66.746c0,27.647,22.412,50.059,50.059,50.059h250.297
	c36.863,0,66.746-29.883,66.746-66.746v-50.059H0z"/>
<path style="fill:#799739;" d="M216.924,139.195H83.432c-9.212,0-16.686-7.474-16.686-16.686s7.474-16.686,16.686-16.686h133.492
	c9.212,0,16.686,7.474,16.686,16.686S226.136,139.195,216.924,139.195z"/>
<path style="fill:#657D30;" d="M216.924,205.941H83.432c-9.212,0-16.686-7.474-16.686-16.686s7.474-16.686,16.686-16.686h133.492
	c9.212,0,16.686,7.474,16.686,16.686S226.136,205.941,216.924,205.941z"/>
<path style="fill:#6E6057;" d="M221.707,306.059l-8.343,33.373h-52.062c-9.233,0-16.686-7.453-16.686-16.686
	c0-9.233,7.453-16.686,16.686-16.686H221.707z"/>
<path style="fill:#8A9199;" d="M183.551,472.924H50.059C22.455,472.924,0,450.468,0,422.864s22.455-50.059,50.059-50.059h133.492
	c27.604,0,50.059,22.456,50.059,50.059S211.155,472.924,183.551,472.924z"/>
<path style="fill:#737980;" d="M183.551,372.805h-66.746v100.119h66.746c27.604,0,50.059-22.456,50.059-50.059
	S211.155,372.805,183.551,372.805z"/>
<g>
</g>
<g>
</g>
<g>
</g>
<g>
</g>
<g>
</g>
<g>
</g>
<g>
</g>
<g>
</g>
<g>
</g>
<g>
</g>
<g>
</g>
<g>
</g>
<g>
</g>
<g>
</g>
<g>
</g>
</svg>
