<?xml version="1.0" encoding="iso-8859-1"?>
<!-- Generator: Adobe Illustrator 19.0.0, SVG Export Plug-In . SVG Version: 6.00 Build 0)  -->
<svg version="1.1" id="Layer_1" xmlns="http://www.w3.org/2000/svg" xmlns:xlink="http://www.w3.org/1999/xlink" x="0px" y="0px"
	 viewBox="0 0 512 512" style="enable-background:new 0 0 512 512;" xml:space="preserve">
<g>
	<path style="fill:#6E6057;" d="M94.518,306.039c-9.208,0-16.68-7.466-16.68-16.68V89.203c0-9.197-7.483-16.68-16.68-16.68H16.68
		C7.471,72.523,0,65.057,0,55.843s7.471-16.68,16.68-16.68h44.479c27.593,0,50.039,22.446,50.039,50.039v200.157
		C111.198,298.573,103.727,306.039,94.518,306.039z"/>
	<path style="fill:#6E6057;" d="M328.035,172.601H227.956c-27.593,0-50.039,22.446-50.039,50.039v20.013
		c0,9.214,7.471,16.68,16.68,16.68l166.797,33.359c9.208,0,16.68-7.466,16.68-16.68v-53.373
		C378.074,195.047,355.627,172.601,328.035,172.601z"/>
</g>
<path style="fill:#615349;" d="M328.035,172.601h-50.039v103.412l83.399,16.68c9.208,0,16.68-7.466,16.68-16.68v-53.373
	C378.074,195.047,355.627,172.601,328.035,172.601z"/>
<path style="fill:#6BBAE2;" d="M444.793,322.719l-83.399,83.399H161.237l-83.399-83.399V222.641
	c0-10.941,10.095-18.353,19.904-16.346l180.252,36.028l120.65,24.13C425.444,271.79,444.793,295.475,444.793,322.719z"/>
<path style="fill:#60AED5;" d="M444.793,322.719l-83.399,83.399h-83.399V242.323l120.65,24.13
	C425.444,271.79,444.793,295.475,444.793,322.719z"/>
<path style="fill:#6E6057;" d="M95.007,472.837c-45.988,0-83.399-37.41-83.399-83.399s37.41-83.399,83.399-83.399
	s83.399,37.41,83.399,83.399S140.996,472.837,95.007,472.837z"/>
<path style="fill:#615349;" d="M95.007,306.039c-0.165,0-0.324,0.023-0.488,0.024v166.748c0.165,0.001,0.324,0.024,0.488,0.024
	c45.988,0,83.399-37.41,83.399-83.399S140.996,306.039,95.007,306.039z"/>
<path style="fill:#DBE9FD;" d="M95.007,339.399c-27.594,0-50.039,22.446-50.039,50.039c0,27.593,22.445,50.039,50.039,50.039
	c27.593,0,50.039-22.446,50.039-50.039C145.046,361.845,122.6,339.399,95.007,339.399z"/>
<path style="fill:#C5DCFD;" d="M95.007,339.399c-0.168,0-0.321,0.048-0.488,0.05v99.979c0.167,0.001,0.321,0.05,0.488,0.05
	c27.593,0,50.039-22.446,50.039-50.039C145.046,361.846,122.6,339.399,95.007,339.399z"/>
<path style="fill:#6E6057;" d="M95.007,406.118c-9.197,0-16.68-7.483-16.68-16.68s7.483-16.68,16.68-16.68s16.68,7.483,16.68,16.68
	S104.204,406.118,95.007,406.118z"/>
<path style="fill:#615349;" d="M95.007,372.758c-0.165,0-0.325,0.02-0.488,0.024v33.309c0.163,0.004,0.324,0.024,0.488,0.024
	c9.197,0,16.68-7.483,16.68-16.68S104.204,372.758,95.007,372.758z"/>
<path style="fill:#6E6057;" d="M428.601,472.837c-45.988,0-83.399-37.41-83.399-83.399s37.41-83.399,83.399-83.399
	S512,343.45,512,389.438S474.591,472.837,428.601,472.837z"/>
<path style="fill:#615349;" d="M428.601,306.039c-0.165,0-0.324,0.023-0.488,0.024v166.748c0.165,0.001,0.324,0.024,0.488,0.024
	c45.988,0,83.399-37.41,83.399-83.399S474.591,306.039,428.601,306.039z"/>
<path style="fill:#DBE9FD;" d="M428.601,339.399c-27.594,0-50.039,22.446-50.039,50.039c0,27.593,22.445,50.039,50.039,50.039
	c27.593,0,50.039-22.446,50.039-50.039C478.641,361.845,456.195,339.399,428.601,339.399z"/>
<path style="fill:#C5DCFD;" d="M428.601,339.399c-0.168,0-0.321,0.048-0.488,0.05v99.979c0.167,0.001,0.321,0.05,0.488,0.05
	c27.593,0,50.039-22.446,50.039-50.039C478.641,361.846,456.195,339.399,428.601,339.399z"/>
<path style="fill:#6E6057;" d="M428.601,406.118c-9.197,0-16.68-7.483-16.68-16.68s7.483-16.68,16.68-16.68s16.68,7.483,16.68,16.68
	S437.799,406.118,428.601,406.118z"/>
<path style="fill:#615349;" d="M428.601,372.758c-0.165,0-0.325,0.02-0.488,0.024v33.309c0.163,0.004,0.324,0.024,0.488,0.024
	c9.197,0,16.68-7.483,16.68-16.68S437.799,372.758,428.601,372.758z"/>
<g>
</g>
<g>
</g>
<g>
</g>
<g>
</g>
<g>
</g>
<g>
</g>
<g>
</g>
<g>
</g>
<g>
</g>
<g>
</g>
<g>
</g>
<g>
</g>
<g>
</g>
<g>
</g>
<g>
</g>
</svg>
