<?xml version="1.0" encoding="iso-8859-1"?>
<!-- Generator: Adobe Illustrator 19.0.0, SVG Export Plug-In . SVG Version: 6.00 Build 0)  -->
<svg version="1.1" id="Layer_1" xmlns="http://www.w3.org/2000/svg" xmlns:xlink="http://www.w3.org/1999/xlink" x="0px" y="0px"
	 viewBox="0 0 512 512" style="enable-background:new 0 0 512 512;" xml:space="preserve">
<path style="fill:#A1AAB3;" d="M510.998,322.783c-3.116-36.063-13.69-70.01-30.275-100.174
	C437.203,143.026,352.835,89.043,256,89.043S74.797,143.026,31.277,222.609C14.692,252.772,4.118,286.72,1.002,322.783
	C0.334,330.129,0,337.586,0,345.043v61.217c0,9.238,7.457,16.696,16.696,16.696h478.609c9.238,0,16.696-7.457,16.696-16.696v-61.217
	C512,337.586,511.666,330.129,510.998,322.783z"/>
<path style="fill:#8A9199;" d="M495.304,422.957c9.238,0,16.696-7.457,16.696-16.696v-61.217c0-7.457-0.334-14.915-1.002-22.261
	c-3.116-36.063-13.69-70.01-30.275-100.174C437.203,143.026,352.835,89.043,256,89.043v333.913H495.304z"/>
<path style="fill:#DBE9FD;" d="M33.391,422.957v-77.913c0-6.447,0.292-12.92,0.865-19.24l0.013-0.146
	c2.667-30.851,11.503-60.109,26.268-86.961C99.767,166.958,174.65,122.435,256,122.435s156.233,44.523,195.427,116.195
	c14.8,26.919,23.637,56.176,26.303,87.028l0.013,0.146c0.573,6.32,0.865,12.793,0.865,19.24v77.913H33.391z"/>
<path style="fill:#8FF0F0;" d="M133.343,322.783c9.127,0,16.696-7.457,16.696-16.696v-66.783c0-9.238-7.569-16.696-16.696-16.696
	H70.227c-3.433,5.196-6.668,10.561-9.69,16.088c-14.305,26.015-23.027,54.293-25.983,84.086H133.343z"/>
<path style="fill:#C5DCFD;" d="M477.744,325.803l-0.013-0.146c-2.667-30.851-11.503-60.109-26.303-87.028
	C412.233,166.958,337.35,122.435,256,122.435v300.522h222.609v-77.913C478.609,338.597,478.317,332.123,477.744,325.803z"/>
<path style="fill:#87D7D7;" d="M441.778,222.609h-63.566c-9.238,0-16.473,7.457-16.473,16.696v66.783
	c0,9.238,7.235,16.696,16.473,16.696h99.233c-2.956-29.793-11.679-58.073-26.017-84.153
	C448.417,233.126,445.195,227.784,441.778,222.609z"/>
<path style="fill:#95673F;" d="M328.071,422.957H183.375V239.304c0-9.22,7.475-16.696,16.696-16.696h111.304
	c9.22,0,16.696,7.475,16.696,16.696V422.957z"/>
<path style="fill:#875334;" d="M311.375,222.609H256v200.348h72.071V239.304C328.071,230.084,320.595,222.609,311.375,222.609z"/>
<g>
</g>
<g>
</g>
<g>
</g>
<g>
</g>
<g>
</g>
<g>
</g>
<g>
</g>
<g>
</g>
<g>
</g>
<g>
</g>
<g>
</g>
<g>
</g>
<g>
</g>
<g>
</g>
<g>
</g>
</svg>
