<?xml version="1.0" encoding="iso-8859-1"?>
<!-- Generator: Adobe Illustrator 19.0.0, SVG Export Plug-In . SVG Version: 6.00 Build 0)  -->
<svg version="1.1" id="Layer_1" xmlns="http://www.w3.org/2000/svg" xmlns:xlink="http://www.w3.org/1999/xlink" x="0px" y="0px"
	 viewBox="0 0 512 512" style="enable-background:new 0 0 512 512;" xml:space="preserve">
<path style="fill:#E79D2E;" d="M338.813,34.282c-22.817-22.929-52.758-34.393-82.81-34.282c-29.829,0-59.659,11.353-82.476,34.282
	c-45.412,45.412-35.729,98.615-22.372,172.967c0,0,10.24,58.546,21.816,123.993c1.336,8.014,8.348,13.802,16.473,13.802h133.565
	c8.014,0,15.026-5.788,16.362-13.802c11.798-66.782,21.816-123.881,21.816-123.993C373.985,135.903,384.002,79.472,338.813,34.282z"
	/>
<path style="fill:#D8842A;" d="M361.185,207.249c0,0.111-10.017,57.21-21.816,123.993c-1.336,8.014-8.348,13.802-16.362,13.802
	h-67.005V0.001c30.052-0.111,59.993,11.353,82.81,34.282C384.002,79.472,373.985,135.903,361.185,207.249z"/>
<path style="fill:#95673F;" d="M422.964,512H89.052c-27.619,0-50.087-22.468-50.087-50.087v-33.391
	c0-9.223,7.473-16.696,16.696-16.696h400.695c9.223,0,16.69,7.473,16.69,16.696v33.391C473.046,489.532,450.583,512,422.964,512z"/>
<path style="fill:#FFD9B3;" d="M291.509,106.408c-6.567,6.567-17.141,6.567-23.708,0c-3.339-3.339-7.569-4.897-11.798-4.897
	c-4.23,0-8.459,1.558-11.798,4.897c-6.456,6.567-17.03,6.567-23.596,0c-6.567-6.456-6.567-17.03,0-23.596
	c9.795-9.795,22.595-14.692,35.395-14.692c12.8,0,25.6,4.897,35.395,14.692C297.964,89.267,297.964,99.839,291.509,106.408z"/>
<path style="fill:#EFBE44;" d="M456.35,445.217H55.655c-27.619,0-50.087-22.468-50.087-50.087v-33.391
	c0-27.619,22.468-50.087,50.087-50.087H456.35c27.615,0,50.081,22.468,50.081,50.087v33.391
	C506.431,422.749,483.963,445.217,456.35,445.217z"/>
<path style="fill:#875334;" d="M456.356,411.826H256.003V512h166.962c27.619,0,50.081-22.468,50.081-50.087v-33.391
	C473.046,419.299,465.578,411.826,456.356,411.826z"/>
<path style="fill:#E4A738;" d="M456.35,311.652H256.003v133.565H456.35c27.615,0,50.081-22.468,50.081-50.087v-33.391
	C506.431,334.119,483.963,311.652,456.35,311.652z"/>
<path style="fill:#FFC080;" d="M291.509,106.408c-6.567,6.567-17.141,6.567-23.708,0c-3.339-3.339-7.569-4.897-11.798-4.897V68.119
	c12.8,0,25.6,4.897,35.395,14.692C297.964,89.267,297.964,99.839,291.509,106.408z"/>
<g>
</g>
<g>
</g>
<g>
</g>
<g>
</g>
<g>
</g>
<g>
</g>
<g>
</g>
<g>
</g>
<g>
</g>
<g>
</g>
<g>
</g>
<g>
</g>
<g>
</g>
<g>
</g>
<g>
</g>
</svg>
