<?xml version="1.0" encoding="iso-8859-1"?>
<!-- Generator: Adobe Illustrator 19.0.0, SVG Export Plug-In . SVG Version: 6.00 Build 0)  -->
<svg version="1.1" id="Layer_1" xmlns="http://www.w3.org/2000/svg" xmlns:xlink="http://www.w3.org/1999/xlink" x="0px" y="0px"
	 viewBox="0 0 512 512" style="enable-background:new 0 0 512 512;" xml:space="preserve">
<path style="fill:#DBE9FD;" d="M384,512H116.87c-9.217,0-16.696-7.473-16.696-16.696V94.609c0-9.223,7.479-16.696,16.696-16.696H384
	c9.217,0,16.696,7.473,16.696,16.696v400.696C400.696,504.527,393.217,512,384,512z"/>
<path style="fill:#C5DCFD;" d="M384,77.913H250.435V512H384c9.217,0,16.696-7.473,16.696-16.696V94.609
	C400.696,85.386,393.217,77.913,384,77.913z"/>
<path style="fill:#B1C6E4;" d="M350.609,111.304H150.261c-9.217,0-16.696-7.473-16.696-16.696V16.696
	C133.565,7.473,141.044,0,150.261,0h200.348c9.217,0,16.696,7.473,16.696,16.696v77.913
	C367.304,103.831,359.826,111.304,350.609,111.304z"/>
<path style="fill:#9DB0CA;" d="M350.609,0H250.435v111.304h100.174c9.217,0,16.696-7.473,16.696-16.696V16.696
	C367.304,7.473,359.826,0,350.609,0z"/>
<g>
	<rect x="166.957" y="211.478" style="fill:#8FF0F0;" width="33.391" height="33.391"/>
	<rect x="166.957" y="278.261" style="fill:#8FF0F0;" width="33.391" height="33.391"/>
	<rect x="166.957" y="345.043" style="fill:#8FF0F0;" width="33.391" height="33.391"/>
	<rect x="166.957" y="411.826" style="fill:#8FF0F0;" width="33.391" height="33.391"/>
</g>
<rect x="300.522" y="211.478" style="fill:#87D7D7;" width="33.391" height="33.391"/>
<rect x="166.957" y="144.696" style="fill:#8FF0F0;" width="33.391" height="33.391"/>
<g>
	<rect x="300.522" y="144.696" style="fill:#87D7D7;" width="33.391" height="33.391"/>
	<rect x="300.522" y="278.261" style="fill:#87D7D7;" width="33.391" height="33.391"/>
	<rect x="300.522" y="345.043" style="fill:#87D7D7;" width="33.391" height="33.391"/>
	<rect x="300.522" y="411.826" style="fill:#87D7D7;" width="33.391" height="33.391"/>
</g>
<rect x="233.739" y="144.696" style="fill:#8FF0F0;" width="33.391" height="33.391"/>
<rect x="250.435" y="144.696" style="fill:#87D7D7;" width="16.696" height="33.391"/>
<rect x="233.739" y="211.478" style="fill:#8FF0F0;" width="33.391" height="33.391"/>
<rect x="250.435" y="211.478" style="fill:#87D7D7;" width="16.696" height="33.391"/>
<rect x="233.739" y="278.261" style="fill:#8FF0F0;" width="33.391" height="33.391"/>
<rect x="250.435" y="278.261" style="fill:#87D7D7;" width="16.696" height="33.391"/>
<rect x="233.739" y="345.043" style="fill:#8FF0F0;" width="33.391" height="33.391"/>
<rect x="250.435" y="345.043" style="fill:#87D7D7;" width="16.696" height="33.391"/>
<rect x="233.739" y="411.826" style="fill:#8FF0F0;" width="33.391" height="33.391"/>
<rect x="250.435" y="411.826" style="fill:#87D7D7;" width="16.696" height="33.391"/>
<path style="fill:#A1AAB3;" d="M417.391,111.304H83.478c-9.217,0-16.696-7.473-16.696-16.696s7.479-16.696,16.696-16.696h333.913
	c9.217,0,16.696,7.473,16.696,16.696S426.608,111.304,417.391,111.304z"/>
<path style="fill:#8A9199;" d="M417.391,77.913H250.435v33.391h166.957c9.217,0,16.696-7.473,16.696-16.696
	S426.608,77.913,417.391,77.913z"/>
<path style="fill:#A1AAB3;" d="M384,33.391H116.87c-9.217,0-16.696-7.473-16.696-16.696S107.652,0,116.87,0H384
	c9.217,0,16.696,7.473,16.696,16.696S393.217,33.391,384,33.391z"/>
<path style="fill:#8A9199;" d="M384,0H250.435v33.391H384c9.217,0,16.696-7.473,16.696-16.696S393.217,0,384,0z"/>
<path style="fill:#A1AAB3;" d="M495.304,512H16.696C7.479,512,0,504.527,0,495.304s7.479-16.696,16.696-16.696h478.609
	c9.217,0,16.696,7.473,16.696,16.696S504.521,512,495.304,512z"/>
<path style="fill:#8A9199;" d="M495.304,478.609h-244.87V512h244.87c9.217,0,16.696-7.473,16.696-16.696
	S504.521,478.609,495.304,478.609z"/>
<g>
</g>
<g>
</g>
<g>
</g>
<g>
</g>
<g>
</g>
<g>
</g>
<g>
</g>
<g>
</g>
<g>
</g>
<g>
</g>
<g>
</g>
<g>
</g>
<g>
</g>
<g>
</g>
<g>
</g>
</svg>
