<?xml version="1.0" encoding="iso-8859-1"?>
<!-- Generator: Adobe Illustrator 19.0.0, SVG Export Plug-In . SVG Version: 6.00 Build 0)  -->
<svg version="1.1" id="Layer_1" xmlns="http://www.w3.org/2000/svg" xmlns:xlink="http://www.w3.org/1999/xlink" x="0px" y="0px"
	 viewBox="0 0 512 512" style="enable-background:new 0 0 512 512;" xml:space="preserve">
<path style="fill:#A1AAB3;" d="M361.739,133.565H217.043c-9.217,0-16.696-7.473-16.696-16.696s7.479-16.696,16.696-16.696h144.696
	c9.217,0,16.696,7.473,16.696,16.696S370.956,133.565,361.739,133.565z"/>
<path style="fill:#8A9199;" d="M361.739,100.174H256v33.391h105.739c9.217,0,16.696-7.473,16.696-16.696
	S370.956,100.174,361.739,100.174z"/>
<path style="fill:#DBE9FD;" d="M345.043,512H166.957C74.891,512,0,437.103,0,345.043s74.891-166.957,166.957-166.957h178.087
	c92.065,0,166.957,74.897,166.957,166.957S437.109,512,345.043,512z"/>
<path style="fill:#C5DCFD;" d="M512,345.043c0-92.06-74.891-166.957-166.957-166.957H256V512h89.043
	C437.109,512,512,437.103,512,345.043z"/>
<path style="fill:#8FF0F0;" d="M166.957,211.478c-73.652,0-133.565,59.918-133.565,133.565s59.913,133.565,133.565,133.565h178.087
	c73.652,0,133.565-59.918,133.565-133.565s-59.913-133.565-133.565-133.565H166.957z"/>
<path style="fill:#87D7D7;" d="M345.043,211.478H256v267.13h89.043c73.652,0,133.565-59.918,133.565-133.565
	S418.696,211.478,345.043,211.478z"/>
<path style="fill:#BFC5CC;" d="M217.043,282.972c-9.217,0-16.696-7.473-16.696-16.696V50.087c0-9.206-7.49-16.696-16.696-16.696
	s-16.696,7.49-16.696,16.696c0,9.223-7.479,16.696-16.696,16.696s-16.696-7.473-16.696-16.696C133.565,22.468,156.033,0,183.652,0
	s50.087,22.468,50.087,50.087v216.19C233.739,275.501,226.261,282.972,217.043,282.972z"/>
<path style="fill:#AFB9BF;" d="M361.739,295.81c-9.217,0-16.696-7.473-16.696-16.696V50.087c0-9.206-7.49-16.696-16.696-16.696
	c-9.206,0-16.696,7.49-16.696,16.696c0,9.223-7.479,16.696-16.696,16.696c-9.217,0-16.696-7.473-16.696-16.696
	C278.261,22.468,300.729,0,328.348,0s50.087,22.468,50.087,50.087v229.028C378.435,288.337,370.956,295.81,361.739,295.81z"/>
<path style="fill:#6BBAE2;" d="M402.588,293.176c-42.741,21.37-101.064,23.263-146.588,5.675c-4.452-1.67-8.793-3.561-13.023-5.675
	c-37.176-18.588-81.475-18.588-118.65,0c-8.237,4.118-18.254,0.778-22.372-7.457c-4.118-8.237-0.778-18.254,7.457-22.372
	c45.857-22.929,100.508-23.263,146.588-0.89c0.668,0.223,1.224,0.557,1.892,0.89c37.621,18.81,92.16,18.81,129.781,0
	c8.237-4.118,18.254-0.778,22.372,7.457C414.163,279.04,410.824,289.057,402.588,293.176z"/>
<path style="fill:#60AED5;" d="M402.588,293.176c-42.741,21.37-101.064,23.263-146.588,5.675v-36.397
	c0.668,0.223,1.224,0.557,1.892,0.89c37.621,18.81,92.16,18.81,129.781,0c8.237-4.118,18.254-0.778,22.372,7.457
	C414.163,279.04,410.824,289.057,402.588,293.176z"/>
<path style="fill:#6BBAE2;" d="M402.588,359.958c-42.741,21.37-101.064,23.263-146.588,5.675c-4.452-1.67-8.793-3.561-13.023-5.675
	c-37.176-18.588-81.475-18.588-118.65,0c-8.237,4.118-18.254,0.778-22.372-7.457c-4.118-8.237-0.778-18.254,7.457-22.372
	C155.27,307.2,209.92,306.866,256,329.238c0.668,0.223,1.224,0.557,1.892,0.89c37.621,18.81,92.16,18.81,129.781,0
	c8.237-4.118,18.254-0.778,22.372,7.457C414.163,345.823,410.824,355.84,402.588,359.958z"/>
<path style="fill:#60AED5;" d="M402.588,359.958c-42.741,21.37-101.064,23.263-146.588,5.675v-36.397
	c0.668,0.223,1.224,0.557,1.892,0.89c37.621,18.81,92.16,18.81,129.781,0c8.237-4.118,18.254-0.778,22.372,7.457
	C414.163,345.823,410.824,355.84,402.588,359.958z"/>
<path style="fill:#6BBAE2;" d="M402.588,426.741c-42.741,21.37-101.064,23.263-146.588,5.675c-4.452-1.67-8.793-3.561-13.023-5.675
	c-37.176-18.588-81.475-18.588-118.65,0c-8.237,4.118-18.254,0.778-22.372-7.457c-4.118-8.237-0.778-18.254,7.457-22.372
	c45.857-22.929,100.508-23.263,146.588-0.89c0.668,0.223,1.224,0.557,1.892,0.89c37.621,18.81,92.16,18.81,129.781,0
	c8.237-4.118,18.254-0.778,22.372,7.457C414.163,412.605,410.824,422.623,402.588,426.741z"/>
<path style="fill:#60AED5;" d="M402.588,426.741c-42.741,21.37-101.064,23.263-146.588,5.675V396.02
	c0.668,0.223,1.224,0.557,1.892,0.89c37.621,18.81,92.16,18.81,129.781,0c8.237-4.118,18.254-0.778,22.372,7.457
	C414.163,412.605,410.824,422.623,402.588,426.741z"/>
<g>
</g>
<g>
</g>
<g>
</g>
<g>
</g>
<g>
</g>
<g>
</g>
<g>
</g>
<g>
</g>
<g>
</g>
<g>
</g>
<g>
</g>
<g>
</g>
<g>
</g>
<g>
</g>
<g>
</g>
</svg>
