<?xml version="1.0" encoding="iso-8859-1"?>
<!-- Generator: Adobe Illustrator 19.0.0, SVG Export Plug-In . SVG Version: 6.00 Build 0)  -->
<svg version="1.1" id="Layer_1" xmlns="http://www.w3.org/2000/svg" xmlns:xlink="http://www.w3.org/1999/xlink" x="0px" y="0px"
	 viewBox="0 0 512 512" style="enable-background:new 0 0 512 512;" xml:space="preserve">
<path style="fill:#E79D2E;" d="M205.913,247.652H116.87c-9.217,0-16.696-7.479-16.696-16.696v-66.783
	c0-9.217,7.479-16.696,16.696-16.696h89.043c9.217,0,16.696,7.479,16.696,16.696v66.783
	C222.609,240.174,215.13,247.652,205.913,247.652z"/>
<g>
	<path style="fill:#D8842A;" d="M395.13,247.652h-89.043c-9.217,0-16.696-7.479-16.696-16.696v-66.783
		c0-9.217,7.479-16.696,16.696-16.696h89.043c9.217,0,16.696,7.479,16.696,16.696v66.783
		C411.826,240.174,404.348,247.652,395.13,247.652z"/>
	<path style="fill:#D8842A;" d="M395.13,414.609h-89.043c-9.217,0-16.696-7.479-16.696-16.696V331.13
		c0-9.217,7.479-16.696,16.696-16.696h89.043c9.217,0,16.696,7.479,16.696,16.696v66.783
		C411.826,407.13,404.348,414.609,395.13,414.609z"/>
</g>
<path style="fill:#E79D2E;" d="M205.913,414.609H116.87c-9.217,0-16.696-7.479-16.696-16.696V331.13
	c0-9.217,7.479-16.696,16.696-16.696h89.043c9.217,0,16.696,7.479,16.696,16.696v66.783
	C222.609,407.13,215.13,414.609,205.913,414.609z"/>
<path style="fill:#EFBE44;" d="M306.087,481.391H205.913c-9.217,0-16.696-7.479-16.696-16.696V97.391
	c0-4.424,1.761-8.674,4.892-11.804l50.087-50.087c6.521-6.521,17.087-6.521,23.609,0l50.087,50.087
	c3.13,3.13,4.891,7.379,4.891,11.804v367.304C322.783,473.913,315.304,481.391,306.087,481.391z"/>
<path style="fill:#E4A738;" d="M306.087,481.391c9.217,0,16.696-7.479,16.696-16.696V97.391c0-4.424-1.761-8.674-4.892-11.804
	l-50.087-50.087c-3.261-3.261-7.533-4.892-11.804-4.892v450.783H306.087z"/>
<path style="fill:#EFBE44;" d="M116.87,481.391H16.696C7.479,481.391,0,473.913,0,464.696V97.391c0-4.424,1.761-8.674,4.892-11.804
	l50.087-50.087c6.521-6.521,17.087-6.521,23.609,0l50.087,50.087c3.13,3.13,4.891,7.379,4.891,11.804v367.304
	C133.565,473.913,126.087,481.391,116.87,481.391z"/>
<path style="fill:#E4A738;" d="M116.87,481.391c9.217,0,16.696-7.479,16.696-16.696V97.391c0-4.424-1.761-8.674-4.892-11.804
	L78.586,35.501c-3.26-3.261-7.532-4.892-11.804-4.892v450.783H116.87z"/>
<path style="fill:#EFBE44;" d="M495.304,481.391H395.13c-9.217,0-16.696-7.479-16.696-16.696V97.391
	c0-4.424,1.761-8.674,4.892-11.804l50.087-50.087c6.521-6.521,17.087-6.521,23.609,0l50.087,50.087
	c3.13,3.13,4.891,7.379,4.891,11.804v367.304C512,473.913,504.521,481.391,495.304,481.391z"/>
<path style="fill:#E4A738;" d="M495.304,481.391c9.217,0,16.696-7.479,16.696-16.696V97.391c0-4.424-1.761-8.674-4.892-11.804
	l-50.087-50.087c-3.261-3.261-7.533-4.892-11.804-4.892v450.783H495.304z"/>
<g>
</g>
<g>
</g>
<g>
</g>
<g>
</g>
<g>
</g>
<g>
</g>
<g>
</g>
<g>
</g>
<g>
</g>
<g>
</g>
<g>
</g>
<g>
</g>
<g>
</g>
<g>
</g>
<g>
</g>
</svg>
