<?xml version="1.0" encoding="iso-8859-1"?>
<!-- Generator: Adobe Illustrator 19.0.0, SVG Export Plug-In . SVG Version: 6.00 Build 0)  -->
<svg version="1.1" id="Layer_1" xmlns="http://www.w3.org/2000/svg" xmlns:xlink="http://www.w3.org/1999/xlink" x="0px" y="0px"
	 viewBox="0 0 512 512" style="enable-background:new 0 0 512 512;" xml:space="preserve">
<path style="fill:#FFD9B3;" d="M50.087,495.304c-18.412,0-33.391-14.979-33.391-33.391V50.087c0-18.412,14.979-33.391,33.391-33.391
	h411.826c18.412,0,33.391,14.979,33.391,33.391v411.826c0,18.412-14.979,33.391-33.391,33.391H50.087z"/>
<path style="fill:#FFC080;" d="M461.913,16.696H252.459v478.609h209.454c18.412,0,33.391-14.979,33.391-33.391V50.087
	C495.304,31.675,480.325,16.696,461.913,16.696z"/>
<path style="fill:#DBE9FD;" d="M478.609,194.926V50.087c0-9.206-7.49-16.696-16.696-16.696H311.652v109.566
	c0,31.64,25.75,57.391,57.392,57.391h85.565C463.212,200.348,471.323,198.38,478.609,194.926z"/>
<path style="fill:#B1C6E4;" d="M369.044,166.957c-13.234,0-24.001-10.766-24.001-24.001V66.783h133.565v76.174
	c0,13.234-10.766,24.001-24.001,24.001h-85.564V166.957z"/>
<path style="fill:#C5DCFD;" d="M133.565,66.783c-17.109,0-33.359,6.511-45.761,18.326c-3.62,3.435-7.696,6.37-12.141,8.728v79.457
	c4.446,2.359,8.521,5.294,12.13,8.728c12.403,11.814,28.663,18.325,45.772,18.325c36.826,0,66.783-29.956,66.783-66.783
	S170.391,66.783,133.565,66.783z"/>
<path style="fill:#DBE9FD;" d="M244.87,478.609v-61.217c0-46.032-37.446-83.478-83.478-83.478h-128v144.696H244.87z"/>
<path style="fill:#C5DCFD;" d="M33.391,478.609V367.304h128c27.618,0,50.087,22.469,50.087,50.087v61.217H33.391z"/>
<g>
	<path style="fill:#DBE9FD;" d="M83.478,200.348H16.696C7.479,200.348,0,192.869,0,183.652V83.478
		c0-9.217,7.479-16.696,16.696-16.696h66.783c9.217,0,16.696,7.479,16.696,16.696v100.174
		C100.174,192.869,92.695,200.348,83.478,200.348z"/>
	<path style="fill:#DBE9FD;" d="M83.478,434.087H16.696C7.479,434.087,0,426.608,0,417.391c0-9.217,7.479-16.696,16.696-16.696
		h66.783c9.217,0,16.696,7.479,16.696,16.696C100.174,426.608,92.695,434.087,83.478,434.087z"/>
</g>
<path style="fill:#C5DCFD;" d="M411.826,100.174c-9.217,0-16.696-7.479-16.696-16.696V16.696C395.13,7.479,402.609,0,411.826,0
	c9.217,0,16.696,7.479,16.696,16.696v66.783C428.522,92.695,421.043,100.174,411.826,100.174z"/>
<circle style="fill:#9DB0CA;" cx="161.391" cy="417.391" r="16.696"/>
<path style="fill:#8A9199;" d="M461.913,0H50.087C22.468,0,0,22.468,0,50.087v411.826C0,489.532,22.468,512,50.087,512h289.391
	c9.217,0,16.696-7.479,16.696-16.696c0-9.217-7.479-16.696-16.696-16.696H50.087c-9.206,0-16.696-7.49-16.696-16.696V283.826
	h261.565c9.217,0,16.696-7.479,16.696-16.696c0-9.217-7.479-16.696-16.696-16.696H33.391V50.087c0-9.206,7.49-16.696,16.696-16.696
	H244.87v150.261c0,7.235,4.675,13.468,11.13,15.694c1.781,0.668,3.562,1.002,5.565,1.002c9.238,0,16.696-7.457,16.696-16.696V33.391
	h183.652c9.206,0,16.696,7.49,16.696,16.696v411.826c0,9.206-7.49,16.696-16.696,16.696h-22.261
	c-9.217,0-16.696,7.479-16.696,16.696c0,9.217,7.479,16.696,16.696,16.696h22.261C489.532,512,512,489.532,512,461.913V50.087
	C512,22.468,489.532,0,461.913,0z"/>
<rect x="311.652" y="66.783" style="fill:#C5DCFD;" width="200.348" height="33.391"/>
<g>
	<path style="fill:#737980;" d="M339.478,478.609h-27.826v-128c0-9.217-7.479-16.696-16.696-16.696
		c-9.217,0-16.696,7.479-16.696,16.696v128H256V512h83.478c9.217,0,16.696-7.479,16.696-16.696
		C356.174,486.087,348.695,478.609,339.478,478.609z"/>
	<path style="fill:#737980;" d="M461.913,0H256v1.001v32.391v165.955c1.781,0.668,3.562,1.002,5.565,1.002
		c9.238,0,16.696-7.457,16.696-16.696V33.391h183.652c9.206,0,16.696,7.49,16.696,16.696v200.348H395.13
		c-9.217,0-16.696,7.479-16.696,16.696c0,9.217,7.479,16.696,16.696,16.696h83.478v178.087c0,9.206-7.49,16.696-16.696,16.696
		h-22.261c-9.217,0-16.696,7.479-16.696,16.696c0,9.217,7.479,16.696,16.696,16.696h22.261C489.532,512,512,489.532,512,461.913
		V50.087C512,22.468,489.532,0,461.913,0z"/>
</g>
<g>
</g>
<g>
</g>
<g>
</g>
<g>
</g>
<g>
</g>
<g>
</g>
<g>
</g>
<g>
</g>
<g>
</g>
<g>
</g>
<g>
</g>
<g>
</g>
<g>
</g>
<g>
</g>
<g>
</g>
</svg>
