<?xml version="1.0" encoding="iso-8859-1"?>
<!-- Generator: Adobe Illustrator 19.0.0, SVG Export Plug-In . SVG Version: 6.00 Build 0)  -->
<svg version="1.1" id="Layer_1" xmlns="http://www.w3.org/2000/svg" xmlns:xlink="http://www.w3.org/1999/xlink" x="0px" y="0px"
	 viewBox="0 0 512 512" style="enable-background:new 0 0 512 512;" xml:space="preserve">
<path style="fill:#DBE9FD;" d="M473.043,512H38.957C17.478,512,0,494.522,0,473.043V38.957C0,17.478,17.478,0,38.957,0h434.087
	C494.522,0,512,17.478,512,38.957v434.087C512,494.522,494.522,512,473.043,512z"/>
<path style="fill:#C5DCFD;" d="M473.043,0H222.609v512h250.435C494.522,512,512,494.522,512,473.043V38.957
	C512,17.478,494.522,0,473.043,0z"/>
<circle style="fill:#8EB043;" cx="428.522" cy="294.957" r="16.696"/>
<path style="fill:#A1AAB3;" d="M378.435,512H66.783V217.043c0-9.22,7.475-16.696,16.696-16.696h278.261
	c9.22,0,16.696,7.475,16.696,16.696V512z"/>
<path style="fill:#8A9199;" d="M361.739,200.348h-139.13V512h155.826V217.043C378.435,207.823,370.96,200.348,361.739,200.348z"/>
<path style="fill:#E6B78A;" d="M100.174,512h244.87V233.739h-244.87V512z"/>
<rect x="222.609" y="233.739" style="fill:#D99E62;" width="122.435" height="278.261"/>
<rect x="205.913" y="200.348" style="fill:#A1AAB3;" width="33.391" height="311.652"/>
<rect x="222.609" y="200.348" style="fill:#8A9199;" width="16.696" height="311.652"/>
<path style="fill:#A1AAB3;" d="M361.739,166.957H83.478c-9.223,0-16.696-7.479-16.696-16.696V83.478
	c0-9.217,7.473-16.696,16.696-16.696h278.261c9.223,0,16.696,7.479,16.696,16.696v66.783
	C378.435,159.478,370.962,166.957,361.739,166.957z"/>
<path style="fill:#8A9199;" d="M361.739,66.783h-139.13v100.174h139.13c9.223,0,16.696-7.479,16.696-16.696V83.478
	C378.435,74.261,370.962,66.783,361.739,66.783z"/>
<path style="fill:#8FF0F0;" d="M100.174,133.565h244.87v-33.391h-244.87V133.565z"/>
<rect x="222.609" y="100.174" style="fill:#87D7D7;" width="122.435" height="33.391"/>
<circle style="fill:#FF3501;" cx="428.522" cy="361.739" r="16.696"/>
<g>
</g>
<g>
</g>
<g>
</g>
<g>
</g>
<g>
</g>
<g>
</g>
<g>
</g>
<g>
</g>
<g>
</g>
<g>
</g>
<g>
</g>
<g>
</g>
<g>
</g>
<g>
</g>
<g>
</g>
</svg>
