<?xml version="1.0" encoding="utf-8"?>
<!-- Generator: Adobe Illustrator 23.0.6, SVG Export Plug-In . SVG Version: 6.00 Build 0)  -->
<svg version="1.1" id="Layer_1" xmlns="http://www.w3.org/2000/svg" xmlns:xlink="http://www.w3.org/1999/xlink" x="0px" y="0px"
	 width="126px" height="72px" viewBox="0 0 126 72" style="enable-background:new 0 0 126 72;" xml:space="preserve">
<style type="text/css">
	.st0{fill:#00AED5;}
	.st1{fill:#005392;}
</style>
<g>
	<g>
		<path class="st0" d="M66.1,7.3c-5.3,1.5-9.3,4.5-12.5,8.3c3.8-3,8.4-5.2,13.9-6.7c8.1-2.3,16.6-1.7,23.5,2l0.3-0.2
			C83.9,6.3,74.9,4.9,66.1,7.3z"/>
	</g>
</g>
<path class="st0" d="M67,35.2l34-10.9c0,0,0.3-5.5-4.7-10.7L67,35.2z"/>
<path class="st0" d="M99.7,25.3c0,0,8.4,12.5,3.5,29.5C102.8,56.2,110,40.2,99.7,25.3z"/>
<g>
	<g>
		<path class="st0" d="M122.3,22.5l-2.9-0.3l-0.2-2.9c0-0.3-0.2-0.5-0.5-0.5c-0.3,0-0.5,0.2-0.5,0.5l-0.3,2.9l-2.9,0.2
			c-0.3,0-0.5,0.2-0.5,0.5c0,0.3,0.2,0.5,0.5,0.5l2.9,0.3l0.2,2.9c0,0.3,0.2,0.5,0.5,0.5c0.3,0,0.5-0.2,0.5-0.5l0.3-2.9l2.9-0.2
			c0.3,0,0.5-0.2,0.5-0.5C122.7,22.8,122.5,22.6,122.3,22.5z"/>
		<path class="st0" d="M112.5,34.9c-0.2,0.8-1,1.3-1.8,1.2c-0.8-0.2-1.3-1-1.2-1.8c0.2-0.8,1-1.3,1.8-1.2
			C112.1,33.3,112.6,34.1,112.5,34.9z"/>
		<path class="st1" d="M122.1,39.9c-0.1,0.4-0.4,0.6-0.8,0.5c-0.4-0.1-0.6-0.5-0.5-0.8c0.1-0.4,0.4-0.6,0.8-0.5
			C122,39.1,122.2,39.5,122.1,39.9z"/>
		<path class="st1" d="M107.9,17.1c-0.1,0.4-0.4,0.6-0.8,0.5c-0.4-0.1-0.6-0.4-0.5-0.8c0.1-0.4,0.5-0.6,0.8-0.5
			C107.8,16.3,108,16.7,107.9,17.1z"/>
		<path class="st1" d="M114.7,5.9l-1.9-0.2l-0.2-1.9c0-0.2-0.2-0.3-0.3-0.3c-0.2,0-0.3,0.1-0.3,0.3l-0.2,1.9l-1.9,0.2
			c-0.2,0-0.3,0.2-0.3,0.3c0,0.2,0.1,0.3,0.3,0.3l1.9,0.2l0.2,1.9c0,0.2,0.2,0.3,0.3,0.3c0.2,0,0.3-0.1,0.3-0.3l0.2-1.9l1.9-0.2
			c0.2,0,0.3-0.2,0.3-0.3C115,6,114.8,5.9,114.7,5.9z"/>
	</g>
</g>
<path class="st0" d="M87.5,64.3c-7.9,2.3-17.1,1.2-25.4-3.1c-4.7-2.4-8.4-5.9-11.3-9.9l-0.4,0.2c2.9,4.7,6.4,9.1,11.6,11.9
	c8.2,4.3,17.4,4.5,25.5,1.4L87.5,64.3z"/>
<g>
	<path class="st0" d="M56.7,67.2c0.1,0.5-0.3,1-0.8,1c-0.5,0.1-1-0.3-1-0.8c-0.1-0.5,0.3-1,0.8-1C56.2,66.4,56.7,66.7,56.7,67.2z"/>
	<path class="st1" d="M48.1,62.7c0.1,0.8-0.5,1.6-1.3,1.6c-0.8,0.1-1.6-0.5-1.6-1.3c-0.1-0.8,0.5-1.6,1.3-1.6
		C47.3,61.3,48,61.9,48.1,62.7z"/>
</g>
<path class="st0" d="M67.3,40.2c0-0.2,0-0.5-0.1-0.7c0-0.2-0.1-0.5-0.1-0.7c-0.2-0.9-0.6-1.6-1-2.3c-0.4-0.6-0.9-1.1-1.3-1.5
	c-0.4-0.3-0.7-0.6-1-0.7c-1.7-0.9-3.8-1.1-5.8-0.5c-0.1,0-0.2,0.1-0.4,0.1c0,0,0,0,0,0c-0.1,0-0.1,0.1-0.2,0.1
	c-0.1,0-0.2,0.1-0.3,0.2c-0.2,0.1-0.4,0.2-0.6,0.4c-0.1,0.1-0.2,0.2-0.3,0.3c-0.1,0.1-0.2,0.2-0.3,0.3c-0.1,0.1-0.1,0.1-0.2,0.2
	c-0.1,0.1-0.1,0.1-0.2,0.2c-0.1,0.1-0.2,0.3-0.4,0.4c-0.1,0.2-0.2,0.3-0.3,0.5c-0.1,0.2-0.2,0.3-0.3,0.5c-0.1,0.2-0.2,0.4-0.3,0.6
	c-0.1,0.2-0.2,0.4-0.3,0.6c-0.3,0.9-0.5,1.8-0.4,2.8c0,0.1,0,0.3,0,0.4c0,0.1,0,0.1,0,0.2l0,0.2c0,0.1,0.1,0.2,0.1,0.4
	c0,0.1,0,0.1,0.1,0.2l0.1,0.2l0.1,0.2l0,0.1l0,0.1l0,0l0,0c0,0.1,0.1,0.2,0.2,0.4c0.1,0.3,0.2,0.5,0.4,0.7c0.5,1,1.4,1.8,2.3,2.4
	c0.5,0.3,1,0.5,1.6,0.7l0.2,0.1c0.1,0,0.1,0,0.2,0l0.4,0.1c0.1,0,0.3,0,0.4,0.1l0.2,0c0.1,0,0.1,0,0.2,0l0.4,0c0.1,0,0.3,0,0.4,0
	l0.2,0c0.1,0,0.1,0,0.2,0l0.4-0.1c0.1,0,0.3-0.1,0.4-0.1l0.2-0.1l0.1,0l0,0l0,0l0.1,0c0.3-0.1,0.5-0.2,0.8-0.3
	c0.1-0.1,0.3-0.1,0.4-0.2l0.4-0.2c0.1,0,0.1-0.1,0.2-0.1l0.2-0.1c0.1-0.1,0.2-0.2,0.3-0.3c0.4-0.4,0.8-0.8,1.1-1.2
	c0.2-0.2,0.3-0.5,0.4-0.7c0.1-0.1,0.1-0.2,0.2-0.4c0.1-0.1,0.1-0.2,0.2-0.4c0.2-0.5,0.3-1,0.4-1.5c0-0.1,0-0.3,0.1-0.4
	c0-0.1,0-0.3,0-0.4c0-0.1,0-0.2,0-0.4C67.3,40.5,67.3,40.3,67.3,40.2z M64.9,41.3c-0.1,0.7-0.3,1.4-0.7,1.9c-0.4,0.5-0.8,1-1.3,1.2
	c-0.5,0.3-1,0.5-1.4,0.5c-0.4,0.1-0.8,0.1-1.1,0c-0.2,0-0.3,0-0.4-0.1c-0.1,0-0.2-0.1-0.3-0.1c-0.2-0.1-0.2-0.1-0.2-0.1s0.1,0,0.3,0
	c0.1,0,0.2,0,0.3,0c0.1,0,0.3,0,0.4,0c0.1,0,0.2,0,0.2,0c0.1,0,0.2,0,0.3,0c0.1,0,0.2,0,0.3-0.1c0.1,0,0.2,0,0.3-0.1
	c0.4-0.1,0.8-0.3,1.2-0.6c0.4-0.3,0.8-0.7,1-1.2c0.3-0.5,0.4-1.1,0.5-1.6c0.1-0.6-0.1-1.2-0.3-1.8c-0.3-0.6-0.7-1.1-1.2-1.4
	l-0.2-0.1l-0.2-0.1c-0.1-0.1-0.3-0.1-0.4-0.2c-0.1,0-0.2-0.1-0.2-0.1l-0.1,0l0,0l0,0h0l-0.1,0c-0.2,0-0.3-0.1-0.5-0.1
	c-0.3-0.1-0.6,0-0.9,0c-0.3,0-0.6,0.1-0.9,0.2c-0.6,0.2-1.1,0.5-1.4,0.9c-0.1,0.1-0.1,0.1-0.1,0.2c0,0.1-0.1,0.1-0.1,0.2
	c-0.1,0.1-0.2,0.2-0.2,0.3c-0.1,0.1-0.1,0.2-0.2,0.3c-0.1,0.1-0.1,0.2-0.2,0.4c-0.2,0.5-0.2,0.9-0.3,1.3c0,0.4,0,0.8,0.1,1.1
	c0.1,0.3,0.2,0.5,0.2,0.7c0.1,0.2,0.1,0.2,0.1,0.2S57.1,43,57,42.8c-0.1-0.1-0.2-0.3-0.3-0.6c-0.1-0.3-0.2-0.7-0.3-1.1
	c0-0.4,0-1,0.1-1.5c0-0.1,0.1-0.3,0.1-0.4c0.1-0.1,0.1-0.3,0.2-0.4c0.1-0.1,0.1-0.3,0.2-0.4c0-0.1,0.1-0.1,0.1-0.2
	c0.1-0.1,0.1-0.1,0.2-0.2c0.2-0.3,0.5-0.5,0.7-0.7c0.3-0.2,0.6-0.4,0.9-0.5c0.3-0.1,0.7-0.2,1.1-0.3c0.4,0,0.7-0.1,1.1,0
	c0.2,0,0.4,0.1,0.6,0.1l0.1,0l0,0l0,0l0,0l0,0l0.1,0c0.1,0,0.2,0,0.2,0.1c0.2,0.1,0.4,0.2,0.5,0.3c0.1,0,0.2,0.1,0.3,0.1l0.2,0.2
	c0.6,0.5,1.1,1.1,1.4,1.8c0.1,0.4,0.3,0.7,0.3,1.1c0,0.2,0,0.4,0,0.6C65,40.9,65,41.1,64.9,41.3z"/>
<g>
	<path class="st1" d="M102.7,41.7l-7.5-14l-28.1,9c0.4,0.5,0.7,1.2,1,1.9c0.1,0.2,0.2,0.4,0.2,0.7c0.1,0.3,0.1,0.5,0.1,0.8
		c0,0.1,0,0.3,0,0.4c0,0.1,0,0.3,0,0.4c0,0.1,0,0.3,0,0.4c0,0.1,0,0.3,0,0.4c0,0.6-0.2,1.2-0.4,1.7c-0.2,0.6-0.5,1.1-0.8,1.7
		c-0.3,0.5-0.8,1-1.3,1.5c-0.2,0.2-0.4,0.3-0.6,0.5c10.9,8.7,26.2,15,36.4,9.3l-4.1-12.4L102.7,41.7z M86.1,34.3l5.7-1.8l0.8,2.5
		L86.1,34.3z"/>
</g>
<path class="st1" d="M54.4,45.3c-0.1-0.1-0.2-0.3-0.3-0.4c-0.1-0.1-0.2-0.3-0.2-0.4c-0.1-0.3-0.3-0.6-0.4-0.9
	c-0.1-0.1-0.1-0.3-0.2-0.4l0,0l0,0l0,0l0-0.1l0-0.1l-0.1-0.2c0-0.1-0.1-0.3-0.1-0.4c0-0.2,0-0.3-0.1-0.5l0-0.2c0-0.1,0-0.1,0-0.2
	c0-0.1,0-0.3,0-0.4c0-1.2,0.3-2.2,0.7-3.2c0.4-0.9,1-1.7,1.5-2.2c0.1-0.1,0.3-0.3,0.4-0.4c0.1-0.1,0.1-0.1,0.2-0.2
	c0.1-0.1,0.1-0.1,0.2-0.2c0.1-0.1,0.3-0.2,0.4-0.3c0.1-0.1,0.3-0.1,0.4-0.2c0.2-0.1,0.5-0.2,0.7-0.3c0.1,0,0.2-0.1,0.3-0.1
	c0.1,0,0.1,0,0.2,0c0.6-0.2,1.3-0.4,2-0.4c-1.5-0.2-4.7-1.1-6.2-4.8c-0.6-1.5-1.1-3.8-1.4-5c-0.4-1.7-0.8-3.2-2.2-4.9
	c-1.5-1.8-3.6-2-5.7-1.9c-3.2,0.1-41.8,0.5-41.8,0.5L4,19c2.4,2.8,5.9,6.8,14,6.8c-2,0.4-6.2,1.2-6.2,1.2l0.9,1
	c4.2,4.4,9.3,4.6,12.8,4c-1.9,0.8-5.3,2.2-5.3,2.2l1.1,0.8c4.5,3.3,8.6,3.1,12.1,2.1c-1.9,1.2-5.5,3.5-5.5,3.5l1.1,0.6
	c4.5,2.5,9,1.1,11.4,0c-1.7,1.7-4.9,4.8-4.9,4.8l1,0.4c2.7,1.1,6.6,1.2,11.4-2.8c0.1,0,0.1-0.1,0.2-0.2c-1.4,2.2-4.1,6.4-4.1,6.4
	l1.5-0.1c3.6-0.2,6.1-1.3,8-2.9c0.4-0.4,0.8-0.7,1.2-1.1C54.5,45.5,54.5,45.4,54.4,45.3z"/>
</svg>
